M48
; DRILL file {KiCad 9.0.4-9.0.4-0~ubuntu22.04.1} date 2025-10-31T00:20:33+0100
; FORMAT={-:-/ absolute / metric / decimal}
; #@! TF.CreationDate,2025-10-31T00:20:33+01:00
; #@! TF.GenerationSoftware,Kicad,Pcbnew,9.0.4-9.0.4-0~ubuntu22.04.1
; #@! TF.FileFunction,Plated,1,2,PTH
FMAT,2
METRIC
; #@! TA.AperFunction,Plated,PTH,ComponentDrill
T1C0.800
; #@! TA.AperFunction,Plated,PTH,ComponentDrill
T2C1.000
; #@! TA.AperFunction,Plated,PTH,ComponentDrill
T3C1.100
%
G90
G05
T1
X118.0Y-98.0
X120.5Y-98.0
X128.5Y-71.118
X128.5Y-73.618
T2
X115.3Y-108.5
X117.84Y-108.5
X119.5Y-83.42
X119.5Y-85.96
X119.5Y-88.5
X120.38Y-108.5
X122.92Y-108.5
X125.46Y-108.5
X128.0Y-108.5
X130.54Y-108.5
X141.26Y-72.46
X141.26Y-75.0
X141.26Y-77.54
X141.26Y-80.08
X141.26Y-82.62
X141.26Y-85.16
X141.26Y-87.7
X141.26Y-90.24
X141.26Y-92.78
X141.26Y-95.32
X141.26Y-97.86
X141.26Y-100.4
X141.26Y-102.94
X141.26Y-105.48
X141.26Y-108.02
X156.5Y-72.46
X156.5Y-75.0
X156.5Y-77.54
X156.5Y-80.08
X156.5Y-82.62
X156.5Y-85.16
X156.5Y-87.7
X156.5Y-90.24
X156.5Y-92.78
X156.5Y-95.32
X156.5Y-97.86
X156.5Y-100.4
X156.5Y-102.94
X156.5Y-105.48
X156.5Y-108.02
X171.58Y-71.55
X174.12Y-71.55
X176.66Y-71.55
X179.2Y-71.55
T3
X161.75Y-102.75
X161.75Y-107.25
X168.25Y-102.75
X168.25Y-107.25
X182.0Y-103.0
X182.0Y-107.5
X188.5Y-103.0
X188.5Y-107.5
M30
