%TF.GenerationSoftware,KiCad,Pcbnew,9.0.4-9.0.4-0~ubuntu22.04.1*%
%TF.CreationDate,2025-11-01T21:48:54+01:00*%
%TF.ProjectId,AutomatedBlinds,4175746f-6d61-4746-9564-426c696e6473,rev?*%
%TF.SameCoordinates,Original*%
%TF.FileFunction,Copper,L1,Top*%
%TF.FilePolarity,Positive*%
%FSLAX46Y46*%
G04 Gerber Fmt 4.6, Leading zero omitted, Abs format (unit mm)*
G04 Created by KiCad (PCBNEW 9.0.4-9.0.4-0~ubuntu22.04.1) date 2025-11-01 21:48:54*
%MOMM*%
%LPD*%
G01*
G04 APERTURE LIST*
%TA.AperFunction,ComponentPad*%
%ADD10O,1.600000X1.600000*%
%TD*%
%TA.AperFunction,ComponentPad*%
%ADD11R,1.600000X1.600000*%
%TD*%
%TA.AperFunction,ComponentPad*%
%ADD12O,1.700000X1.700000*%
%TD*%
%TA.AperFunction,ComponentPad*%
%ADD13R,1.700000X1.700000*%
%TD*%
%TA.AperFunction,ComponentPad*%
%ADD14C,2.000000*%
%TD*%
%TA.AperFunction,ComponentPad*%
%ADD15C,1.600000*%
%TD*%
%TA.AperFunction,ComponentPad*%
%ADD16O,1.600000X2.000000*%
%TD*%
G04 APERTURE END LIST*
D10*
%TO.P,A1,30,VIN*%
%TO.N,+6V*%
X158500000Y-72460000D03*
%TO.P,A1,29,GND*%
%TO.N,unconnected-(A1-GND-Pad29)*%
X158500000Y-75000000D03*
%TO.P,A1,28,~{RESET}*%
%TO.N,unconnected-(A1-~{RESET}-Pad28)*%
X158500000Y-77540000D03*
%TO.P,A1,27,+5V*%
%TO.N,+5V*%
X158500000Y-80080000D03*
%TO.P,A1,26,A7*%
%TO.N,unconnected-(A1-A7-Pad26)*%
X158500000Y-82620000D03*
%TO.P,A1,25,A6*%
%TO.N,unconnected-(A1-A6-Pad25)*%
X158500000Y-85160000D03*
%TO.P,A1,24,A5*%
%TO.N,Net-(A1-A5)*%
X158500000Y-87700000D03*
%TO.P,A1,23,A4*%
%TO.N,Net-(A1-A4)*%
X158500000Y-90240000D03*
%TO.P,A1,22,A3*%
%TO.N,unconnected-(A1-A3-Pad22)*%
X158500000Y-92780000D03*
%TO.P,A1,21,A2*%
%TO.N,unconnected-(A1-A2-Pad21)*%
X158500000Y-95320000D03*
%TO.P,A1,20,A1*%
%TO.N,Net-(A1-A1)*%
X158500000Y-97860000D03*
%TO.P,A1,19,A0*%
%TO.N,Net-(A1-A0)*%
X158500000Y-100400000D03*
%TO.P,A1,18,AREF*%
%TO.N,unconnected-(A1-AREF-Pad18)*%
X158500000Y-102940000D03*
%TO.P,A1,17,3V3*%
%TO.N,unconnected-(A1-3V3-Pad17)*%
X158500000Y-105480000D03*
%TO.P,A1,16,D13*%
%TO.N,unconnected-(A1-D13-Pad16)*%
X158500000Y-108020000D03*
%TO.P,A1,15,D12*%
%TO.N,unconnected-(A1-D12-Pad15)*%
X143260000Y-108020000D03*
%TO.P,A1,14,D11*%
%TO.N,Net-(A1-D11)*%
X143260000Y-105480000D03*
%TO.P,A1,13,D10*%
%TO.N,unconnected-(A1-D10-Pad13)*%
X143260000Y-102940000D03*
%TO.P,A1,12,D9*%
%TO.N,unconnected-(A1-D9-Pad12)*%
X143260000Y-100400000D03*
%TO.P,A1,11,D8*%
%TO.N,unconnected-(A1-D8-Pad11)*%
X143260000Y-97860000D03*
%TO.P,A1,10,D7*%
%TO.N,unconnected-(A1-D7-Pad10)*%
X143260000Y-95320000D03*
%TO.P,A1,9,D6*%
%TO.N,unconnected-(A1-D6-Pad9)*%
X143260000Y-92780000D03*
%TO.P,A1,8,D5*%
%TO.N,unconnected-(A1-D5-Pad8)*%
X143260000Y-90240000D03*
%TO.P,A1,7,D4*%
%TO.N,unconnected-(A1-D4-Pad7)*%
X143260000Y-87700000D03*
%TO.P,A1,6,D3*%
%TO.N,Net-(A1-D3)*%
X143260000Y-85160000D03*
%TO.P,A1,5,D2*%
%TO.N,unconnected-(A1-D2-Pad5)*%
X143260000Y-82620000D03*
%TO.P,A1,4,GND*%
%TO.N,unconnected-(A1-GND-Pad4)*%
X143260000Y-80080000D03*
%TO.P,A1,3,~{RESET}*%
%TO.N,unconnected-(A1-~{RESET}-Pad3)*%
X143260000Y-77540000D03*
%TO.P,A1,2,D0/RX*%
%TO.N,unconnected-(A1-D0{slash}RX-Pad2)*%
X143260000Y-75000000D03*
D11*
%TO.P,A1,1,D1/TX*%
%TO.N,unconnected-(A1-D1{slash}TX-Pad1)*%
X143260000Y-72460000D03*
%TD*%
D12*
%TO.P,J4,7,Pin_7*%
%TO.N,+6V*%
X124260000Y-108000000D03*
%TO.P,J4,6,Pin_6*%
%TO.N,GND*%
X126800000Y-108000000D03*
%TO.P,J4,5,Pin_5*%
%TO.N,+5V*%
X129340000Y-108000000D03*
%TO.P,J4,4,Pin_4*%
%TO.N,GND*%
X131880000Y-108000000D03*
%TO.P,J4,3,Pin_3*%
%TO.N,Net-(A1-A5)*%
X134420000Y-108000000D03*
%TO.P,J4,2,Pin_2*%
%TO.N,Net-(A1-A4)*%
X136960000Y-108000000D03*
D13*
%TO.P,J4,1,Pin_1*%
%TO.N,Net-(A1-D11)*%
X139500000Y-108000000D03*
%TD*%
D14*
%TO.P,SW2,2,2*%
%TO.N,GND*%
X168500000Y-110000000D03*
X162000000Y-110000000D03*
%TO.P,SW2,1,1*%
%TO.N,Net-(A1-A0)*%
X162000000Y-105500000D03*
X168500000Y-105500000D03*
%TD*%
%TO.P,SW1,2,2*%
%TO.N,GND*%
X179500000Y-110000000D03*
X173000000Y-110000000D03*
%TO.P,SW1,1,1*%
%TO.N,Net-(A1-A1)*%
X173000000Y-105500000D03*
X179500000Y-105500000D03*
%TD*%
D11*
%TO.P,C1,1*%
%TO.N,+6V*%
X134000000Y-82500000D03*
D15*
%TO.P,C1,2*%
%TO.N,GND*%
X134000000Y-80000000D03*
%TD*%
D16*
%TO.P,Brd1,4,SDA*%
%TO.N,Net-(A1-A4)*%
X178000000Y-77500000D03*
%TO.P,Brd1,3,SCL*%
%TO.N,Net-(A1-A5)*%
X175460000Y-77500000D03*
%TO.P,Brd1,1,GND*%
%TO.N,GND*%
X170380000Y-77500000D03*
%TO.P,Brd1,2,VCC*%
%TO.N,+5V*%
X172920000Y-77500000D03*
%TD*%
D13*
%TO.P,J2,1,Pin_1*%
%TO.N,Net-(A1-D3)*%
X124220529Y-85151150D03*
D12*
%TO.P,J2,2,Pin_2*%
%TO.N,+6V*%
X124220529Y-82611150D03*
%TO.P,J2,3,Pin_3*%
%TO.N,GND*%
X124220529Y-80071150D03*
%TD*%
M02*
