%TF.GenerationSoftware,KiCad,Pcbnew,9.0.4-9.0.4-0~ubuntu22.04.1*%
%TF.CreationDate,2025-11-02T18:02:29+01:00*%
%TF.ProjectId,platine_sensor,706c6174-696e-4655-9f73-656e736f722e,rev?*%
%TF.SameCoordinates,Original*%
%TF.FileFunction,Copper,L2,Bot*%
%TF.FilePolarity,Positive*%
%FSLAX46Y46*%
G04 Gerber Fmt 4.6, Leading zero omitted, Abs format (unit mm)*
G04 Created by KiCad (PCBNEW 9.0.4-9.0.4-0~ubuntu22.04.1) date 2025-11-02 18:02:29*
%MOMM*%
%LPD*%
G01*
G04 APERTURE LIST*
%TA.AperFunction,ComponentPad*%
%ADD10R,1.700000X1.700000*%
%TD*%
%TA.AperFunction,ComponentPad*%
%ADD11O,1.700000X1.700000*%
%TD*%
%TA.AperFunction,Conductor*%
%ADD12C,0.200000*%
%TD*%
G04 APERTURE END LIST*
D10*
%TO.P,J2,1,Pin_1*%
%TO.N,Net-(J1-Pin_6)*%
X136000000Y-90540000D03*
D11*
%TO.P,J2,2,Pin_2*%
%TO.N,Net-(J1-Pin_5)*%
X136000000Y-88000000D03*
%TO.P,J2,3,Pin_3*%
%TO.N,Net-(J1-Pin_4)*%
X136000000Y-85460000D03*
%TO.P,J2,4,Pin_4*%
%TO.N,Net-(J1-Pin_3)*%
X136000000Y-82920000D03*
%TO.P,J2,5,Pin_5*%
%TO.N,Net-(J1-Pin_2)*%
X136000000Y-80380000D03*
%TO.P,J2,6,Pin_6*%
%TO.N,GND*%
X136000000Y-77840000D03*
%TD*%
D10*
%TO.P,J1,1,Pin_1*%
%TO.N,GND*%
X128615172Y-77814608D03*
D11*
%TO.P,J1,2,Pin_2*%
%TO.N,Net-(J1-Pin_2)*%
X128615172Y-80354608D03*
%TO.P,J1,3,Pin_3*%
%TO.N,Net-(J1-Pin_3)*%
X128615172Y-82894608D03*
%TO.P,J1,4,Pin_4*%
%TO.N,Net-(J1-Pin_4)*%
X128615172Y-85434608D03*
%TO.P,J1,5,Pin_5*%
%TO.N,Net-(J1-Pin_5)*%
X128615172Y-87974608D03*
%TO.P,J1,6,Pin_6*%
%TO.N,Net-(J1-Pin_6)*%
X128615172Y-90514608D03*
%TD*%
D12*
%TO.N,Net-(J1-Pin_6)*%
X128615172Y-90514608D02*
X135974608Y-90514608D01*
X135974608Y-90514608D02*
X136000000Y-90540000D01*
%TO.N,Net-(J1-Pin_5)*%
X128615172Y-87974608D02*
X135974608Y-87974608D01*
X135974608Y-87974608D02*
X136000000Y-88000000D01*
%TO.N,Net-(J1-Pin_4)*%
X128615172Y-85434608D02*
X135974608Y-85434608D01*
X135974608Y-85434608D02*
X136000000Y-85460000D01*
%TO.N,Net-(J1-Pin_3)*%
X128615172Y-82894608D02*
X135974608Y-82894608D01*
X135974608Y-82894608D02*
X136000000Y-82920000D01*
%TO.N,Net-(J1-Pin_2)*%
X128615172Y-80354608D02*
X135974608Y-80354608D01*
X135974608Y-80354608D02*
X136000000Y-80380000D01*
%TO.N,GND*%
X135974608Y-77814608D02*
X136000000Y-77840000D01*
%TD*%
%TA.AperFunction,Conductor*%
%TO.N,GND*%
G36*
X137942539Y-76020185D02*
G01*
X137988294Y-76072989D01*
X137999500Y-76124500D01*
X137999500Y-92375500D01*
X137979815Y-92442539D01*
X137927011Y-92488294D01*
X137875500Y-92499500D01*
X126624500Y-92499500D01*
X126557461Y-92479815D01*
X126511706Y-92427011D01*
X126500500Y-92375500D01*
X126500500Y-90411138D01*
X127564672Y-90411138D01*
X127564672Y-90618077D01*
X127605040Y-90821020D01*
X127605042Y-90821028D01*
X127684230Y-91012204D01*
X127799196Y-91184265D01*
X127945514Y-91330583D01*
X127945517Y-91330585D01*
X128117574Y-91445549D01*
X128308752Y-91524738D01*
X128511702Y-91565107D01*
X128511706Y-91565108D01*
X128511707Y-91565108D01*
X128718638Y-91565108D01*
X128718639Y-91565107D01*
X128921592Y-91524738D01*
X129112770Y-91445549D01*
X129284827Y-91330585D01*
X129431149Y-91184263D01*
X129546113Y-91012206D01*
X129596047Y-90891654D01*
X129639888Y-90837252D01*
X129706182Y-90815187D01*
X129710608Y-90815108D01*
X134825500Y-90815108D01*
X134892539Y-90834793D01*
X134938294Y-90887597D01*
X134949500Y-90939108D01*
X134949500Y-91409752D01*
X134961131Y-91468229D01*
X134961132Y-91468230D01*
X135005447Y-91534552D01*
X135071769Y-91578867D01*
X135071770Y-91578868D01*
X135130247Y-91590499D01*
X135130250Y-91590500D01*
X135130252Y-91590500D01*
X136869750Y-91590500D01*
X136869751Y-91590499D01*
X136884568Y-91587552D01*
X136928229Y-91578868D01*
X136928229Y-91578867D01*
X136928231Y-91578867D01*
X136994552Y-91534552D01*
X137038867Y-91468231D01*
X137038867Y-91468229D01*
X137038868Y-91468229D01*
X137050499Y-91409752D01*
X137050500Y-91409750D01*
X137050500Y-89670249D01*
X137050499Y-89670247D01*
X137038868Y-89611770D01*
X137038867Y-89611769D01*
X136994552Y-89545447D01*
X136928230Y-89501132D01*
X136928229Y-89501131D01*
X136869752Y-89489500D01*
X136869748Y-89489500D01*
X135130252Y-89489500D01*
X135130247Y-89489500D01*
X135071770Y-89501131D01*
X135071769Y-89501132D01*
X135005447Y-89545447D01*
X134961132Y-89611769D01*
X134961131Y-89611770D01*
X134949500Y-89670247D01*
X134949500Y-90090108D01*
X134929815Y-90157147D01*
X134877011Y-90202902D01*
X134825500Y-90214108D01*
X129710608Y-90214108D01*
X129643569Y-90194423D01*
X129597814Y-90141619D01*
X129596047Y-90137561D01*
X129546113Y-90017011D01*
X129546113Y-90017010D01*
X129431149Y-89844953D01*
X129431147Y-89844950D01*
X129284829Y-89698632D01*
X129154828Y-89611769D01*
X129112770Y-89583667D01*
X129020499Y-89545447D01*
X128921592Y-89504478D01*
X128921584Y-89504476D01*
X128718641Y-89464108D01*
X128718637Y-89464108D01*
X128511707Y-89464108D01*
X128511702Y-89464108D01*
X128308759Y-89504476D01*
X128308751Y-89504478D01*
X128117575Y-89583666D01*
X127945514Y-89698632D01*
X127799196Y-89844950D01*
X127684230Y-90017011D01*
X127605042Y-90208187D01*
X127605040Y-90208195D01*
X127564672Y-90411138D01*
X126500500Y-90411138D01*
X126500500Y-87871138D01*
X127564672Y-87871138D01*
X127564672Y-88078077D01*
X127603864Y-88275108D01*
X127605042Y-88281028D01*
X127684231Y-88472206D01*
X127741713Y-88558234D01*
X127799196Y-88644265D01*
X127945514Y-88790583D01*
X127945517Y-88790585D01*
X128117574Y-88905549D01*
X128308752Y-88984738D01*
X128511702Y-89025107D01*
X128511706Y-89025108D01*
X128511707Y-89025108D01*
X128718638Y-89025108D01*
X128718639Y-89025107D01*
X128921592Y-88984738D01*
X129112770Y-88905549D01*
X129284827Y-88790585D01*
X129431149Y-88644263D01*
X129546113Y-88472206D01*
X129596047Y-88351654D01*
X129639888Y-88297252D01*
X129706182Y-88275187D01*
X129710608Y-88275108D01*
X134894046Y-88275108D01*
X134961085Y-88294793D01*
X135006840Y-88347597D01*
X135008607Y-88351655D01*
X135069057Y-88497596D01*
X135184024Y-88669657D01*
X135330342Y-88815975D01*
X135330345Y-88815977D01*
X135502402Y-88930941D01*
X135693580Y-89010130D01*
X135896530Y-89050499D01*
X135896534Y-89050500D01*
X135896535Y-89050500D01*
X136103466Y-89050500D01*
X136103467Y-89050499D01*
X136306420Y-89010130D01*
X136497598Y-88930941D01*
X136669655Y-88815977D01*
X136815977Y-88669655D01*
X136930941Y-88497598D01*
X137010130Y-88306420D01*
X137050500Y-88103465D01*
X137050500Y-87896535D01*
X137010130Y-87693580D01*
X136930941Y-87502402D01*
X136815977Y-87330345D01*
X136815975Y-87330342D01*
X136669657Y-87184024D01*
X136583626Y-87126541D01*
X136497598Y-87069059D01*
X136436294Y-87043666D01*
X136306420Y-86989870D01*
X136306412Y-86989868D01*
X136103469Y-86949500D01*
X136103465Y-86949500D01*
X135896535Y-86949500D01*
X135896530Y-86949500D01*
X135693587Y-86989868D01*
X135693579Y-86989870D01*
X135502403Y-87069058D01*
X135330342Y-87184024D01*
X135184024Y-87330342D01*
X135069056Y-87502405D01*
X135029643Y-87597560D01*
X134985802Y-87651964D01*
X134919508Y-87674029D01*
X134915082Y-87674108D01*
X129710608Y-87674108D01*
X129643569Y-87654423D01*
X129597814Y-87601619D01*
X129596047Y-87597561D01*
X129556631Y-87502403D01*
X129546113Y-87477010D01*
X129431149Y-87304953D01*
X129431147Y-87304950D01*
X129284829Y-87158632D01*
X129150772Y-87069059D01*
X129112770Y-87043667D01*
X128921592Y-86964478D01*
X128921584Y-86964476D01*
X128718641Y-86924108D01*
X128718637Y-86924108D01*
X128511707Y-86924108D01*
X128511702Y-86924108D01*
X128308759Y-86964476D01*
X128308751Y-86964478D01*
X128117575Y-87043666D01*
X127945514Y-87158632D01*
X127799196Y-87304950D01*
X127684230Y-87477011D01*
X127605042Y-87668187D01*
X127605040Y-87668195D01*
X127564672Y-87871138D01*
X126500500Y-87871138D01*
X126500500Y-85331138D01*
X127564672Y-85331138D01*
X127564672Y-85538077D01*
X127603864Y-85735108D01*
X127605042Y-85741028D01*
X127684231Y-85932206D01*
X127741713Y-86018234D01*
X127799196Y-86104265D01*
X127945514Y-86250583D01*
X127945517Y-86250585D01*
X128117574Y-86365549D01*
X128308752Y-86444738D01*
X128511702Y-86485107D01*
X128511706Y-86485108D01*
X128511707Y-86485108D01*
X128718638Y-86485108D01*
X128718639Y-86485107D01*
X128921592Y-86444738D01*
X129112770Y-86365549D01*
X129284827Y-86250585D01*
X129431149Y-86104263D01*
X129546113Y-85932206D01*
X129596047Y-85811654D01*
X129639888Y-85757252D01*
X129706182Y-85735187D01*
X129710608Y-85735108D01*
X134894046Y-85735108D01*
X134961085Y-85754793D01*
X135006840Y-85807597D01*
X135008607Y-85811655D01*
X135069057Y-85957596D01*
X135184024Y-86129657D01*
X135330342Y-86275975D01*
X135330345Y-86275977D01*
X135502402Y-86390941D01*
X135693580Y-86470130D01*
X135896530Y-86510499D01*
X135896534Y-86510500D01*
X135896535Y-86510500D01*
X136103466Y-86510500D01*
X136103467Y-86510499D01*
X136306420Y-86470130D01*
X136497598Y-86390941D01*
X136669655Y-86275977D01*
X136815977Y-86129655D01*
X136930941Y-85957598D01*
X137010130Y-85766420D01*
X137050500Y-85563465D01*
X137050500Y-85356535D01*
X137010130Y-85153580D01*
X136930941Y-84962402D01*
X136815977Y-84790345D01*
X136815975Y-84790342D01*
X136669657Y-84644024D01*
X136583626Y-84586541D01*
X136497598Y-84529059D01*
X136436294Y-84503666D01*
X136306420Y-84449870D01*
X136306412Y-84449868D01*
X136103469Y-84409500D01*
X136103465Y-84409500D01*
X135896535Y-84409500D01*
X135896530Y-84409500D01*
X135693587Y-84449868D01*
X135693579Y-84449870D01*
X135502403Y-84529058D01*
X135330342Y-84644024D01*
X135184024Y-84790342D01*
X135069056Y-84962405D01*
X135029643Y-85057560D01*
X134985802Y-85111964D01*
X134919508Y-85134029D01*
X134915082Y-85134108D01*
X129710608Y-85134108D01*
X129643569Y-85114423D01*
X129597814Y-85061619D01*
X129596047Y-85057561D01*
X129556631Y-84962403D01*
X129546113Y-84937010D01*
X129431149Y-84764953D01*
X129431147Y-84764950D01*
X129284829Y-84618632D01*
X129150772Y-84529059D01*
X129112770Y-84503667D01*
X128921592Y-84424478D01*
X128921584Y-84424476D01*
X128718641Y-84384108D01*
X128718637Y-84384108D01*
X128511707Y-84384108D01*
X128511702Y-84384108D01*
X128308759Y-84424476D01*
X128308751Y-84424478D01*
X128117575Y-84503666D01*
X127945514Y-84618632D01*
X127799196Y-84764950D01*
X127684230Y-84937011D01*
X127605042Y-85128187D01*
X127605040Y-85128195D01*
X127564672Y-85331138D01*
X126500500Y-85331138D01*
X126500500Y-82791138D01*
X127564672Y-82791138D01*
X127564672Y-82998077D01*
X127603864Y-83195108D01*
X127605042Y-83201028D01*
X127684231Y-83392206D01*
X127741713Y-83478234D01*
X127799196Y-83564265D01*
X127945514Y-83710583D01*
X127945517Y-83710585D01*
X128117574Y-83825549D01*
X128308752Y-83904738D01*
X128511702Y-83945107D01*
X128511706Y-83945108D01*
X128511707Y-83945108D01*
X128718638Y-83945108D01*
X128718639Y-83945107D01*
X128921592Y-83904738D01*
X129112770Y-83825549D01*
X129284827Y-83710585D01*
X129431149Y-83564263D01*
X129546113Y-83392206D01*
X129596047Y-83271654D01*
X129639888Y-83217252D01*
X129706182Y-83195187D01*
X129710608Y-83195108D01*
X134894046Y-83195108D01*
X134961085Y-83214793D01*
X135006840Y-83267597D01*
X135008607Y-83271655D01*
X135069057Y-83417596D01*
X135184024Y-83589657D01*
X135330342Y-83735975D01*
X135330345Y-83735977D01*
X135502402Y-83850941D01*
X135693580Y-83930130D01*
X135896530Y-83970499D01*
X135896534Y-83970500D01*
X135896535Y-83970500D01*
X136103466Y-83970500D01*
X136103467Y-83970499D01*
X136306420Y-83930130D01*
X136497598Y-83850941D01*
X136669655Y-83735977D01*
X136815977Y-83589655D01*
X136930941Y-83417598D01*
X137010130Y-83226420D01*
X137050500Y-83023465D01*
X137050500Y-82816535D01*
X137010130Y-82613580D01*
X136930941Y-82422402D01*
X136815977Y-82250345D01*
X136815975Y-82250342D01*
X136669657Y-82104024D01*
X136583626Y-82046541D01*
X136497598Y-81989059D01*
X136436294Y-81963666D01*
X136306420Y-81909870D01*
X136306412Y-81909868D01*
X136103469Y-81869500D01*
X136103465Y-81869500D01*
X135896535Y-81869500D01*
X135896530Y-81869500D01*
X135693587Y-81909868D01*
X135693579Y-81909870D01*
X135502403Y-81989058D01*
X135330342Y-82104024D01*
X135184024Y-82250342D01*
X135069056Y-82422405D01*
X135029643Y-82517560D01*
X134985802Y-82571964D01*
X134919508Y-82594029D01*
X134915082Y-82594108D01*
X129710608Y-82594108D01*
X129643569Y-82574423D01*
X129597814Y-82521619D01*
X129596047Y-82517561D01*
X129556631Y-82422403D01*
X129546113Y-82397010D01*
X129431149Y-82224953D01*
X129431147Y-82224950D01*
X129284829Y-82078632D01*
X129150772Y-81989059D01*
X129112770Y-81963667D01*
X128921592Y-81884478D01*
X128921584Y-81884476D01*
X128718641Y-81844108D01*
X128718637Y-81844108D01*
X128511707Y-81844108D01*
X128511702Y-81844108D01*
X128308759Y-81884476D01*
X128308751Y-81884478D01*
X128117575Y-81963666D01*
X127945514Y-82078632D01*
X127799196Y-82224950D01*
X127684230Y-82397011D01*
X127605042Y-82588187D01*
X127605040Y-82588195D01*
X127564672Y-82791138D01*
X126500500Y-82791138D01*
X126500500Y-76916763D01*
X127265172Y-76916763D01*
X127265172Y-77564608D01*
X128182160Y-77564608D01*
X128149247Y-77621615D01*
X128115172Y-77748782D01*
X128115172Y-77880434D01*
X128149247Y-78007601D01*
X128182160Y-78064608D01*
X127265172Y-78064608D01*
X127265172Y-78712452D01*
X127271573Y-78771980D01*
X127271575Y-78771987D01*
X127321817Y-78906694D01*
X127321821Y-78906701D01*
X127407981Y-79021795D01*
X127407984Y-79021798D01*
X127523078Y-79107958D01*
X127523085Y-79107962D01*
X127657792Y-79158204D01*
X127657799Y-79158206D01*
X127717327Y-79164607D01*
X127717344Y-79164608D01*
X128119607Y-79164608D01*
X128186646Y-79184293D01*
X128232401Y-79237097D01*
X128242345Y-79306255D01*
X128213320Y-79369811D01*
X128167060Y-79403169D01*
X128117575Y-79423666D01*
X127945514Y-79538632D01*
X127799196Y-79684950D01*
X127684230Y-79857011D01*
X127605042Y-80048187D01*
X127605040Y-80048195D01*
X127564672Y-80251138D01*
X127564672Y-80458077D01*
X127603864Y-80655108D01*
X127605042Y-80661028D01*
X127684231Y-80852206D01*
X127741713Y-80938234D01*
X127799196Y-81024265D01*
X127945514Y-81170583D01*
X127945517Y-81170585D01*
X128117574Y-81285549D01*
X128308752Y-81364738D01*
X128511702Y-81405107D01*
X128511706Y-81405108D01*
X128511707Y-81405108D01*
X128718638Y-81405108D01*
X128718639Y-81405107D01*
X128921592Y-81364738D01*
X129112770Y-81285549D01*
X129284827Y-81170585D01*
X129431149Y-81024263D01*
X129546113Y-80852206D01*
X129596047Y-80731654D01*
X129639888Y-80677252D01*
X129706182Y-80655187D01*
X129710608Y-80655108D01*
X134894046Y-80655108D01*
X134961085Y-80674793D01*
X135006840Y-80727597D01*
X135008607Y-80731655D01*
X135069057Y-80877596D01*
X135184024Y-81049657D01*
X135330342Y-81195975D01*
X135330345Y-81195977D01*
X135502402Y-81310941D01*
X135693580Y-81390130D01*
X135896530Y-81430499D01*
X135896534Y-81430500D01*
X135896535Y-81430500D01*
X136103466Y-81430500D01*
X136103467Y-81430499D01*
X136306420Y-81390130D01*
X136497598Y-81310941D01*
X136669655Y-81195977D01*
X136815977Y-81049655D01*
X136930941Y-80877598D01*
X137010130Y-80686420D01*
X137050500Y-80483465D01*
X137050500Y-80276535D01*
X137010130Y-80073580D01*
X136930941Y-79882402D01*
X136815977Y-79710345D01*
X136815975Y-79710342D01*
X136669657Y-79564024D01*
X136583626Y-79506541D01*
X136497598Y-79449059D01*
X136497593Y-79449057D01*
X136386810Y-79403169D01*
X136332890Y-79380834D01*
X136278488Y-79336994D01*
X136256423Y-79270700D01*
X136273702Y-79203001D01*
X136324839Y-79155390D01*
X136342026Y-79148343D01*
X136518217Y-79091095D01*
X136707557Y-78994620D01*
X136879459Y-78869727D01*
X136879464Y-78869723D01*
X137029723Y-78719464D01*
X137029727Y-78719459D01*
X137154620Y-78547557D01*
X137251095Y-78358217D01*
X137316757Y-78156129D01*
X137316757Y-78156126D01*
X137327231Y-78090000D01*
X136433012Y-78090000D01*
X136465925Y-78032993D01*
X136500000Y-77905826D01*
X136500000Y-77774174D01*
X136465925Y-77647007D01*
X136433012Y-77590000D01*
X137327231Y-77590000D01*
X137316757Y-77523873D01*
X137316757Y-77523870D01*
X137251095Y-77321782D01*
X137154620Y-77132442D01*
X137029727Y-76960540D01*
X137029723Y-76960535D01*
X136879464Y-76810276D01*
X136879459Y-76810272D01*
X136707557Y-76685379D01*
X136518215Y-76588903D01*
X136316124Y-76523241D01*
X136250000Y-76512768D01*
X136250000Y-77406988D01*
X136192993Y-77374075D01*
X136065826Y-77340000D01*
X135934174Y-77340000D01*
X135807007Y-77374075D01*
X135750000Y-77406988D01*
X135750000Y-76512768D01*
X135749999Y-76512768D01*
X135683875Y-76523241D01*
X135481784Y-76588903D01*
X135292442Y-76685379D01*
X135120540Y-76810272D01*
X135120535Y-76810276D01*
X134970276Y-76960535D01*
X134970272Y-76960540D01*
X134845379Y-77132442D01*
X134748904Y-77321782D01*
X134683242Y-77523870D01*
X134683242Y-77523873D01*
X134672769Y-77590000D01*
X135566988Y-77590000D01*
X135534075Y-77647007D01*
X135500000Y-77774174D01*
X135500000Y-77905826D01*
X135534075Y-78032993D01*
X135566988Y-78090000D01*
X134672769Y-78090000D01*
X134683242Y-78156126D01*
X134683242Y-78156129D01*
X134748904Y-78358217D01*
X134845379Y-78547557D01*
X134970272Y-78719459D01*
X134970276Y-78719464D01*
X135120535Y-78869723D01*
X135120540Y-78869727D01*
X135292442Y-78994620D01*
X135481782Y-79091095D01*
X135657973Y-79148343D01*
X135715648Y-79187780D01*
X135742847Y-79252139D01*
X135730932Y-79320985D01*
X135683688Y-79372461D01*
X135667108Y-79380835D01*
X135502403Y-79449057D01*
X135330342Y-79564024D01*
X135184024Y-79710342D01*
X135069056Y-79882405D01*
X135029643Y-79977560D01*
X134985802Y-80031964D01*
X134919508Y-80054029D01*
X134915082Y-80054108D01*
X129710608Y-80054108D01*
X129643569Y-80034423D01*
X129597814Y-79981619D01*
X129596047Y-79977561D01*
X129556631Y-79882403D01*
X129546113Y-79857010D01*
X129431149Y-79684953D01*
X129431147Y-79684950D01*
X129284829Y-79538632D01*
X129150772Y-79449059D01*
X129112770Y-79423667D01*
X129063284Y-79403169D01*
X129008881Y-79359328D01*
X128986816Y-79293034D01*
X129004095Y-79225334D01*
X129055233Y-79177724D01*
X129110737Y-79164608D01*
X129513000Y-79164608D01*
X129513016Y-79164607D01*
X129572544Y-79158206D01*
X129572551Y-79158204D01*
X129707258Y-79107962D01*
X129707265Y-79107958D01*
X129822359Y-79021798D01*
X129822362Y-79021795D01*
X129908522Y-78906701D01*
X129908526Y-78906694D01*
X129958768Y-78771987D01*
X129958770Y-78771980D01*
X129965171Y-78712452D01*
X129965172Y-78712435D01*
X129965172Y-78064608D01*
X129048184Y-78064608D01*
X129081097Y-78007601D01*
X129115172Y-77880434D01*
X129115172Y-77748782D01*
X129081097Y-77621615D01*
X129048184Y-77564608D01*
X129965172Y-77564608D01*
X129965172Y-76916780D01*
X129965171Y-76916763D01*
X129958770Y-76857235D01*
X129958768Y-76857228D01*
X129908526Y-76722521D01*
X129908522Y-76722514D01*
X129822362Y-76607420D01*
X129822359Y-76607417D01*
X129707265Y-76521257D01*
X129707258Y-76521253D01*
X129572551Y-76471011D01*
X129572544Y-76471009D01*
X129513016Y-76464608D01*
X128865172Y-76464608D01*
X128865172Y-77381596D01*
X128808165Y-77348683D01*
X128680998Y-77314608D01*
X128549346Y-77314608D01*
X128422179Y-77348683D01*
X128365172Y-77381596D01*
X128365172Y-76464608D01*
X127717327Y-76464608D01*
X127657799Y-76471009D01*
X127657792Y-76471011D01*
X127523085Y-76521253D01*
X127523078Y-76521257D01*
X127407984Y-76607417D01*
X127407981Y-76607420D01*
X127321821Y-76722514D01*
X127321817Y-76722521D01*
X127271575Y-76857228D01*
X127271573Y-76857235D01*
X127265172Y-76916763D01*
X126500500Y-76916763D01*
X126500500Y-76124500D01*
X126520185Y-76057461D01*
X126572989Y-76011706D01*
X126624500Y-76000500D01*
X137875500Y-76000500D01*
X137942539Y-76020185D01*
G37*
%TD.AperFunction*%
%TD*%
M02*
