%TF.GenerationSoftware,KiCad,Pcbnew,9.0.4-9.0.4-0~ubuntu22.04.1*%
%TF.CreationDate,2025-11-13T00:38:44+01:00*%
%TF.ProjectId,AutomatedBlinds,4175746f-6d61-4746-9564-426c696e6473,rev?*%
%TF.SameCoordinates,Original*%
%TF.FileFunction,Legend,Top*%
%TF.FilePolarity,Positive*%
%FSLAX46Y46*%
G04 Gerber Fmt 4.6, Leading zero omitted, Abs format (unit mm)*
G04 Created by KiCad (PCBNEW 9.0.4-9.0.4-0~ubuntu22.04.1) date 2025-11-13 00:38:44*
%MOMM*%
%LPD*%
G01*
G04 APERTURE LIST*
%ADD10C,0.150000*%
%ADD11C,0.120000*%
G04 APERTURE END LIST*
D10*
X137282200Y-105710839D02*
X137329819Y-105567982D01*
X137329819Y-105567982D02*
X137329819Y-105329887D01*
X137329819Y-105329887D02*
X137282200Y-105234649D01*
X137282200Y-105234649D02*
X137234580Y-105187030D01*
X137234580Y-105187030D02*
X137139342Y-105139411D01*
X137139342Y-105139411D02*
X137044104Y-105139411D01*
X137044104Y-105139411D02*
X136948866Y-105187030D01*
X136948866Y-105187030D02*
X136901247Y-105234649D01*
X136901247Y-105234649D02*
X136853628Y-105329887D01*
X136853628Y-105329887D02*
X136806009Y-105520363D01*
X136806009Y-105520363D02*
X136758390Y-105615601D01*
X136758390Y-105615601D02*
X136710771Y-105663220D01*
X136710771Y-105663220D02*
X136615533Y-105710839D01*
X136615533Y-105710839D02*
X136520295Y-105710839D01*
X136520295Y-105710839D02*
X136425057Y-105663220D01*
X136425057Y-105663220D02*
X136377438Y-105615601D01*
X136377438Y-105615601D02*
X136329819Y-105520363D01*
X136329819Y-105520363D02*
X136329819Y-105282268D01*
X136329819Y-105282268D02*
X136377438Y-105139411D01*
X137329819Y-104710839D02*
X136329819Y-104710839D01*
X136329819Y-104710839D02*
X136329819Y-104472744D01*
X136329819Y-104472744D02*
X136377438Y-104329887D01*
X136377438Y-104329887D02*
X136472676Y-104234649D01*
X136472676Y-104234649D02*
X136567914Y-104187030D01*
X136567914Y-104187030D02*
X136758390Y-104139411D01*
X136758390Y-104139411D02*
X136901247Y-104139411D01*
X136901247Y-104139411D02*
X137091723Y-104187030D01*
X137091723Y-104187030D02*
X137186961Y-104234649D01*
X137186961Y-104234649D02*
X137282200Y-104329887D01*
X137282200Y-104329887D02*
X137329819Y-104472744D01*
X137329819Y-104472744D02*
X137329819Y-104710839D01*
X137044104Y-103758458D02*
X137044104Y-103282268D01*
X137329819Y-103853696D02*
X136329819Y-103520363D01*
X136329819Y-103520363D02*
X137329819Y-103187030D01*
X128829819Y-105187030D02*
X128829819Y-105663220D01*
X128829819Y-105663220D02*
X129306009Y-105710839D01*
X129306009Y-105710839D02*
X129258390Y-105663220D01*
X129258390Y-105663220D02*
X129210771Y-105567982D01*
X129210771Y-105567982D02*
X129210771Y-105329887D01*
X129210771Y-105329887D02*
X129258390Y-105234649D01*
X129258390Y-105234649D02*
X129306009Y-105187030D01*
X129306009Y-105187030D02*
X129401247Y-105139411D01*
X129401247Y-105139411D02*
X129639342Y-105139411D01*
X129639342Y-105139411D02*
X129734580Y-105187030D01*
X129734580Y-105187030D02*
X129782200Y-105234649D01*
X129782200Y-105234649D02*
X129829819Y-105329887D01*
X129829819Y-105329887D02*
X129829819Y-105567982D01*
X129829819Y-105567982D02*
X129782200Y-105663220D01*
X129782200Y-105663220D02*
X129734580Y-105710839D01*
X128829819Y-104853696D02*
X129829819Y-104520363D01*
X129829819Y-104520363D02*
X128829819Y-104187030D01*
X131377438Y-105139411D02*
X131329819Y-105234649D01*
X131329819Y-105234649D02*
X131329819Y-105377506D01*
X131329819Y-105377506D02*
X131377438Y-105520363D01*
X131377438Y-105520363D02*
X131472676Y-105615601D01*
X131472676Y-105615601D02*
X131567914Y-105663220D01*
X131567914Y-105663220D02*
X131758390Y-105710839D01*
X131758390Y-105710839D02*
X131901247Y-105710839D01*
X131901247Y-105710839D02*
X132091723Y-105663220D01*
X132091723Y-105663220D02*
X132186961Y-105615601D01*
X132186961Y-105615601D02*
X132282200Y-105520363D01*
X132282200Y-105520363D02*
X132329819Y-105377506D01*
X132329819Y-105377506D02*
X132329819Y-105282268D01*
X132329819Y-105282268D02*
X132282200Y-105139411D01*
X132282200Y-105139411D02*
X132234580Y-105091792D01*
X132234580Y-105091792D02*
X131901247Y-105091792D01*
X131901247Y-105091792D02*
X131901247Y-105282268D01*
X132329819Y-104663220D02*
X131329819Y-104663220D01*
X131329819Y-104663220D02*
X132329819Y-104091792D01*
X132329819Y-104091792D02*
X131329819Y-104091792D01*
X132329819Y-103615601D02*
X131329819Y-103615601D01*
X131329819Y-103615601D02*
X131329819Y-103377506D01*
X131329819Y-103377506D02*
X131377438Y-103234649D01*
X131377438Y-103234649D02*
X131472676Y-103139411D01*
X131472676Y-103139411D02*
X131567914Y-103091792D01*
X131567914Y-103091792D02*
X131758390Y-103044173D01*
X131758390Y-103044173D02*
X131901247Y-103044173D01*
X131901247Y-103044173D02*
X132091723Y-103091792D01*
X132091723Y-103091792D02*
X132186961Y-103139411D01*
X132186961Y-103139411D02*
X132282200Y-103234649D01*
X132282200Y-103234649D02*
X132329819Y-103377506D01*
X132329819Y-103377506D02*
X132329819Y-103615601D01*
X134782200Y-105710839D02*
X134829819Y-105567982D01*
X134829819Y-105567982D02*
X134829819Y-105329887D01*
X134829819Y-105329887D02*
X134782200Y-105234649D01*
X134782200Y-105234649D02*
X134734580Y-105187030D01*
X134734580Y-105187030D02*
X134639342Y-105139411D01*
X134639342Y-105139411D02*
X134544104Y-105139411D01*
X134544104Y-105139411D02*
X134448866Y-105187030D01*
X134448866Y-105187030D02*
X134401247Y-105234649D01*
X134401247Y-105234649D02*
X134353628Y-105329887D01*
X134353628Y-105329887D02*
X134306009Y-105520363D01*
X134306009Y-105520363D02*
X134258390Y-105615601D01*
X134258390Y-105615601D02*
X134210771Y-105663220D01*
X134210771Y-105663220D02*
X134115533Y-105710839D01*
X134115533Y-105710839D02*
X134020295Y-105710839D01*
X134020295Y-105710839D02*
X133925057Y-105663220D01*
X133925057Y-105663220D02*
X133877438Y-105615601D01*
X133877438Y-105615601D02*
X133829819Y-105520363D01*
X133829819Y-105520363D02*
X133829819Y-105282268D01*
X133829819Y-105282268D02*
X133877438Y-105139411D01*
X134734580Y-104139411D02*
X134782200Y-104187030D01*
X134782200Y-104187030D02*
X134829819Y-104329887D01*
X134829819Y-104329887D02*
X134829819Y-104425125D01*
X134829819Y-104425125D02*
X134782200Y-104567982D01*
X134782200Y-104567982D02*
X134686961Y-104663220D01*
X134686961Y-104663220D02*
X134591723Y-104710839D01*
X134591723Y-104710839D02*
X134401247Y-104758458D01*
X134401247Y-104758458D02*
X134258390Y-104758458D01*
X134258390Y-104758458D02*
X134067914Y-104710839D01*
X134067914Y-104710839D02*
X133972676Y-104663220D01*
X133972676Y-104663220D02*
X133877438Y-104567982D01*
X133877438Y-104567982D02*
X133829819Y-104425125D01*
X133829819Y-104425125D02*
X133829819Y-104329887D01*
X133829819Y-104329887D02*
X133877438Y-104187030D01*
X133877438Y-104187030D02*
X133925057Y-104139411D01*
X134829819Y-103234649D02*
X134829819Y-103710839D01*
X134829819Y-103710839D02*
X133829819Y-103710839D01*
X126377438Y-105139411D02*
X126329819Y-105234649D01*
X126329819Y-105234649D02*
X126329819Y-105377506D01*
X126329819Y-105377506D02*
X126377438Y-105520363D01*
X126377438Y-105520363D02*
X126472676Y-105615601D01*
X126472676Y-105615601D02*
X126567914Y-105663220D01*
X126567914Y-105663220D02*
X126758390Y-105710839D01*
X126758390Y-105710839D02*
X126901247Y-105710839D01*
X126901247Y-105710839D02*
X127091723Y-105663220D01*
X127091723Y-105663220D02*
X127186961Y-105615601D01*
X127186961Y-105615601D02*
X127282200Y-105520363D01*
X127282200Y-105520363D02*
X127329819Y-105377506D01*
X127329819Y-105377506D02*
X127329819Y-105282268D01*
X127329819Y-105282268D02*
X127282200Y-105139411D01*
X127282200Y-105139411D02*
X127234580Y-105091792D01*
X127234580Y-105091792D02*
X126901247Y-105091792D01*
X126901247Y-105091792D02*
X126901247Y-105282268D01*
X127329819Y-104663220D02*
X126329819Y-104663220D01*
X126329819Y-104663220D02*
X127329819Y-104091792D01*
X127329819Y-104091792D02*
X126329819Y-104091792D01*
X127329819Y-103615601D02*
X126329819Y-103615601D01*
X126329819Y-103615601D02*
X126329819Y-103377506D01*
X126329819Y-103377506D02*
X126377438Y-103234649D01*
X126377438Y-103234649D02*
X126472676Y-103139411D01*
X126472676Y-103139411D02*
X126567914Y-103091792D01*
X126567914Y-103091792D02*
X126758390Y-103044173D01*
X126758390Y-103044173D02*
X126901247Y-103044173D01*
X126901247Y-103044173D02*
X127091723Y-103091792D01*
X127091723Y-103091792D02*
X127186961Y-103139411D01*
X127186961Y-103139411D02*
X127282200Y-103234649D01*
X127282200Y-103234649D02*
X127329819Y-103377506D01*
X127329819Y-103377506D02*
X127329819Y-103615601D01*
X138829819Y-105758458D02*
X139829819Y-105091792D01*
X138829819Y-105091792D02*
X139829819Y-105758458D01*
X139782200Y-104758458D02*
X139829819Y-104615601D01*
X139829819Y-104615601D02*
X139829819Y-104377506D01*
X139829819Y-104377506D02*
X139782200Y-104282268D01*
X139782200Y-104282268D02*
X139734580Y-104234649D01*
X139734580Y-104234649D02*
X139639342Y-104187030D01*
X139639342Y-104187030D02*
X139544104Y-104187030D01*
X139544104Y-104187030D02*
X139448866Y-104234649D01*
X139448866Y-104234649D02*
X139401247Y-104282268D01*
X139401247Y-104282268D02*
X139353628Y-104377506D01*
X139353628Y-104377506D02*
X139306009Y-104567982D01*
X139306009Y-104567982D02*
X139258390Y-104663220D01*
X139258390Y-104663220D02*
X139210771Y-104710839D01*
X139210771Y-104710839D02*
X139115533Y-104758458D01*
X139115533Y-104758458D02*
X139020295Y-104758458D01*
X139020295Y-104758458D02*
X138925057Y-104710839D01*
X138925057Y-104710839D02*
X138877438Y-104663220D01*
X138877438Y-104663220D02*
X138829819Y-104567982D01*
X138829819Y-104567982D02*
X138829819Y-104329887D01*
X138829819Y-104329887D02*
X138877438Y-104187030D01*
X139829819Y-103758458D02*
X138829819Y-103758458D01*
X139306009Y-103758458D02*
X139306009Y-103187030D01*
X139829819Y-103187030D02*
X138829819Y-103187030D01*
X125350378Y-92373444D02*
X125302759Y-92421064D01*
X125302759Y-92421064D02*
X125159902Y-92468683D01*
X125159902Y-92468683D02*
X125064664Y-92468683D01*
X125064664Y-92468683D02*
X124921807Y-92421064D01*
X124921807Y-92421064D02*
X124826569Y-92325825D01*
X124826569Y-92325825D02*
X124778950Y-92230587D01*
X124778950Y-92230587D02*
X124731331Y-92040111D01*
X124731331Y-92040111D02*
X124731331Y-91897254D01*
X124731331Y-91897254D02*
X124778950Y-91706778D01*
X124778950Y-91706778D02*
X124826569Y-91611540D01*
X124826569Y-91611540D02*
X124921807Y-91516302D01*
X124921807Y-91516302D02*
X125064664Y-91468683D01*
X125064664Y-91468683D02*
X125159902Y-91468683D01*
X125159902Y-91468683D02*
X125302759Y-91516302D01*
X125302759Y-91516302D02*
X125350378Y-91563921D01*
X125731331Y-91563921D02*
X125778950Y-91516302D01*
X125778950Y-91516302D02*
X125874188Y-91468683D01*
X125874188Y-91468683D02*
X126112283Y-91468683D01*
X126112283Y-91468683D02*
X126207521Y-91516302D01*
X126207521Y-91516302D02*
X126255140Y-91563921D01*
X126255140Y-91563921D02*
X126302759Y-91659159D01*
X126302759Y-91659159D02*
X126302759Y-91754397D01*
X126302759Y-91754397D02*
X126255140Y-91897254D01*
X126255140Y-91897254D02*
X125683712Y-92468683D01*
X125683712Y-92468683D02*
X126302759Y-92468683D01*
X163666667Y-112907200D02*
X163809524Y-112954819D01*
X163809524Y-112954819D02*
X164047619Y-112954819D01*
X164047619Y-112954819D02*
X164142857Y-112907200D01*
X164142857Y-112907200D02*
X164190476Y-112859580D01*
X164190476Y-112859580D02*
X164238095Y-112764342D01*
X164238095Y-112764342D02*
X164238095Y-112669104D01*
X164238095Y-112669104D02*
X164190476Y-112573866D01*
X164190476Y-112573866D02*
X164142857Y-112526247D01*
X164142857Y-112526247D02*
X164047619Y-112478628D01*
X164047619Y-112478628D02*
X163857143Y-112431009D01*
X163857143Y-112431009D02*
X163761905Y-112383390D01*
X163761905Y-112383390D02*
X163714286Y-112335771D01*
X163714286Y-112335771D02*
X163666667Y-112240533D01*
X163666667Y-112240533D02*
X163666667Y-112145295D01*
X163666667Y-112145295D02*
X163714286Y-112050057D01*
X163714286Y-112050057D02*
X163761905Y-112002438D01*
X163761905Y-112002438D02*
X163857143Y-111954819D01*
X163857143Y-111954819D02*
X164095238Y-111954819D01*
X164095238Y-111954819D02*
X164238095Y-112002438D01*
X164571429Y-111954819D02*
X164809524Y-112954819D01*
X164809524Y-112954819D02*
X165000000Y-112240533D01*
X165000000Y-112240533D02*
X165190476Y-112954819D01*
X165190476Y-112954819D02*
X165428572Y-111954819D01*
X165761905Y-112050057D02*
X165809524Y-112002438D01*
X165809524Y-112002438D02*
X165904762Y-111954819D01*
X165904762Y-111954819D02*
X166142857Y-111954819D01*
X166142857Y-111954819D02*
X166238095Y-112002438D01*
X166238095Y-112002438D02*
X166285714Y-112050057D01*
X166285714Y-112050057D02*
X166333333Y-112145295D01*
X166333333Y-112145295D02*
X166333333Y-112240533D01*
X166333333Y-112240533D02*
X166285714Y-112383390D01*
X166285714Y-112383390D02*
X165714286Y-112954819D01*
X165714286Y-112954819D02*
X166333333Y-112954819D01*
X174916667Y-112907200D02*
X175059524Y-112954819D01*
X175059524Y-112954819D02*
X175297619Y-112954819D01*
X175297619Y-112954819D02*
X175392857Y-112907200D01*
X175392857Y-112907200D02*
X175440476Y-112859580D01*
X175440476Y-112859580D02*
X175488095Y-112764342D01*
X175488095Y-112764342D02*
X175488095Y-112669104D01*
X175488095Y-112669104D02*
X175440476Y-112573866D01*
X175440476Y-112573866D02*
X175392857Y-112526247D01*
X175392857Y-112526247D02*
X175297619Y-112478628D01*
X175297619Y-112478628D02*
X175107143Y-112431009D01*
X175107143Y-112431009D02*
X175011905Y-112383390D01*
X175011905Y-112383390D02*
X174964286Y-112335771D01*
X174964286Y-112335771D02*
X174916667Y-112240533D01*
X174916667Y-112240533D02*
X174916667Y-112145295D01*
X174916667Y-112145295D02*
X174964286Y-112050057D01*
X174964286Y-112050057D02*
X175011905Y-112002438D01*
X175011905Y-112002438D02*
X175107143Y-111954819D01*
X175107143Y-111954819D02*
X175345238Y-111954819D01*
X175345238Y-111954819D02*
X175488095Y-112002438D01*
X175821429Y-111954819D02*
X176059524Y-112954819D01*
X176059524Y-112954819D02*
X176250000Y-112240533D01*
X176250000Y-112240533D02*
X176440476Y-112954819D01*
X176440476Y-112954819D02*
X176678572Y-111954819D01*
X177583333Y-112954819D02*
X177011905Y-112954819D01*
X177297619Y-112954819D02*
X177297619Y-111954819D01*
X177297619Y-111954819D02*
X177202381Y-112097676D01*
X177202381Y-112097676D02*
X177107143Y-112192914D01*
X177107143Y-112192914D02*
X177011905Y-112240533D01*
D11*
%TO.C,J4*%
X122930000Y-106670000D02*
X122930000Y-109330000D01*
X138230000Y-106670000D02*
X122930000Y-106670000D01*
X138230000Y-106670000D02*
X138230000Y-109330000D01*
X138230000Y-109330000D02*
X122930000Y-109330000D01*
X139500000Y-106670000D02*
X140830000Y-106670000D01*
X140830000Y-106670000D02*
X140830000Y-108000000D01*
%TO.C,C1*%
X128920000Y-81170000D02*
X139080000Y-81170000D01*
X128920000Y-81210000D02*
X139080000Y-81210000D01*
X128920000Y-81250000D02*
X139080000Y-81250000D01*
X128921000Y-81130000D02*
X139079000Y-81130000D01*
X128922000Y-81090000D02*
X139078000Y-81090000D01*
X128923000Y-81050000D02*
X139077000Y-81050000D01*
X128925000Y-81010000D02*
X132960000Y-81010000D01*
X128927000Y-80970000D02*
X132960000Y-80970000D01*
X128930000Y-80930000D02*
X132960000Y-80930000D01*
X128932000Y-80890000D02*
X132960000Y-80890000D01*
X128935000Y-80850000D02*
X132960000Y-80850000D01*
X128938000Y-80810000D02*
X132960000Y-80810000D01*
X128942000Y-80770000D02*
X132960000Y-80770000D01*
X128946000Y-80730000D02*
X132960000Y-80730000D01*
X128950000Y-80690000D02*
X132960000Y-80690000D01*
X128955000Y-80650000D02*
X132960000Y-80650000D01*
X128960000Y-80610000D02*
X132960000Y-80610000D01*
X128965000Y-80570000D02*
X132960000Y-80570000D01*
X128970000Y-80529000D02*
X132960000Y-80529000D01*
X128976000Y-80489000D02*
X132960000Y-80489000D01*
X128982000Y-80449000D02*
X132960000Y-80449000D01*
X128989000Y-80409000D02*
X132960000Y-80409000D01*
X128996000Y-80369000D02*
X132960000Y-80369000D01*
X129003000Y-80329000D02*
X132960000Y-80329000D01*
X129010000Y-80289000D02*
X132960000Y-80289000D01*
X129018000Y-80249000D02*
X132960000Y-80249000D01*
X129026000Y-80209000D02*
X132960000Y-80209000D01*
X129035000Y-80169000D02*
X132960000Y-80169000D01*
X129044000Y-80129000D02*
X132960000Y-80129000D01*
X129053000Y-80089000D02*
X132960000Y-80089000D01*
X129062000Y-80049000D02*
X132960000Y-80049000D01*
X129072000Y-80009000D02*
X132960000Y-80009000D01*
X129082000Y-79969000D02*
X132960000Y-79969000D01*
X129093000Y-79929000D02*
X132960000Y-79929000D01*
X129103000Y-79889000D02*
X132960000Y-79889000D01*
X129115000Y-79849000D02*
X132960000Y-79849000D01*
X129126000Y-79809000D02*
X132960000Y-79809000D01*
X129138000Y-79769000D02*
X132960000Y-79769000D01*
X129150000Y-79729000D02*
X132960000Y-79729000D01*
X129163000Y-79689000D02*
X132960000Y-79689000D01*
X129176000Y-79649000D02*
X132960000Y-79649000D01*
X129189000Y-79609000D02*
X132960000Y-79609000D01*
X129203000Y-79569000D02*
X132960000Y-79569000D01*
X129217000Y-79529000D02*
X132960000Y-79529000D01*
X129232000Y-79489000D02*
X132960000Y-79489000D01*
X129246000Y-79449000D02*
X132960000Y-79449000D01*
X129262000Y-79409000D02*
X132960000Y-79409000D01*
X129277000Y-79369000D02*
X132960000Y-79369000D01*
X129293000Y-79329000D02*
X132960000Y-79329000D01*
X129310000Y-79289000D02*
X132960000Y-79289000D01*
X129326000Y-79249000D02*
X132960000Y-79249000D01*
X129343000Y-79209000D02*
X132960000Y-79209000D01*
X129361000Y-79169000D02*
X132960000Y-79169000D01*
X129379000Y-79129000D02*
X132960000Y-79129000D01*
X129397000Y-79089000D02*
X132960000Y-79089000D01*
X129416000Y-79049000D02*
X132960000Y-79049000D01*
X129436000Y-79009000D02*
X132960000Y-79009000D01*
X129455000Y-78969000D02*
X132960000Y-78969000D01*
X129475000Y-78929000D02*
X138525000Y-78929000D01*
X129496000Y-78889000D02*
X138504000Y-78889000D01*
X129517000Y-78849000D02*
X138483000Y-78849000D01*
X129538000Y-78809000D02*
X138462000Y-78809000D01*
X129560000Y-78769000D02*
X138440000Y-78769000D01*
X129583000Y-78729000D02*
X138417000Y-78729000D01*
X129605000Y-78689000D02*
X138395000Y-78689000D01*
X129629000Y-78649000D02*
X138371000Y-78649000D01*
X129653000Y-78609000D02*
X138347000Y-78609000D01*
X129677000Y-78569000D02*
X138323000Y-78569000D01*
X129702000Y-78529000D02*
X138298000Y-78529000D01*
X129727000Y-78489000D02*
X138273000Y-78489000D01*
X129753000Y-78449000D02*
X138247000Y-78449000D01*
X129779000Y-78409000D02*
X138221000Y-78409000D01*
X129806000Y-78369000D02*
X138194000Y-78369000D01*
X129834000Y-78329000D02*
X138166000Y-78329000D01*
X129862000Y-78289000D02*
X138138000Y-78289000D01*
X129890000Y-78249000D02*
X138110000Y-78249000D01*
X129920000Y-78209000D02*
X138080000Y-78209000D01*
X129950000Y-78169000D02*
X138050000Y-78169000D01*
X129980000Y-78129000D02*
X138020000Y-78129000D01*
X130011000Y-78089000D02*
X137989000Y-78089000D01*
X130043000Y-78049000D02*
X137957000Y-78049000D01*
X130075000Y-78009000D02*
X137925000Y-78009000D01*
X130108000Y-77969000D02*
X137892000Y-77969000D01*
X130142000Y-77929000D02*
X137858000Y-77929000D01*
X130176000Y-77889000D02*
X137824000Y-77889000D01*
X130211000Y-77849000D02*
X137789000Y-77849000D01*
X130247000Y-77809000D02*
X137753000Y-77809000D01*
X130284000Y-77769000D02*
X137716000Y-77769000D01*
X130321000Y-77729000D02*
X137679000Y-77729000D01*
X130360000Y-77689000D02*
X137640000Y-77689000D01*
X130399000Y-77649000D02*
X137601000Y-77649000D01*
X130439000Y-77609000D02*
X137561000Y-77609000D01*
X130480000Y-77569000D02*
X137520000Y-77569000D01*
X130522000Y-77529000D02*
X137478000Y-77529000D01*
X130564000Y-77489000D02*
X137436000Y-77489000D01*
X130608000Y-77449000D02*
X137392000Y-77449000D01*
X130625000Y-86229646D02*
X131625000Y-86229646D01*
X130653000Y-77409000D02*
X137347000Y-77409000D01*
X130699000Y-77369000D02*
X137301000Y-77369000D01*
X130746000Y-77329000D02*
X137254000Y-77329000D01*
X130794000Y-77289000D02*
X137206000Y-77289000D01*
X130844000Y-77249000D02*
X137156000Y-77249000D01*
X130894000Y-77209000D02*
X137106000Y-77209000D01*
X130946000Y-77169000D02*
X137054000Y-77169000D01*
X131000000Y-77129000D02*
X137000000Y-77129000D01*
X131055000Y-77089000D02*
X136945000Y-77089000D01*
X131111000Y-77049000D02*
X136889000Y-77049000D01*
X131125000Y-86729646D02*
X131125000Y-85729646D01*
X131170000Y-77009000D02*
X136830000Y-77009000D01*
X131230000Y-76969000D02*
X136770000Y-76969000D01*
X131291000Y-76929000D02*
X136709000Y-76929000D01*
X131355000Y-76889000D02*
X136645000Y-76889000D01*
X131421000Y-76849000D02*
X136579000Y-76849000D01*
X131490000Y-76809000D02*
X136510000Y-76809000D01*
X131561000Y-76769000D02*
X136439000Y-76769000D01*
X131635000Y-76729000D02*
X136365000Y-76729000D01*
X131711000Y-76689000D02*
X136289000Y-76689000D01*
X131791000Y-76649000D02*
X136209000Y-76649000D01*
X131875000Y-76609000D02*
X136125000Y-76609000D01*
X131963000Y-76569000D02*
X136037000Y-76569000D01*
X132056000Y-76529000D02*
X135944000Y-76529000D01*
X132154000Y-76489000D02*
X135846000Y-76489000D01*
X132258000Y-76449000D02*
X135742000Y-76449000D01*
X132370000Y-76409000D02*
X135630000Y-76409000D01*
X132490000Y-76369000D02*
X135510000Y-76369000D01*
X132622000Y-76329000D02*
X135378000Y-76329000D01*
X132770000Y-76289000D02*
X135230000Y-76289000D01*
X132938000Y-76249000D02*
X135062000Y-76249000D01*
X133138000Y-76209000D02*
X134862000Y-76209000D01*
X133401000Y-76169000D02*
X134599000Y-76169000D01*
X135040000Y-78969000D02*
X138545000Y-78969000D01*
X135040000Y-79009000D02*
X138564000Y-79009000D01*
X135040000Y-79049000D02*
X138584000Y-79049000D01*
X135040000Y-79089000D02*
X138603000Y-79089000D01*
X135040000Y-79129000D02*
X138621000Y-79129000D01*
X135040000Y-79169000D02*
X138639000Y-79169000D01*
X135040000Y-79209000D02*
X138657000Y-79209000D01*
X135040000Y-79249000D02*
X138674000Y-79249000D01*
X135040000Y-79289000D02*
X138690000Y-79289000D01*
X135040000Y-79329000D02*
X138707000Y-79329000D01*
X135040000Y-79369000D02*
X138723000Y-79369000D01*
X135040000Y-79409000D02*
X138738000Y-79409000D01*
X135040000Y-79449000D02*
X138754000Y-79449000D01*
X135040000Y-79489000D02*
X138768000Y-79489000D01*
X135040000Y-79529000D02*
X138783000Y-79529000D01*
X135040000Y-79569000D02*
X138797000Y-79569000D01*
X135040000Y-79609000D02*
X138811000Y-79609000D01*
X135040000Y-79649000D02*
X138824000Y-79649000D01*
X135040000Y-79689000D02*
X138837000Y-79689000D01*
X135040000Y-79729000D02*
X138850000Y-79729000D01*
X135040000Y-79769000D02*
X138862000Y-79769000D01*
X135040000Y-79809000D02*
X138874000Y-79809000D01*
X135040000Y-79849000D02*
X138885000Y-79849000D01*
X135040000Y-79889000D02*
X138897000Y-79889000D01*
X135040000Y-79929000D02*
X138907000Y-79929000D01*
X135040000Y-79969000D02*
X138918000Y-79969000D01*
X135040000Y-80009000D02*
X138928000Y-80009000D01*
X135040000Y-80049000D02*
X138938000Y-80049000D01*
X135040000Y-80089000D02*
X138947000Y-80089000D01*
X135040000Y-80129000D02*
X138956000Y-80129000D01*
X135040000Y-80169000D02*
X138965000Y-80169000D01*
X135040000Y-80209000D02*
X138974000Y-80209000D01*
X135040000Y-80249000D02*
X138982000Y-80249000D01*
X135040000Y-80289000D02*
X138990000Y-80289000D01*
X135040000Y-80329000D02*
X138997000Y-80329000D01*
X135040000Y-80369000D02*
X139004000Y-80369000D01*
X135040000Y-80409000D02*
X139011000Y-80409000D01*
X135040000Y-80449000D02*
X139018000Y-80449000D01*
X135040000Y-80489000D02*
X139024000Y-80489000D01*
X135040000Y-80529000D02*
X139030000Y-80529000D01*
X135040000Y-80570000D02*
X139035000Y-80570000D01*
X135040000Y-80610000D02*
X139040000Y-80610000D01*
X135040000Y-80650000D02*
X139045000Y-80650000D01*
X135040000Y-80690000D02*
X139050000Y-80690000D01*
X135040000Y-80730000D02*
X139054000Y-80730000D01*
X135040000Y-80770000D02*
X139058000Y-80770000D01*
X135040000Y-80810000D02*
X139062000Y-80810000D01*
X135040000Y-80850000D02*
X139065000Y-80850000D01*
X135040000Y-80890000D02*
X139068000Y-80890000D01*
X135040000Y-80930000D02*
X139070000Y-80930000D01*
X135040000Y-80970000D02*
X139073000Y-80970000D01*
X135040000Y-81010000D02*
X139075000Y-81010000D01*
X139120000Y-81250000D02*
G75*
G02*
X128880000Y-81250000I-5120000J0D01*
G01*
X128880000Y-81250000D02*
G75*
G02*
X139120000Y-81250000I5120000J0D01*
G01*
%TO.C,Brd1*%
X160600000Y-75800000D02*
X188000000Y-75800000D01*
X160600000Y-103100000D02*
X160600000Y-75800000D01*
X161022000Y-79095000D02*
X184122000Y-79095000D01*
X161022000Y-95695000D02*
X161022000Y-79095000D01*
X169301000Y-76289000D02*
X169301000Y-78702000D01*
X169301000Y-76289000D02*
X179080000Y-76289000D01*
X179080000Y-76289000D02*
X179080000Y-78702000D01*
X179080000Y-78702000D02*
X169301000Y-78702000D01*
X184122000Y-79095000D02*
X187208000Y-79095000D01*
X184122000Y-95695000D02*
X161022000Y-95695000D01*
X184122000Y-95695000D02*
X187462000Y-95720000D01*
X187462000Y-79083000D02*
X187208000Y-79095000D01*
X187462000Y-95720000D02*
X187462000Y-79083000D01*
X188000000Y-75800000D02*
X188000000Y-103100000D01*
X188000000Y-103100000D02*
X160600000Y-103100000D01*
%TO.C,A1*%
X141860000Y-68520000D02*
X141860000Y-71190000D01*
X141860000Y-73730000D02*
X141860000Y-111960000D01*
X141860000Y-111960000D02*
X146940000Y-111960000D01*
X144530000Y-71190000D02*
X141860000Y-71190000D01*
X144530000Y-73730000D02*
X141860000Y-73730000D01*
X144530000Y-73730000D02*
X144530000Y-71190000D01*
X144530000Y-73730000D02*
X144530000Y-109290000D01*
X144530000Y-109290000D02*
X141860000Y-109290000D01*
X146940000Y-104080000D02*
X154820000Y-104080000D01*
X146940000Y-114500000D02*
X146940000Y-104080000D01*
X154820000Y-104080000D02*
X154820000Y-114500000D01*
X154820000Y-114500000D02*
X146940000Y-114500000D01*
X157230000Y-71190000D02*
X157230000Y-109290000D01*
X157230000Y-71190000D02*
X159900000Y-71190000D01*
X157230000Y-109290000D02*
X159900000Y-109290000D01*
X159900000Y-68520000D02*
X141860000Y-68520000D01*
X159900000Y-111960000D02*
X154820000Y-111960000D01*
X159900000Y-111960000D02*
X159900000Y-68520000D01*
%TO.C,C2*%
X120037399Y-95388864D02*
X121037399Y-95388864D01*
X120537399Y-94888864D02*
X120537399Y-95888864D01*
X125517045Y-93183864D02*
X125517045Y-103343864D01*
X125557045Y-93183864D02*
X125557045Y-103343864D01*
X125597045Y-93183864D02*
X125597045Y-103343864D01*
X125637045Y-93184864D02*
X125637045Y-103342864D01*
X125677045Y-93185864D02*
X125677045Y-103341864D01*
X125717045Y-93186864D02*
X125717045Y-103340864D01*
X125757045Y-93188864D02*
X125757045Y-97223864D01*
X125757045Y-99303864D02*
X125757045Y-103338864D01*
X125797045Y-93190864D02*
X125797045Y-97223864D01*
X125797045Y-99303864D02*
X125797045Y-103336864D01*
X125837045Y-93193864D02*
X125837045Y-97223864D01*
X125837045Y-99303864D02*
X125837045Y-103333864D01*
X125877045Y-93195864D02*
X125877045Y-97223864D01*
X125877045Y-99303864D02*
X125877045Y-103331864D01*
X125917045Y-93198864D02*
X125917045Y-97223864D01*
X125917045Y-99303864D02*
X125917045Y-103328864D01*
X125957045Y-93201864D02*
X125957045Y-97223864D01*
X125957045Y-99303864D02*
X125957045Y-103325864D01*
X125997045Y-93205864D02*
X125997045Y-97223864D01*
X125997045Y-99303864D02*
X125997045Y-103321864D01*
X126037045Y-93209864D02*
X126037045Y-97223864D01*
X126037045Y-99303864D02*
X126037045Y-103317864D01*
X126077045Y-93213864D02*
X126077045Y-97223864D01*
X126077045Y-99303864D02*
X126077045Y-103313864D01*
X126117045Y-93218864D02*
X126117045Y-97223864D01*
X126117045Y-99303864D02*
X126117045Y-103308864D01*
X126157045Y-93223864D02*
X126157045Y-97223864D01*
X126157045Y-99303864D02*
X126157045Y-103303864D01*
X126197045Y-93228864D02*
X126197045Y-97223864D01*
X126197045Y-99303864D02*
X126197045Y-103298864D01*
X126238045Y-93233864D02*
X126238045Y-97223864D01*
X126238045Y-99303864D02*
X126238045Y-103293864D01*
X126278045Y-93239864D02*
X126278045Y-97223864D01*
X126278045Y-99303864D02*
X126278045Y-103287864D01*
X126318045Y-93245864D02*
X126318045Y-97223864D01*
X126318045Y-99303864D02*
X126318045Y-103281864D01*
X126358045Y-93252864D02*
X126358045Y-97223864D01*
X126358045Y-99303864D02*
X126358045Y-103274864D01*
X126398045Y-93259864D02*
X126398045Y-97223864D01*
X126398045Y-99303864D02*
X126398045Y-103267864D01*
X126438045Y-93266864D02*
X126438045Y-97223864D01*
X126438045Y-99303864D02*
X126438045Y-103260864D01*
X126478045Y-93273864D02*
X126478045Y-97223864D01*
X126478045Y-99303864D02*
X126478045Y-103253864D01*
X126518045Y-93281864D02*
X126518045Y-97223864D01*
X126518045Y-99303864D02*
X126518045Y-103245864D01*
X126558045Y-93289864D02*
X126558045Y-97223864D01*
X126558045Y-99303864D02*
X126558045Y-103237864D01*
X126598045Y-93298864D02*
X126598045Y-97223864D01*
X126598045Y-99303864D02*
X126598045Y-103228864D01*
X126638045Y-93307864D02*
X126638045Y-97223864D01*
X126638045Y-99303864D02*
X126638045Y-103219864D01*
X126678045Y-93316864D02*
X126678045Y-97223864D01*
X126678045Y-99303864D02*
X126678045Y-103210864D01*
X126718045Y-93325864D02*
X126718045Y-97223864D01*
X126718045Y-99303864D02*
X126718045Y-103201864D01*
X126758045Y-93335864D02*
X126758045Y-97223864D01*
X126758045Y-99303864D02*
X126758045Y-103191864D01*
X126798045Y-93345864D02*
X126798045Y-97223864D01*
X126798045Y-99303864D02*
X126798045Y-103181864D01*
X126838045Y-93356864D02*
X126838045Y-97223864D01*
X126838045Y-99303864D02*
X126838045Y-103170864D01*
X126878045Y-93366864D02*
X126878045Y-97223864D01*
X126878045Y-99303864D02*
X126878045Y-103160864D01*
X126918045Y-93378864D02*
X126918045Y-97223864D01*
X126918045Y-99303864D02*
X126918045Y-103148864D01*
X126958045Y-93389864D02*
X126958045Y-97223864D01*
X126958045Y-99303864D02*
X126958045Y-103137864D01*
X126998045Y-93401864D02*
X126998045Y-97223864D01*
X126998045Y-99303864D02*
X126998045Y-103125864D01*
X127038045Y-93413864D02*
X127038045Y-97223864D01*
X127038045Y-99303864D02*
X127038045Y-103113864D01*
X127078045Y-93426864D02*
X127078045Y-97223864D01*
X127078045Y-99303864D02*
X127078045Y-103100864D01*
X127118045Y-93439864D02*
X127118045Y-97223864D01*
X127118045Y-99303864D02*
X127118045Y-103087864D01*
X127158045Y-93452864D02*
X127158045Y-97223864D01*
X127158045Y-99303864D02*
X127158045Y-103074864D01*
X127198045Y-93466864D02*
X127198045Y-97223864D01*
X127198045Y-99303864D02*
X127198045Y-103060864D01*
X127238045Y-93480864D02*
X127238045Y-97223864D01*
X127238045Y-99303864D02*
X127238045Y-103046864D01*
X127278045Y-93495864D02*
X127278045Y-97223864D01*
X127278045Y-99303864D02*
X127278045Y-103031864D01*
X127318045Y-93509864D02*
X127318045Y-97223864D01*
X127318045Y-99303864D02*
X127318045Y-103017864D01*
X127358045Y-93525864D02*
X127358045Y-97223864D01*
X127358045Y-99303864D02*
X127358045Y-103001864D01*
X127398045Y-93540864D02*
X127398045Y-97223864D01*
X127398045Y-99303864D02*
X127398045Y-102986864D01*
X127438045Y-93556864D02*
X127438045Y-97223864D01*
X127438045Y-99303864D02*
X127438045Y-102970864D01*
X127478045Y-93573864D02*
X127478045Y-97223864D01*
X127478045Y-99303864D02*
X127478045Y-102953864D01*
X127518045Y-93589864D02*
X127518045Y-97223864D01*
X127518045Y-99303864D02*
X127518045Y-102937864D01*
X127558045Y-93606864D02*
X127558045Y-97223864D01*
X127558045Y-99303864D02*
X127558045Y-102920864D01*
X127598045Y-93624864D02*
X127598045Y-97223864D01*
X127598045Y-99303864D02*
X127598045Y-102902864D01*
X127638045Y-93642864D02*
X127638045Y-97223864D01*
X127638045Y-99303864D02*
X127638045Y-102884864D01*
X127678045Y-93660864D02*
X127678045Y-97223864D01*
X127678045Y-99303864D02*
X127678045Y-102866864D01*
X127718045Y-93679864D02*
X127718045Y-97223864D01*
X127718045Y-99303864D02*
X127718045Y-102847864D01*
X127758045Y-93699864D02*
X127758045Y-97223864D01*
X127758045Y-99303864D02*
X127758045Y-102827864D01*
X127798045Y-93718864D02*
X127798045Y-97223864D01*
X127798045Y-99303864D02*
X127798045Y-102808864D01*
X127838045Y-93738864D02*
X127838045Y-102788864D01*
X127878045Y-93759864D02*
X127878045Y-102767864D01*
X127918045Y-93780864D02*
X127918045Y-102746864D01*
X127958045Y-93801864D02*
X127958045Y-102725864D01*
X127998045Y-93823864D02*
X127998045Y-102703864D01*
X128038045Y-93846864D02*
X128038045Y-102680864D01*
X128078045Y-93868864D02*
X128078045Y-102658864D01*
X128118045Y-93892864D02*
X128118045Y-102634864D01*
X128158045Y-93916864D02*
X128158045Y-102610864D01*
X128198045Y-93940864D02*
X128198045Y-102586864D01*
X128238045Y-93965864D02*
X128238045Y-102561864D01*
X128278045Y-93990864D02*
X128278045Y-102536864D01*
X128318045Y-94016864D02*
X128318045Y-102510864D01*
X128358045Y-94042864D02*
X128358045Y-102484864D01*
X128398045Y-94069864D02*
X128398045Y-102457864D01*
X128438045Y-94097864D02*
X128438045Y-102429864D01*
X128478045Y-94125864D02*
X128478045Y-102401864D01*
X128518045Y-94153864D02*
X128518045Y-102373864D01*
X128558045Y-94183864D02*
X128558045Y-102343864D01*
X128598045Y-94213864D02*
X128598045Y-102313864D01*
X128638045Y-94243864D02*
X128638045Y-102283864D01*
X128678045Y-94274864D02*
X128678045Y-102252864D01*
X128718045Y-94306864D02*
X128718045Y-102220864D01*
X128758045Y-94338864D02*
X128758045Y-102188864D01*
X128798045Y-94371864D02*
X128798045Y-102155864D01*
X128838045Y-94405864D02*
X128838045Y-102121864D01*
X128878045Y-94439864D02*
X128878045Y-102087864D01*
X128918045Y-94474864D02*
X128918045Y-102052864D01*
X128958045Y-94510864D02*
X128958045Y-102016864D01*
X128998045Y-94547864D02*
X128998045Y-101979864D01*
X129038045Y-94584864D02*
X129038045Y-101942864D01*
X129078045Y-94623864D02*
X129078045Y-101903864D01*
X129118045Y-94662864D02*
X129118045Y-101864864D01*
X129158045Y-94702864D02*
X129158045Y-101824864D01*
X129198045Y-94743864D02*
X129198045Y-101783864D01*
X129238045Y-94785864D02*
X129238045Y-101741864D01*
X129278045Y-94827864D02*
X129278045Y-101699864D01*
X129318045Y-94871864D02*
X129318045Y-101655864D01*
X129358045Y-94916864D02*
X129358045Y-101610864D01*
X129398045Y-94962864D02*
X129398045Y-101564864D01*
X129438045Y-95009864D02*
X129438045Y-101517864D01*
X129478045Y-95057864D02*
X129478045Y-101469864D01*
X129518045Y-95107864D02*
X129518045Y-101419864D01*
X129558045Y-95157864D02*
X129558045Y-101369864D01*
X129598045Y-95209864D02*
X129598045Y-101317864D01*
X129638045Y-95263864D02*
X129638045Y-101263864D01*
X129678045Y-95318864D02*
X129678045Y-101208864D01*
X129718045Y-95374864D02*
X129718045Y-101152864D01*
X129758045Y-95433864D02*
X129758045Y-101093864D01*
X129798045Y-95493864D02*
X129798045Y-101033864D01*
X129838045Y-95554864D02*
X129838045Y-100972864D01*
X129878045Y-95618864D02*
X129878045Y-100908864D01*
X129918045Y-95684864D02*
X129918045Y-100842864D01*
X129958045Y-95753864D02*
X129958045Y-100773864D01*
X129998045Y-95824864D02*
X129998045Y-100702864D01*
X130038045Y-95898864D02*
X130038045Y-100628864D01*
X130078045Y-95974864D02*
X130078045Y-100552864D01*
X130118045Y-96054864D02*
X130118045Y-100472864D01*
X130158045Y-96138864D02*
X130158045Y-100388864D01*
X130198045Y-96226864D02*
X130198045Y-100300864D01*
X130238045Y-96319864D02*
X130238045Y-100207864D01*
X130278045Y-96417864D02*
X130278045Y-100109864D01*
X130318045Y-96521864D02*
X130318045Y-100005864D01*
X130358045Y-96633864D02*
X130358045Y-99893864D01*
X130398045Y-96753864D02*
X130398045Y-99773864D01*
X130438045Y-96885864D02*
X130438045Y-99641864D01*
X130478045Y-97033864D02*
X130478045Y-99493864D01*
X130518045Y-97201864D02*
X130518045Y-99325864D01*
X130558045Y-97401864D02*
X130558045Y-99125864D01*
X130598045Y-97664864D02*
X130598045Y-98862864D01*
X130637045Y-98263864D02*
G75*
G02*
X120397045Y-98263864I-5120000J0D01*
G01*
X120397045Y-98263864D02*
G75*
G02*
X130637045Y-98263864I5120000J0D01*
G01*
%TO.C,J2*%
X122890529Y-83881150D02*
X122890529Y-78741150D01*
X125550529Y-78741150D02*
X122890529Y-78741150D01*
X125550529Y-83881150D02*
X122890529Y-83881150D01*
X125550529Y-83881150D02*
X125550529Y-78741150D01*
X125550529Y-85151150D02*
X125550529Y-86481150D01*
X125550529Y-86481150D02*
X124220529Y-86481150D01*
%TO.C,SW2*%
X161750000Y-107000000D02*
X161750000Y-108500000D01*
X163000000Y-111000000D02*
X167500000Y-111000000D01*
X167500000Y-104500000D02*
X163000000Y-104500000D01*
X168750000Y-108500000D02*
X168750000Y-107000000D01*
%TO.C,SW1*%
X172750000Y-107000000D02*
X172750000Y-108500000D01*
X174000000Y-111000000D02*
X178500000Y-111000000D01*
X178500000Y-104500000D02*
X174000000Y-104500000D01*
X179750000Y-108500000D02*
X179750000Y-107000000D01*
%TD*%
M02*
