M48
; DRILL file {KiCad 9.0.4-9.0.4-0~ubuntu22.04.1} date 2025-11-01T21:50:01+0100
; FORMAT={-:-/ absolute / metric / decimal}
; #@! TF.CreationDate,2025-11-01T21:50:01+01:00
; #@! TF.GenerationSoftware,Kicad,Pcbnew,9.0.4-9.0.4-0~ubuntu22.04.1
; #@! TF.FileFunction,Plated,1,2,PTH
FMAT,2
METRIC
; #@! TA.AperFunction,Plated,PTH,ComponentDrill
T1C0.800
; #@! TA.AperFunction,Plated,PTH,ComponentDrill
T2C1.000
; #@! TA.AperFunction,Plated,PTH,ComponentDrill
T3C1.100
%
G90
G05
T1
X134.0Y-80.0
X134.0Y-82.5
T2
X124.221Y-80.071
X124.221Y-82.611
X124.221Y-85.151
X124.26Y-108.0
X126.8Y-108.0
X129.34Y-108.0
X131.88Y-108.0
X134.42Y-108.0
X136.96Y-108.0
X139.5Y-108.0
X143.26Y-72.46
X143.26Y-75.0
X143.26Y-77.54
X143.26Y-80.08
X143.26Y-82.62
X143.26Y-85.16
X143.26Y-87.7
X143.26Y-90.24
X143.26Y-92.78
X143.26Y-95.32
X143.26Y-97.86
X143.26Y-100.4
X143.26Y-102.94
X143.26Y-105.48
X143.26Y-108.02
X158.5Y-72.46
X158.5Y-75.0
X158.5Y-77.54
X158.5Y-80.08
X158.5Y-82.62
X158.5Y-85.16
X158.5Y-87.7
X158.5Y-90.24
X158.5Y-92.78
X158.5Y-95.32
X158.5Y-97.86
X158.5Y-100.4
X158.5Y-102.94
X158.5Y-105.48
X158.5Y-108.02
X170.38Y-77.5
X172.92Y-77.5
X175.46Y-77.5
X178.0Y-77.5
T3
X162.0Y-105.5
X162.0Y-110.0
X168.5Y-105.5
X168.5Y-110.0
X173.0Y-105.5
X173.0Y-110.0
X179.5Y-105.5
X179.5Y-110.0
M30
