%TF.GenerationSoftware,KiCad,Pcbnew,9.0.4-9.0.4-0~ubuntu22.04.1*%
%TF.CreationDate,2025-11-01T21:49:49+01:00*%
%TF.ProjectId,AutomatedBlinds,4175746f-6d61-4746-9564-426c696e6473,rev?*%
%TF.SameCoordinates,Original*%
%TF.FileFunction,Copper,L2,Bot*%
%TF.FilePolarity,Positive*%
%FSLAX46Y46*%
G04 Gerber Fmt 4.6, Leading zero omitted, Abs format (unit mm)*
G04 Created by KiCad (PCBNEW 9.0.4-9.0.4-0~ubuntu22.04.1) date 2025-11-01 21:49:49*
%MOMM*%
%LPD*%
G01*
G04 APERTURE LIST*
%TA.AperFunction,ComponentPad*%
%ADD10O,1.600000X1.600000*%
%TD*%
%TA.AperFunction,ComponentPad*%
%ADD11R,1.600000X1.600000*%
%TD*%
%TA.AperFunction,ComponentPad*%
%ADD12O,1.700000X1.700000*%
%TD*%
%TA.AperFunction,ComponentPad*%
%ADD13R,1.700000X1.700000*%
%TD*%
%TA.AperFunction,ComponentPad*%
%ADD14C,2.000000*%
%TD*%
%TA.AperFunction,ComponentPad*%
%ADD15C,1.600000*%
%TD*%
%TA.AperFunction,ComponentPad*%
%ADD16O,1.600000X2.000000*%
%TD*%
%TA.AperFunction,Conductor*%
%ADD17C,0.200000*%
%TD*%
G04 APERTURE END LIST*
D10*
%TO.P,A1,30,VIN*%
%TO.N,+6V*%
X158500000Y-72460000D03*
%TO.P,A1,29,GND*%
%TO.N,unconnected-(A1-GND-Pad29)*%
X158500000Y-75000000D03*
%TO.P,A1,28,~{RESET}*%
%TO.N,unconnected-(A1-~{RESET}-Pad28)*%
X158500000Y-77540000D03*
%TO.P,A1,27,+5V*%
%TO.N,+5V*%
X158500000Y-80080000D03*
%TO.P,A1,26,A7*%
%TO.N,unconnected-(A1-A7-Pad26)*%
X158500000Y-82620000D03*
%TO.P,A1,25,A6*%
%TO.N,unconnected-(A1-A6-Pad25)*%
X158500000Y-85160000D03*
%TO.P,A1,24,A5*%
%TO.N,Net-(A1-A5)*%
X158500000Y-87700000D03*
%TO.P,A1,23,A4*%
%TO.N,Net-(A1-A4)*%
X158500000Y-90240000D03*
%TO.P,A1,22,A3*%
%TO.N,unconnected-(A1-A3-Pad22)*%
X158500000Y-92780000D03*
%TO.P,A1,21,A2*%
%TO.N,unconnected-(A1-A2-Pad21)*%
X158500000Y-95320000D03*
%TO.P,A1,20,A1*%
%TO.N,Net-(A1-A1)*%
X158500000Y-97860000D03*
%TO.P,A1,19,A0*%
%TO.N,Net-(A1-A0)*%
X158500000Y-100400000D03*
%TO.P,A1,18,AREF*%
%TO.N,unconnected-(A1-AREF-Pad18)*%
X158500000Y-102940000D03*
%TO.P,A1,17,3V3*%
%TO.N,unconnected-(A1-3V3-Pad17)*%
X158500000Y-105480000D03*
%TO.P,A1,16,D13*%
%TO.N,unconnected-(A1-D13-Pad16)*%
X158500000Y-108020000D03*
%TO.P,A1,15,D12*%
%TO.N,unconnected-(A1-D12-Pad15)*%
X143260000Y-108020000D03*
%TO.P,A1,14,D11*%
%TO.N,Net-(A1-D11)*%
X143260000Y-105480000D03*
%TO.P,A1,13,D10*%
%TO.N,unconnected-(A1-D10-Pad13)*%
X143260000Y-102940000D03*
%TO.P,A1,12,D9*%
%TO.N,unconnected-(A1-D9-Pad12)*%
X143260000Y-100400000D03*
%TO.P,A1,11,D8*%
%TO.N,unconnected-(A1-D8-Pad11)*%
X143260000Y-97860000D03*
%TO.P,A1,10,D7*%
%TO.N,unconnected-(A1-D7-Pad10)*%
X143260000Y-95320000D03*
%TO.P,A1,9,D6*%
%TO.N,unconnected-(A1-D6-Pad9)*%
X143260000Y-92780000D03*
%TO.P,A1,8,D5*%
%TO.N,unconnected-(A1-D5-Pad8)*%
X143260000Y-90240000D03*
%TO.P,A1,7,D4*%
%TO.N,unconnected-(A1-D4-Pad7)*%
X143260000Y-87700000D03*
%TO.P,A1,6,D3*%
%TO.N,Net-(A1-D3)*%
X143260000Y-85160000D03*
%TO.P,A1,5,D2*%
%TO.N,unconnected-(A1-D2-Pad5)*%
X143260000Y-82620000D03*
%TO.P,A1,4,GND*%
%TO.N,unconnected-(A1-GND-Pad4)*%
X143260000Y-80080000D03*
%TO.P,A1,3,~{RESET}*%
%TO.N,unconnected-(A1-~{RESET}-Pad3)*%
X143260000Y-77540000D03*
%TO.P,A1,2,D0/RX*%
%TO.N,unconnected-(A1-D0{slash}RX-Pad2)*%
X143260000Y-75000000D03*
D11*
%TO.P,A1,1,D1/TX*%
%TO.N,unconnected-(A1-D1{slash}TX-Pad1)*%
X143260000Y-72460000D03*
%TD*%
D12*
%TO.P,J4,7,Pin_7*%
%TO.N,+6V*%
X124260000Y-108000000D03*
%TO.P,J4,6,Pin_6*%
%TO.N,GND*%
X126800000Y-108000000D03*
%TO.P,J4,5,Pin_5*%
%TO.N,+5V*%
X129340000Y-108000000D03*
%TO.P,J4,4,Pin_4*%
%TO.N,GND*%
X131880000Y-108000000D03*
%TO.P,J4,3,Pin_3*%
%TO.N,Net-(A1-A5)*%
X134420000Y-108000000D03*
%TO.P,J4,2,Pin_2*%
%TO.N,Net-(A1-A4)*%
X136960000Y-108000000D03*
D13*
%TO.P,J4,1,Pin_1*%
%TO.N,Net-(A1-D11)*%
X139500000Y-108000000D03*
%TD*%
D14*
%TO.P,SW2,2,2*%
%TO.N,GND*%
X168500000Y-110000000D03*
X162000000Y-110000000D03*
%TO.P,SW2,1,1*%
%TO.N,Net-(A1-A0)*%
X162000000Y-105500000D03*
X168500000Y-105500000D03*
%TD*%
%TO.P,SW1,2,2*%
%TO.N,GND*%
X179500000Y-110000000D03*
X173000000Y-110000000D03*
%TO.P,SW1,1,1*%
%TO.N,Net-(A1-A1)*%
X173000000Y-105500000D03*
X179500000Y-105500000D03*
%TD*%
D11*
%TO.P,C1,1*%
%TO.N,+6V*%
X134000000Y-82500000D03*
D15*
%TO.P,C1,2*%
%TO.N,GND*%
X134000000Y-80000000D03*
%TD*%
D16*
%TO.P,Brd1,4,SDA*%
%TO.N,Net-(A1-A4)*%
X178000000Y-77500000D03*
%TO.P,Brd1,3,SCL*%
%TO.N,Net-(A1-A5)*%
X175460000Y-77500000D03*
%TO.P,Brd1,1,GND*%
%TO.N,GND*%
X170380000Y-77500000D03*
%TO.P,Brd1,2,VCC*%
%TO.N,+5V*%
X172920000Y-77500000D03*
%TD*%
D13*
%TO.P,J2,1,Pin_1*%
%TO.N,Net-(A1-D3)*%
X124220529Y-85151150D03*
D12*
%TO.P,J2,2,Pin_2*%
%TO.N,+6V*%
X124220529Y-82611150D03*
%TO.P,J2,3,Pin_3*%
%TO.N,GND*%
X124220529Y-80071150D03*
%TD*%
D17*
%TO.N,+5V*%
X172920000Y-77500000D02*
X170340000Y-80080000D01*
X170340000Y-80080000D02*
X158500000Y-80080000D01*
%TO.N,Net-(A1-D3)*%
X124220529Y-85151150D02*
X143251150Y-85151150D01*
X143251150Y-85151150D02*
X143260000Y-85160000D01*
%TO.N,+5V*%
X142191584Y-94063861D02*
X144516139Y-94063861D01*
X144516139Y-94063861D02*
X158500000Y-80080000D01*
X129340000Y-106915445D02*
X142191584Y-94063861D01*
X129340000Y-108000000D02*
X129340000Y-106915445D01*
%TO.N,Net-(A1-A4)*%
X142097923Y-101659996D02*
X144700018Y-101659996D01*
X136960000Y-106797919D02*
X142097923Y-101659996D01*
X136960000Y-108000000D02*
X136960000Y-106797919D01*
X144700018Y-101659996D02*
X156120014Y-90240000D01*
X156120014Y-90240000D02*
X158500000Y-90240000D01*
%TO.N,Net-(A1-A5)*%
X134420000Y-108000000D02*
X134420000Y-106797919D01*
X142057923Y-99159996D02*
X144840004Y-99159996D01*
X134420000Y-106797919D02*
X142057923Y-99159996D01*
X144840004Y-99159996D02*
X156300000Y-87700000D01*
X156300000Y-87700000D02*
X158500000Y-87700000D01*
%TO.N,Net-(A1-A1)*%
X158500000Y-97860000D02*
X165360000Y-97860000D01*
X165360000Y-97860000D02*
X173000000Y-105500000D01*
%TO.N,Net-(A1-A0)*%
X158500000Y-100400000D02*
X162000000Y-103900000D01*
X162000000Y-103900000D02*
X162000000Y-105500000D01*
%TO.N,Net-(A1-A4)*%
X158500000Y-90240000D02*
X165260000Y-90240000D01*
X165260000Y-90240000D02*
X178000000Y-77500000D01*
%TO.N,Net-(A1-A5)*%
X158500000Y-87700000D02*
X165260000Y-87700000D01*
X165260000Y-87700000D02*
X175460000Y-77500000D01*
%TO.N,+6V*%
X141379794Y-82500000D02*
X142502800Y-81376994D01*
X134000000Y-82500000D02*
X141379794Y-82500000D01*
X142502800Y-81376994D02*
X149583006Y-81376994D01*
X149583006Y-81376994D02*
X158500000Y-72460000D01*
X124220529Y-82611150D02*
X133888850Y-82611150D01*
X133888850Y-82611150D02*
X134000000Y-82500000D01*
X124260000Y-108000000D02*
X123000000Y-106740000D01*
X123000000Y-106740000D02*
X123000000Y-83831679D01*
X123000000Y-83831679D02*
X124220529Y-82611150D01*
%TO.N,Net-(A1-A0)*%
X161600000Y-105500000D02*
X162000000Y-105500000D01*
%TO.N,+5V*%
X129340000Y-108000000D02*
X129340000Y-107620000D01*
%TD*%
%TA.AperFunction,Conductor*%
%TO.N,GND*%
G36*
X142092928Y-85771335D02*
G01*
X142136374Y-85819356D01*
X142147713Y-85841611D01*
X142268028Y-86007213D01*
X142412786Y-86151971D01*
X142538747Y-86243485D01*
X142578390Y-86272287D01*
X142669840Y-86318883D01*
X142671080Y-86319515D01*
X142721876Y-86367490D01*
X142738671Y-86435311D01*
X142716134Y-86501446D01*
X142671080Y-86540485D01*
X142578386Y-86587715D01*
X142412786Y-86708028D01*
X142268028Y-86852786D01*
X142147715Y-87018386D01*
X142054781Y-87200776D01*
X141991522Y-87395465D01*
X141959500Y-87597648D01*
X141959500Y-87802351D01*
X141991522Y-88004534D01*
X142054781Y-88199223D01*
X142147715Y-88381613D01*
X142268028Y-88547213D01*
X142412786Y-88691971D01*
X142567749Y-88804556D01*
X142578390Y-88812287D01*
X142669840Y-88858883D01*
X142671080Y-88859515D01*
X142721876Y-88907490D01*
X142738671Y-88975311D01*
X142716134Y-89041446D01*
X142671080Y-89080485D01*
X142578386Y-89127715D01*
X142412786Y-89248028D01*
X142268028Y-89392786D01*
X142147715Y-89558386D01*
X142054781Y-89740776D01*
X141991522Y-89935465D01*
X141959500Y-90137648D01*
X141959500Y-90342351D01*
X141991522Y-90544534D01*
X142054781Y-90739223D01*
X142147715Y-90921613D01*
X142268028Y-91087213D01*
X142412786Y-91231971D01*
X142567749Y-91344556D01*
X142578390Y-91352287D01*
X142669840Y-91398883D01*
X142671080Y-91399515D01*
X142721876Y-91447490D01*
X142738671Y-91515311D01*
X142716134Y-91581446D01*
X142671080Y-91620485D01*
X142578386Y-91667715D01*
X142412786Y-91788028D01*
X142268028Y-91932786D01*
X142147715Y-92098386D01*
X142054781Y-92280776D01*
X141991522Y-92475465D01*
X141959500Y-92677648D01*
X141959500Y-92882351D01*
X141991522Y-93084534D01*
X142054782Y-93279226D01*
X142074752Y-93318418D01*
X142087648Y-93387087D01*
X142061371Y-93451827D01*
X142004265Y-93492084D01*
X141996363Y-93494486D01*
X141959803Y-93504283D01*
X141959801Y-93504283D01*
X141959800Y-93504284D01*
X141959798Y-93504284D01*
X141959793Y-93504287D01*
X141822874Y-93583336D01*
X141822866Y-93583342D01*
X128859481Y-106546727D01*
X128859479Y-106546730D01*
X128813118Y-106627030D01*
X128813116Y-106627033D01*
X128809360Y-106633540D01*
X128780423Y-106683660D01*
X128765838Y-106738087D01*
X128762416Y-106746127D01*
X128745553Y-106766637D01*
X128731734Y-106789310D01*
X128720579Y-106797015D01*
X128718045Y-106800098D01*
X128714433Y-106801260D01*
X128704621Y-106808039D01*
X128632182Y-106844949D01*
X128460213Y-106969890D01*
X128309890Y-107120213D01*
X128184949Y-107292182D01*
X128180202Y-107301499D01*
X128132227Y-107352293D01*
X128064405Y-107369087D01*
X127998271Y-107346548D01*
X127959234Y-107301495D01*
X127954622Y-107292444D01*
X127829727Y-107120540D01*
X127829723Y-107120535D01*
X127679464Y-106970276D01*
X127679459Y-106970272D01*
X127507557Y-106845379D01*
X127318215Y-106748903D01*
X127116124Y-106683241D01*
X127050000Y-106672768D01*
X127050000Y-107566988D01*
X126992993Y-107534075D01*
X126865826Y-107500000D01*
X126734174Y-107500000D01*
X126607007Y-107534075D01*
X126550000Y-107566988D01*
X126550000Y-106672768D01*
X126549999Y-106672768D01*
X126483875Y-106683241D01*
X126281784Y-106748903D01*
X126092442Y-106845379D01*
X125920540Y-106970272D01*
X125920535Y-106970276D01*
X125770276Y-107120535D01*
X125770272Y-107120540D01*
X125645378Y-107292443D01*
X125640762Y-107301502D01*
X125592784Y-107352295D01*
X125524963Y-107369087D01*
X125458829Y-107346546D01*
X125419794Y-107301493D01*
X125415051Y-107292184D01*
X125415049Y-107292181D01*
X125415048Y-107292179D01*
X125290109Y-107120213D01*
X125139786Y-106969890D01*
X124967820Y-106844951D01*
X124778414Y-106748444D01*
X124778413Y-106748443D01*
X124778412Y-106748443D01*
X124576243Y-106682754D01*
X124576241Y-106682753D01*
X124576240Y-106682753D01*
X124414957Y-106657208D01*
X124366287Y-106649500D01*
X124153713Y-106649500D01*
X124129532Y-106653330D01*
X123943757Y-106682753D01*
X123901473Y-106696492D01*
X123886260Y-106696926D01*
X123872003Y-106702244D01*
X123852048Y-106697903D01*
X123831632Y-106698486D01*
X123817545Y-106690397D01*
X123803730Y-106687392D01*
X123775476Y-106666241D01*
X123636819Y-106527584D01*
X123603334Y-106466261D01*
X123600500Y-106439903D01*
X123600500Y-86625649D01*
X123620185Y-86558610D01*
X123672989Y-86512855D01*
X123724500Y-86501649D01*
X125118400Y-86501649D01*
X125118401Y-86501649D01*
X125178012Y-86495241D01*
X125312860Y-86444946D01*
X125428075Y-86358696D01*
X125514325Y-86243481D01*
X125564620Y-86108633D01*
X125571029Y-86049023D01*
X125571029Y-85875650D01*
X125590714Y-85808611D01*
X125643518Y-85762856D01*
X125695029Y-85751650D01*
X142025889Y-85751650D01*
X142092928Y-85771335D01*
G37*
%TD.AperFunction*%
%TA.AperFunction,Conductor*%
G36*
X141880533Y-95326659D02*
G01*
X141936466Y-95368531D01*
X141959672Y-95423442D01*
X141991523Y-95624535D01*
X142054781Y-95819223D01*
X142147715Y-96001613D01*
X142268028Y-96167213D01*
X142412786Y-96311971D01*
X142567749Y-96424556D01*
X142578390Y-96432287D01*
X142669840Y-96478883D01*
X142671080Y-96479515D01*
X142721876Y-96527490D01*
X142738671Y-96595311D01*
X142716134Y-96661446D01*
X142671080Y-96700485D01*
X142578386Y-96747715D01*
X142412786Y-96868028D01*
X142268028Y-97012786D01*
X142147715Y-97178386D01*
X142054781Y-97360776D01*
X141991522Y-97555465D01*
X141959500Y-97757648D01*
X141959500Y-97962351D01*
X141991522Y-98164534D01*
X142054782Y-98359226D01*
X142065983Y-98381208D01*
X142078879Y-98449877D01*
X142052602Y-98514618D01*
X141995495Y-98554874D01*
X141986598Y-98556957D01*
X141986715Y-98557393D01*
X141978866Y-98559496D01*
X141978865Y-98559496D01*
X141826138Y-98600419D01*
X141826137Y-98600419D01*
X141826135Y-98600420D01*
X141826132Y-98600421D01*
X141776019Y-98629355D01*
X141776018Y-98629356D01*
X141732612Y-98654416D01*
X141689208Y-98679475D01*
X141689205Y-98679477D01*
X133939479Y-106429203D01*
X133936176Y-106434925D01*
X133909864Y-106480500D01*
X133860423Y-106566134D01*
X133844106Y-106627030D01*
X133819498Y-106718864D01*
X133818438Y-106726922D01*
X133815885Y-106726585D01*
X133799814Y-106781320D01*
X133751796Y-106824765D01*
X133712180Y-106844950D01*
X133540213Y-106969890D01*
X133389890Y-107120213D01*
X133264949Y-107292182D01*
X133260202Y-107301499D01*
X133212227Y-107352293D01*
X133144405Y-107369087D01*
X133078271Y-107346548D01*
X133039234Y-107301495D01*
X133034622Y-107292444D01*
X132909727Y-107120540D01*
X132909723Y-107120535D01*
X132759464Y-106970276D01*
X132759459Y-106970272D01*
X132587557Y-106845379D01*
X132398215Y-106748903D01*
X132196124Y-106683241D01*
X132130000Y-106672768D01*
X132130000Y-107566988D01*
X132072993Y-107534075D01*
X131945826Y-107500000D01*
X131814174Y-107500000D01*
X131687007Y-107534075D01*
X131630000Y-107566988D01*
X131630000Y-106672768D01*
X131629999Y-106672768D01*
X131563875Y-106683241D01*
X131361784Y-106748903D01*
X131172442Y-106845379D01*
X131000540Y-106970272D01*
X131000535Y-106970276D01*
X130850276Y-107120535D01*
X130850272Y-107120540D01*
X130725378Y-107292443D01*
X130720762Y-107301502D01*
X130672784Y-107352295D01*
X130604963Y-107369087D01*
X130538829Y-107346546D01*
X130499794Y-107301493D01*
X130495051Y-107292184D01*
X130495049Y-107292181D01*
X130495048Y-107292179D01*
X130370109Y-107120213D01*
X130264968Y-107015072D01*
X130231483Y-106953749D01*
X130236467Y-106884057D01*
X130264966Y-106839712D01*
X141749520Y-95355158D01*
X141810841Y-95321675D01*
X141880533Y-95326659D01*
G37*
%TD.AperFunction*%
%TA.AperFunction,Conductor*%
G36*
X187942539Y-68520185D02*
G01*
X187988294Y-68572989D01*
X187999500Y-68624500D01*
X187999500Y-114375500D01*
X187979815Y-114442539D01*
X187927011Y-114488294D01*
X187875500Y-114499500D01*
X116624500Y-114499500D01*
X116557461Y-114479815D01*
X116511706Y-114427011D01*
X116500500Y-114375500D01*
X116500500Y-111893713D01*
X118649500Y-111893713D01*
X118649500Y-112106286D01*
X118682753Y-112316239D01*
X118748444Y-112518414D01*
X118844951Y-112707820D01*
X118969890Y-112879786D01*
X119120213Y-113030109D01*
X119292179Y-113155048D01*
X119292181Y-113155049D01*
X119292184Y-113155051D01*
X119481588Y-113251557D01*
X119683757Y-113317246D01*
X119893713Y-113350500D01*
X119893714Y-113350500D01*
X120106286Y-113350500D01*
X120106287Y-113350500D01*
X120316243Y-113317246D01*
X120518412Y-113251557D01*
X120707816Y-113155051D01*
X120729789Y-113139086D01*
X120879786Y-113030109D01*
X120879788Y-113030106D01*
X120879792Y-113030104D01*
X121030104Y-112879792D01*
X121030106Y-112879788D01*
X121030109Y-112879786D01*
X121155048Y-112707820D01*
X121155047Y-112707820D01*
X121155051Y-112707816D01*
X121251557Y-112518412D01*
X121317246Y-112316243D01*
X121350500Y-112106287D01*
X121350500Y-111893713D01*
X183649500Y-111893713D01*
X183649500Y-112106286D01*
X183682753Y-112316239D01*
X183748444Y-112518414D01*
X183844951Y-112707820D01*
X183969890Y-112879786D01*
X184120213Y-113030109D01*
X184292179Y-113155048D01*
X184292181Y-113155049D01*
X184292184Y-113155051D01*
X184481588Y-113251557D01*
X184683757Y-113317246D01*
X184893713Y-113350500D01*
X184893714Y-113350500D01*
X185106286Y-113350500D01*
X185106287Y-113350500D01*
X185316243Y-113317246D01*
X185518412Y-113251557D01*
X185707816Y-113155051D01*
X185729789Y-113139086D01*
X185879786Y-113030109D01*
X185879788Y-113030106D01*
X185879792Y-113030104D01*
X186030104Y-112879792D01*
X186030106Y-112879788D01*
X186030109Y-112879786D01*
X186155048Y-112707820D01*
X186155047Y-112707820D01*
X186155051Y-112707816D01*
X186251557Y-112518412D01*
X186317246Y-112316243D01*
X186350500Y-112106287D01*
X186350500Y-111893713D01*
X186317246Y-111683757D01*
X186251557Y-111481588D01*
X186155051Y-111292184D01*
X186155049Y-111292181D01*
X186155048Y-111292179D01*
X186030109Y-111120213D01*
X185879786Y-110969890D01*
X185707820Y-110844951D01*
X185518414Y-110748444D01*
X185518413Y-110748443D01*
X185518412Y-110748443D01*
X185316243Y-110682754D01*
X185316241Y-110682753D01*
X185316240Y-110682753D01*
X185154957Y-110657208D01*
X185106287Y-110649500D01*
X184893713Y-110649500D01*
X184845042Y-110657208D01*
X184683760Y-110682753D01*
X184481585Y-110748444D01*
X184292179Y-110844951D01*
X184120213Y-110969890D01*
X183969890Y-111120213D01*
X183844951Y-111292179D01*
X183748444Y-111481585D01*
X183682753Y-111683760D01*
X183649500Y-111893713D01*
X121350500Y-111893713D01*
X121317246Y-111683757D01*
X121251557Y-111481588D01*
X121155051Y-111292184D01*
X121123155Y-111248283D01*
X121123155Y-111248281D01*
X121030109Y-111120214D01*
X121030105Y-111120209D01*
X120879786Y-110969890D01*
X120707820Y-110844951D01*
X120518414Y-110748444D01*
X120518413Y-110748443D01*
X120518412Y-110748443D01*
X120316243Y-110682754D01*
X120316241Y-110682753D01*
X120316240Y-110682753D01*
X120154957Y-110657208D01*
X120106287Y-110649500D01*
X119893713Y-110649500D01*
X119845042Y-110657208D01*
X119683760Y-110682753D01*
X119481585Y-110748444D01*
X119292179Y-110844951D01*
X119120213Y-110969890D01*
X118969890Y-111120213D01*
X118844951Y-111292179D01*
X118748444Y-111481585D01*
X118682753Y-111683760D01*
X118649500Y-111893713D01*
X116500500Y-111893713D01*
X116500500Y-109881947D01*
X160500000Y-109881947D01*
X160500000Y-110118052D01*
X160536934Y-110351247D01*
X160609897Y-110575802D01*
X160717087Y-110786174D01*
X160777338Y-110869104D01*
X160777340Y-110869105D01*
X161476212Y-110170233D01*
X161487482Y-110212292D01*
X161559890Y-110337708D01*
X161662292Y-110440110D01*
X161787708Y-110512518D01*
X161829765Y-110523787D01*
X161130893Y-111222658D01*
X161213828Y-111282914D01*
X161424197Y-111390102D01*
X161648752Y-111463065D01*
X161648751Y-111463065D01*
X161881948Y-111500000D01*
X162118052Y-111500000D01*
X162351247Y-111463065D01*
X162575802Y-111390102D01*
X162786163Y-111282918D01*
X162786169Y-111282914D01*
X162869104Y-111222658D01*
X162869105Y-111222658D01*
X162170233Y-110523787D01*
X162212292Y-110512518D01*
X162337708Y-110440110D01*
X162440110Y-110337708D01*
X162512518Y-110212292D01*
X162523787Y-110170233D01*
X163222658Y-110869105D01*
X163222658Y-110869104D01*
X163282914Y-110786169D01*
X163282918Y-110786163D01*
X163390102Y-110575802D01*
X163463065Y-110351247D01*
X163500000Y-110118052D01*
X163500000Y-109881947D01*
X167000000Y-109881947D01*
X167000000Y-110118052D01*
X167036934Y-110351247D01*
X167109897Y-110575802D01*
X167217087Y-110786174D01*
X167277338Y-110869104D01*
X167277340Y-110869105D01*
X167976212Y-110170233D01*
X167987482Y-110212292D01*
X168059890Y-110337708D01*
X168162292Y-110440110D01*
X168287708Y-110512518D01*
X168329765Y-110523787D01*
X167630893Y-111222658D01*
X167713828Y-111282914D01*
X167924197Y-111390102D01*
X168148752Y-111463065D01*
X168148751Y-111463065D01*
X168381948Y-111500000D01*
X168618052Y-111500000D01*
X168851247Y-111463065D01*
X169075802Y-111390102D01*
X169286163Y-111282918D01*
X169286169Y-111282914D01*
X169369104Y-111222658D01*
X169369105Y-111222658D01*
X168670233Y-110523787D01*
X168712292Y-110512518D01*
X168837708Y-110440110D01*
X168940110Y-110337708D01*
X169012518Y-110212292D01*
X169023787Y-110170233D01*
X169722658Y-110869105D01*
X169722658Y-110869104D01*
X169782914Y-110786169D01*
X169782918Y-110786163D01*
X169890102Y-110575802D01*
X169963065Y-110351247D01*
X170000000Y-110118052D01*
X170000000Y-109881947D01*
X171500000Y-109881947D01*
X171500000Y-110118052D01*
X171536934Y-110351247D01*
X171609897Y-110575802D01*
X171717087Y-110786174D01*
X171777338Y-110869104D01*
X171777340Y-110869105D01*
X172476212Y-110170233D01*
X172487482Y-110212292D01*
X172559890Y-110337708D01*
X172662292Y-110440110D01*
X172787708Y-110512518D01*
X172829765Y-110523787D01*
X172130893Y-111222658D01*
X172213828Y-111282914D01*
X172424197Y-111390102D01*
X172648752Y-111463065D01*
X172648751Y-111463065D01*
X172881948Y-111500000D01*
X173118052Y-111500000D01*
X173351247Y-111463065D01*
X173575802Y-111390102D01*
X173786163Y-111282918D01*
X173786169Y-111282914D01*
X173869104Y-111222658D01*
X173869105Y-111222658D01*
X173170233Y-110523787D01*
X173212292Y-110512518D01*
X173337708Y-110440110D01*
X173440110Y-110337708D01*
X173512518Y-110212292D01*
X173523787Y-110170233D01*
X174222658Y-110869105D01*
X174222658Y-110869104D01*
X174282914Y-110786169D01*
X174282918Y-110786163D01*
X174390102Y-110575802D01*
X174463065Y-110351247D01*
X174500000Y-110118052D01*
X174500000Y-109881947D01*
X178000000Y-109881947D01*
X178000000Y-110118052D01*
X178036934Y-110351247D01*
X178109897Y-110575802D01*
X178217087Y-110786174D01*
X178277338Y-110869104D01*
X178277340Y-110869105D01*
X178976212Y-110170233D01*
X178987482Y-110212292D01*
X179059890Y-110337708D01*
X179162292Y-110440110D01*
X179287708Y-110512518D01*
X179329765Y-110523787D01*
X178630893Y-111222658D01*
X178713828Y-111282914D01*
X178924197Y-111390102D01*
X179148752Y-111463065D01*
X179148751Y-111463065D01*
X179381948Y-111500000D01*
X179618052Y-111500000D01*
X179851247Y-111463065D01*
X180075802Y-111390102D01*
X180286163Y-111282918D01*
X180286169Y-111282914D01*
X180369104Y-111222658D01*
X180369105Y-111222658D01*
X179670233Y-110523787D01*
X179712292Y-110512518D01*
X179837708Y-110440110D01*
X179940110Y-110337708D01*
X180012518Y-110212292D01*
X180023787Y-110170234D01*
X180722658Y-110869105D01*
X180722658Y-110869104D01*
X180782914Y-110786169D01*
X180782918Y-110786163D01*
X180890102Y-110575802D01*
X180963065Y-110351247D01*
X181000000Y-110118052D01*
X181000000Y-109881947D01*
X180963065Y-109648752D01*
X180890102Y-109424197D01*
X180782914Y-109213828D01*
X180722658Y-109130894D01*
X180722658Y-109130893D01*
X180023787Y-109829765D01*
X180012518Y-109787708D01*
X179940110Y-109662292D01*
X179837708Y-109559890D01*
X179712292Y-109487482D01*
X179670234Y-109476212D01*
X180369105Y-108777340D01*
X180369104Y-108777338D01*
X180286174Y-108717087D01*
X180075802Y-108609897D01*
X179851247Y-108536934D01*
X179851248Y-108536934D01*
X179618052Y-108500000D01*
X179381948Y-108500000D01*
X179148752Y-108536934D01*
X178924197Y-108609897D01*
X178713830Y-108717084D01*
X178630894Y-108777340D01*
X179329766Y-109476212D01*
X179287708Y-109487482D01*
X179162292Y-109559890D01*
X179059890Y-109662292D01*
X178987482Y-109787708D01*
X178976212Y-109829766D01*
X178277340Y-109130894D01*
X178217084Y-109213830D01*
X178109897Y-109424197D01*
X178036934Y-109648752D01*
X178000000Y-109881947D01*
X174500000Y-109881947D01*
X174463065Y-109648752D01*
X174390102Y-109424197D01*
X174282914Y-109213828D01*
X174222658Y-109130894D01*
X174222658Y-109130893D01*
X173523787Y-109829765D01*
X173512518Y-109787708D01*
X173440110Y-109662292D01*
X173337708Y-109559890D01*
X173212292Y-109487482D01*
X173170234Y-109476212D01*
X173869105Y-108777340D01*
X173869104Y-108777339D01*
X173786174Y-108717087D01*
X173575802Y-108609897D01*
X173351247Y-108536934D01*
X173351248Y-108536934D01*
X173118052Y-108500000D01*
X172881948Y-108500000D01*
X172648752Y-108536934D01*
X172424197Y-108609897D01*
X172213830Y-108717084D01*
X172130894Y-108777340D01*
X172829766Y-109476212D01*
X172787708Y-109487482D01*
X172662292Y-109559890D01*
X172559890Y-109662292D01*
X172487482Y-109787708D01*
X172476212Y-109829766D01*
X171777340Y-109130894D01*
X171717084Y-109213830D01*
X171609897Y-109424197D01*
X171536934Y-109648752D01*
X171500000Y-109881947D01*
X170000000Y-109881947D01*
X169963065Y-109648752D01*
X169890102Y-109424197D01*
X169782914Y-109213828D01*
X169722658Y-109130894D01*
X169722658Y-109130893D01*
X169023787Y-109829765D01*
X169012518Y-109787708D01*
X168940110Y-109662292D01*
X168837708Y-109559890D01*
X168712292Y-109487482D01*
X168670234Y-109476212D01*
X169369105Y-108777340D01*
X169369104Y-108777339D01*
X169286174Y-108717087D01*
X169075802Y-108609897D01*
X168851247Y-108536934D01*
X168851248Y-108536934D01*
X168618052Y-108500000D01*
X168381948Y-108500000D01*
X168148752Y-108536934D01*
X167924197Y-108609897D01*
X167713830Y-108717084D01*
X167630894Y-108777340D01*
X168329766Y-109476212D01*
X168287708Y-109487482D01*
X168162292Y-109559890D01*
X168059890Y-109662292D01*
X167987482Y-109787708D01*
X167976212Y-109829766D01*
X167277340Y-109130894D01*
X167217084Y-109213830D01*
X167109897Y-109424197D01*
X167036934Y-109648752D01*
X167000000Y-109881947D01*
X163500000Y-109881947D01*
X163463065Y-109648752D01*
X163390102Y-109424197D01*
X163282914Y-109213828D01*
X163222658Y-109130894D01*
X163222658Y-109130893D01*
X162523787Y-109829765D01*
X162512518Y-109787708D01*
X162440110Y-109662292D01*
X162337708Y-109559890D01*
X162212292Y-109487482D01*
X162170234Y-109476212D01*
X162869105Y-108777340D01*
X162869104Y-108777339D01*
X162786174Y-108717087D01*
X162575802Y-108609897D01*
X162351247Y-108536934D01*
X162351248Y-108536934D01*
X162118052Y-108500000D01*
X161881948Y-108500000D01*
X161648752Y-108536934D01*
X161424197Y-108609897D01*
X161213830Y-108717084D01*
X161130894Y-108777340D01*
X161829766Y-109476212D01*
X161787708Y-109487482D01*
X161662292Y-109559890D01*
X161559890Y-109662292D01*
X161487482Y-109787708D01*
X161476212Y-109829766D01*
X160777340Y-109130894D01*
X160717084Y-109213830D01*
X160609897Y-109424197D01*
X160536934Y-109648752D01*
X160500000Y-109881947D01*
X116500500Y-109881947D01*
X116500500Y-106819054D01*
X122399498Y-106819054D01*
X122440018Y-106970276D01*
X122440423Y-106971785D01*
X122457002Y-107000500D01*
X122515677Y-107102129D01*
X122519479Y-107108714D01*
X122519481Y-107108717D01*
X122638349Y-107227585D01*
X122638355Y-107227590D01*
X122926241Y-107515476D01*
X122959726Y-107576799D01*
X122956492Y-107641473D01*
X122942753Y-107683757D01*
X122923233Y-107807007D01*
X122909500Y-107893713D01*
X122909500Y-108106287D01*
X122919534Y-108169644D01*
X122942753Y-108316239D01*
X123008444Y-108518414D01*
X123104951Y-108707820D01*
X123229890Y-108879786D01*
X123380213Y-109030109D01*
X123552179Y-109155048D01*
X123552181Y-109155049D01*
X123552184Y-109155051D01*
X123741588Y-109251557D01*
X123943757Y-109317246D01*
X124153713Y-109350500D01*
X124153714Y-109350500D01*
X124366286Y-109350500D01*
X124366287Y-109350500D01*
X124576243Y-109317246D01*
X124778412Y-109251557D01*
X124967816Y-109155051D01*
X124999152Y-109132284D01*
X125139786Y-109030109D01*
X125139788Y-109030106D01*
X125139792Y-109030104D01*
X125290104Y-108879792D01*
X125290106Y-108879788D01*
X125290109Y-108879786D01*
X125415048Y-108707820D01*
X125415051Y-108707816D01*
X125419793Y-108698508D01*
X125467763Y-108647711D01*
X125535583Y-108630911D01*
X125601719Y-108653445D01*
X125640763Y-108698500D01*
X125645377Y-108707555D01*
X125770272Y-108879459D01*
X125770276Y-108879464D01*
X125920535Y-109029723D01*
X125920540Y-109029727D01*
X126092442Y-109154620D01*
X126281782Y-109251095D01*
X126483871Y-109316757D01*
X126550000Y-109327231D01*
X126550000Y-108433012D01*
X126607007Y-108465925D01*
X126734174Y-108500000D01*
X126865826Y-108500000D01*
X126992993Y-108465925D01*
X127050000Y-108433012D01*
X127050000Y-109327230D01*
X127116126Y-109316757D01*
X127116129Y-109316757D01*
X127318217Y-109251095D01*
X127507557Y-109154620D01*
X127679459Y-109029727D01*
X127679464Y-109029723D01*
X127829723Y-108879464D01*
X127829727Y-108879459D01*
X127954620Y-108707558D01*
X127959232Y-108698507D01*
X128007205Y-108647709D01*
X128075025Y-108630912D01*
X128141161Y-108653447D01*
X128180204Y-108698504D01*
X128184949Y-108707817D01*
X128309890Y-108879786D01*
X128460213Y-109030109D01*
X128632179Y-109155048D01*
X128632181Y-109155049D01*
X128632184Y-109155051D01*
X128821588Y-109251557D01*
X129023757Y-109317246D01*
X129233713Y-109350500D01*
X129233714Y-109350500D01*
X129446286Y-109350500D01*
X129446287Y-109350500D01*
X129656243Y-109317246D01*
X129858412Y-109251557D01*
X130047816Y-109155051D01*
X130079152Y-109132284D01*
X130219786Y-109030109D01*
X130219788Y-109030106D01*
X130219792Y-109030104D01*
X130370104Y-108879792D01*
X130370106Y-108879788D01*
X130370109Y-108879786D01*
X130495048Y-108707820D01*
X130495051Y-108707816D01*
X130499793Y-108698508D01*
X130547763Y-108647711D01*
X130615583Y-108630911D01*
X130681719Y-108653445D01*
X130720763Y-108698500D01*
X130725377Y-108707555D01*
X130850272Y-108879459D01*
X130850276Y-108879464D01*
X131000535Y-109029723D01*
X131000540Y-109029727D01*
X131172442Y-109154620D01*
X131361782Y-109251095D01*
X131563871Y-109316757D01*
X131630000Y-109327231D01*
X131630000Y-108433012D01*
X131687007Y-108465925D01*
X131814174Y-108500000D01*
X131945826Y-108500000D01*
X132072993Y-108465925D01*
X132130000Y-108433012D01*
X132130000Y-109327230D01*
X132196126Y-109316757D01*
X132196129Y-109316757D01*
X132398217Y-109251095D01*
X132587557Y-109154620D01*
X132759459Y-109029727D01*
X132759464Y-109029723D01*
X132909723Y-108879464D01*
X132909727Y-108879459D01*
X133034620Y-108707558D01*
X133039232Y-108698507D01*
X133087205Y-108647709D01*
X133155025Y-108630912D01*
X133221161Y-108653447D01*
X133260204Y-108698504D01*
X133264949Y-108707817D01*
X133389890Y-108879786D01*
X133540213Y-109030109D01*
X133712179Y-109155048D01*
X133712181Y-109155049D01*
X133712184Y-109155051D01*
X133901588Y-109251557D01*
X134103757Y-109317246D01*
X134313713Y-109350500D01*
X134313714Y-109350500D01*
X134526286Y-109350500D01*
X134526287Y-109350500D01*
X134736243Y-109317246D01*
X134938412Y-109251557D01*
X135127816Y-109155051D01*
X135159152Y-109132284D01*
X135299786Y-109030109D01*
X135299788Y-109030106D01*
X135299792Y-109030104D01*
X135450104Y-108879792D01*
X135450106Y-108879788D01*
X135450109Y-108879786D01*
X135575048Y-108707820D01*
X135575047Y-108707820D01*
X135575051Y-108707816D01*
X135579514Y-108699054D01*
X135627488Y-108648259D01*
X135695308Y-108631463D01*
X135761444Y-108653999D01*
X135800484Y-108699054D01*
X135804591Y-108707115D01*
X135804951Y-108707820D01*
X135929890Y-108879786D01*
X136080213Y-109030109D01*
X136252179Y-109155048D01*
X136252181Y-109155049D01*
X136252184Y-109155051D01*
X136441588Y-109251557D01*
X136643757Y-109317246D01*
X136853713Y-109350500D01*
X136853714Y-109350500D01*
X137066286Y-109350500D01*
X137066287Y-109350500D01*
X137276243Y-109317246D01*
X137478412Y-109251557D01*
X137667816Y-109155051D01*
X137839792Y-109030104D01*
X137953329Y-108916566D01*
X138014648Y-108883084D01*
X138084340Y-108888068D01*
X138140274Y-108929939D01*
X138157189Y-108960917D01*
X138206202Y-109092328D01*
X138206206Y-109092335D01*
X138292452Y-109207544D01*
X138292455Y-109207547D01*
X138407664Y-109293793D01*
X138407671Y-109293797D01*
X138542517Y-109344091D01*
X138542516Y-109344091D01*
X138549444Y-109344835D01*
X138602127Y-109350500D01*
X140397872Y-109350499D01*
X140457483Y-109344091D01*
X140592331Y-109293796D01*
X140707546Y-109207546D01*
X140793796Y-109092331D01*
X140844091Y-108957483D01*
X140850500Y-108897873D01*
X140850499Y-107102128D01*
X140844091Y-107042517D01*
X140842810Y-107039083D01*
X140793797Y-106907671D01*
X140793793Y-106907664D01*
X140707547Y-106792455D01*
X140707544Y-106792452D01*
X140592335Y-106706206D01*
X140592328Y-106706202D01*
X140457482Y-106655908D01*
X140457483Y-106655908D01*
X140397883Y-106649501D01*
X140397881Y-106649500D01*
X140397873Y-106649500D01*
X140397864Y-106649500D01*
X138602129Y-106649500D01*
X138602123Y-106649501D01*
X138542516Y-106655908D01*
X138407671Y-106706202D01*
X138407664Y-106706206D01*
X138292455Y-106792452D01*
X138292452Y-106792455D01*
X138206206Y-106907664D01*
X138206203Y-106907669D01*
X138157189Y-107039083D01*
X138136529Y-107066680D01*
X138116141Y-107094394D01*
X138115638Y-107094586D01*
X138115317Y-107095016D01*
X138083045Y-107107052D01*
X138050882Y-107119355D01*
X138050356Y-107119245D01*
X138049853Y-107119433D01*
X138016204Y-107112113D01*
X137982488Y-107105072D01*
X137981928Y-107104656D01*
X137981580Y-107104581D01*
X137954059Y-107084157D01*
X137953695Y-107083799D01*
X137839792Y-106969896D01*
X137832474Y-106964579D01*
X137825880Y-106958094D01*
X137813192Y-106935312D01*
X137797272Y-106914661D01*
X137796467Y-106905280D01*
X137791885Y-106897052D01*
X137793529Y-106871024D01*
X137791301Y-106845047D01*
X137795696Y-106836719D01*
X137796290Y-106827321D01*
X137811742Y-106806317D01*
X137823914Y-106783255D01*
X137825074Y-106782078D01*
X141747819Y-102859334D01*
X141809142Y-102825849D01*
X141878834Y-102830833D01*
X141934767Y-102872705D01*
X141959184Y-102938169D01*
X141959500Y-102947015D01*
X141959500Y-103042351D01*
X141991522Y-103244534D01*
X142054781Y-103439223D01*
X142147715Y-103621613D01*
X142268028Y-103787213D01*
X142412786Y-103931971D01*
X142556588Y-104036447D01*
X142578390Y-104052287D01*
X142669840Y-104098883D01*
X142671080Y-104099515D01*
X142721876Y-104147490D01*
X142738671Y-104215311D01*
X142716134Y-104281446D01*
X142671080Y-104320485D01*
X142578386Y-104367715D01*
X142412786Y-104488028D01*
X142268028Y-104632786D01*
X142147715Y-104798386D01*
X142054781Y-104980776D01*
X141991522Y-105175465D01*
X141959500Y-105377648D01*
X141959500Y-105582351D01*
X141991522Y-105784534D01*
X142054781Y-105979223D01*
X142147715Y-106161613D01*
X142268028Y-106327213D01*
X142412786Y-106471971D01*
X142542390Y-106566132D01*
X142578390Y-106592287D01*
X142669840Y-106638883D01*
X142671080Y-106639515D01*
X142721876Y-106687490D01*
X142738671Y-106755311D01*
X142716134Y-106821446D01*
X142671080Y-106860485D01*
X142578386Y-106907715D01*
X142412786Y-107028028D01*
X142268028Y-107172786D01*
X142147715Y-107338386D01*
X142054781Y-107520776D01*
X141991522Y-107715465D01*
X141959500Y-107917648D01*
X141959500Y-108122351D01*
X141991522Y-108324534D01*
X142054781Y-108519223D01*
X142111971Y-108631463D01*
X142146133Y-108698510D01*
X142147715Y-108701613D01*
X142268028Y-108867213D01*
X142412786Y-109011971D01*
X142523400Y-109092335D01*
X142578390Y-109132287D01*
X142694607Y-109191503D01*
X142760776Y-109225218D01*
X142760778Y-109225218D01*
X142760781Y-109225220D01*
X142840416Y-109251095D01*
X142955465Y-109288477D01*
X143056557Y-109304488D01*
X143157648Y-109320500D01*
X143157649Y-109320500D01*
X143362351Y-109320500D01*
X143362352Y-109320500D01*
X143564534Y-109288477D01*
X143759219Y-109225220D01*
X143941610Y-109132287D01*
X144082246Y-109030110D01*
X144107213Y-109011971D01*
X144107215Y-109011968D01*
X144107219Y-109011966D01*
X144251966Y-108867219D01*
X144251968Y-108867215D01*
X144251971Y-108867213D01*
X144317268Y-108777338D01*
X144372287Y-108701610D01*
X144465220Y-108519219D01*
X144528477Y-108324534D01*
X144560500Y-108122352D01*
X144560500Y-107917648D01*
X144528477Y-107715466D01*
X144465220Y-107520781D01*
X144465218Y-107520778D01*
X144465218Y-107520776D01*
X144431503Y-107454607D01*
X144372287Y-107338390D01*
X144345487Y-107301502D01*
X144251971Y-107172786D01*
X144107213Y-107028028D01*
X143941614Y-106907715D01*
X143935006Y-106904348D01*
X143848917Y-106860483D01*
X143798123Y-106812511D01*
X143781328Y-106744690D01*
X143803865Y-106678555D01*
X143848917Y-106639516D01*
X143941610Y-106592287D01*
X143977610Y-106566132D01*
X144107213Y-106471971D01*
X144107215Y-106471968D01*
X144107219Y-106471966D01*
X144251966Y-106327219D01*
X144251968Y-106327215D01*
X144251971Y-106327213D01*
X144304732Y-106254590D01*
X144372287Y-106161610D01*
X144465220Y-105979219D01*
X144528477Y-105784534D01*
X144560500Y-105582352D01*
X144560500Y-105377648D01*
X144528477Y-105175466D01*
X144465220Y-104980781D01*
X144465218Y-104980778D01*
X144465218Y-104980776D01*
X144422243Y-104896435D01*
X144372287Y-104798390D01*
X144364556Y-104787749D01*
X144251971Y-104632786D01*
X144107213Y-104488028D01*
X143941614Y-104367715D01*
X143917607Y-104355483D01*
X143848917Y-104320483D01*
X143798123Y-104272511D01*
X143781328Y-104204690D01*
X143803865Y-104138555D01*
X143848917Y-104099516D01*
X143941610Y-104052287D01*
X144014266Y-103999500D01*
X144107213Y-103931971D01*
X144107215Y-103931968D01*
X144107219Y-103931966D01*
X144251966Y-103787219D01*
X144251968Y-103787215D01*
X144251971Y-103787213D01*
X144338431Y-103668209D01*
X144372287Y-103621610D01*
X144465220Y-103439219D01*
X144528477Y-103244534D01*
X144560500Y-103042352D01*
X144560500Y-102837648D01*
X144548426Y-102761416D01*
X144528477Y-102635465D01*
X144516736Y-102599332D01*
X144465220Y-102440781D01*
X144465216Y-102440773D01*
X144465215Y-102440770D01*
X144463542Y-102436730D01*
X144462916Y-102436007D01*
X144458308Y-102403959D01*
X144452328Y-102372127D01*
X144453363Y-102369574D01*
X144452972Y-102366849D01*
X144466425Y-102337390D01*
X144478602Y-102307386D01*
X144480852Y-102305799D01*
X144481997Y-102303293D01*
X144509248Y-102285779D01*
X144535707Y-102267126D01*
X144539166Y-102266552D01*
X144540775Y-102265519D01*
X144575710Y-102260496D01*
X144613349Y-102260496D01*
X144613365Y-102260497D01*
X144620961Y-102260497D01*
X144779072Y-102260497D01*
X144779075Y-102260497D01*
X144931803Y-102219573D01*
X144981922Y-102190635D01*
X145068734Y-102140516D01*
X145180538Y-102028712D01*
X145180538Y-102028710D01*
X145190746Y-102018503D01*
X145190747Y-102018500D01*
X156332430Y-90876819D01*
X156393753Y-90843334D01*
X156420111Y-90840500D01*
X157270398Y-90840500D01*
X157337437Y-90860185D01*
X157380883Y-90908205D01*
X157387715Y-90921614D01*
X157508028Y-91087213D01*
X157652786Y-91231971D01*
X157807749Y-91344556D01*
X157818390Y-91352287D01*
X157909840Y-91398883D01*
X157911080Y-91399515D01*
X157961876Y-91447490D01*
X157978671Y-91515311D01*
X157956134Y-91581446D01*
X157911080Y-91620485D01*
X157818386Y-91667715D01*
X157652786Y-91788028D01*
X157508028Y-91932786D01*
X157387715Y-92098386D01*
X157294781Y-92280776D01*
X157231522Y-92475465D01*
X157199500Y-92677648D01*
X157199500Y-92882351D01*
X157231522Y-93084534D01*
X157294781Y-93279223D01*
X157358691Y-93404653D01*
X157382728Y-93451827D01*
X157387715Y-93461613D01*
X157508028Y-93627213D01*
X157652786Y-93771971D01*
X157807749Y-93884556D01*
X157818390Y-93892287D01*
X157909840Y-93938883D01*
X157911080Y-93939515D01*
X157961876Y-93987490D01*
X157978671Y-94055311D01*
X157956134Y-94121446D01*
X157911080Y-94160485D01*
X157818386Y-94207715D01*
X157652786Y-94328028D01*
X157508028Y-94472786D01*
X157387715Y-94638386D01*
X157294781Y-94820776D01*
X157231522Y-95015465D01*
X157199500Y-95217648D01*
X157199500Y-95422351D01*
X157231522Y-95624534D01*
X157294781Y-95819223D01*
X157387715Y-96001613D01*
X157508028Y-96167213D01*
X157652786Y-96311971D01*
X157807749Y-96424556D01*
X157818390Y-96432287D01*
X157909840Y-96478883D01*
X157911080Y-96479515D01*
X157961876Y-96527490D01*
X157978671Y-96595311D01*
X157956134Y-96661446D01*
X157911080Y-96700485D01*
X157818386Y-96747715D01*
X157652786Y-96868028D01*
X157508028Y-97012786D01*
X157387715Y-97178386D01*
X157294781Y-97360776D01*
X157231522Y-97555465D01*
X157199500Y-97757648D01*
X157199500Y-97962351D01*
X157231522Y-98164534D01*
X157294781Y-98359223D01*
X157387715Y-98541613D01*
X157508028Y-98707213D01*
X157652786Y-98851971D01*
X157807749Y-98964556D01*
X157818390Y-98972287D01*
X157909840Y-99018883D01*
X157911080Y-99019515D01*
X157961876Y-99067490D01*
X157978671Y-99135311D01*
X157956134Y-99201446D01*
X157911080Y-99240485D01*
X157818386Y-99287715D01*
X157652786Y-99408028D01*
X157508028Y-99552786D01*
X157387715Y-99718386D01*
X157294781Y-99900776D01*
X157231522Y-100095465D01*
X157199500Y-100297648D01*
X157199500Y-100502351D01*
X157231522Y-100704534D01*
X157294781Y-100899223D01*
X157358691Y-101024653D01*
X157382032Y-101070461D01*
X157387715Y-101081613D01*
X157508028Y-101247213D01*
X157652786Y-101391971D01*
X157807749Y-101504556D01*
X157818390Y-101512287D01*
X157909840Y-101558883D01*
X157911080Y-101559515D01*
X157961876Y-101607490D01*
X157978671Y-101675311D01*
X157956134Y-101741446D01*
X157911080Y-101780485D01*
X157818386Y-101827715D01*
X157652786Y-101948028D01*
X157508028Y-102092786D01*
X157387715Y-102258386D01*
X157294781Y-102440776D01*
X157231522Y-102635465D01*
X157199500Y-102837648D01*
X157199500Y-103042351D01*
X157231522Y-103244534D01*
X157294781Y-103439223D01*
X157387715Y-103621613D01*
X157508028Y-103787213D01*
X157652786Y-103931971D01*
X157796588Y-104036447D01*
X157818390Y-104052287D01*
X157909840Y-104098883D01*
X157911080Y-104099515D01*
X157961876Y-104147490D01*
X157978671Y-104215311D01*
X157956134Y-104281446D01*
X157911080Y-104320485D01*
X157818386Y-104367715D01*
X157652786Y-104488028D01*
X157508028Y-104632786D01*
X157387715Y-104798386D01*
X157294781Y-104980776D01*
X157231522Y-105175465D01*
X157199500Y-105377648D01*
X157199500Y-105582351D01*
X157231522Y-105784534D01*
X157294781Y-105979223D01*
X157387715Y-106161613D01*
X157508028Y-106327213D01*
X157652786Y-106471971D01*
X157782390Y-106566132D01*
X157818390Y-106592287D01*
X157909840Y-106638883D01*
X157911080Y-106639515D01*
X157961876Y-106687490D01*
X157978671Y-106755311D01*
X157956134Y-106821446D01*
X157911080Y-106860485D01*
X157818386Y-106907715D01*
X157652786Y-107028028D01*
X157508028Y-107172786D01*
X157387715Y-107338386D01*
X157294781Y-107520776D01*
X157231522Y-107715465D01*
X157199500Y-107917648D01*
X157199500Y-108122351D01*
X157231522Y-108324534D01*
X157294781Y-108519223D01*
X157351971Y-108631463D01*
X157386133Y-108698510D01*
X157387715Y-108701613D01*
X157508028Y-108867213D01*
X157652786Y-109011971D01*
X157763400Y-109092335D01*
X157818390Y-109132287D01*
X157934607Y-109191503D01*
X158000776Y-109225218D01*
X158000778Y-109225218D01*
X158000781Y-109225220D01*
X158080416Y-109251095D01*
X158195465Y-109288477D01*
X158296557Y-109304488D01*
X158397648Y-109320500D01*
X158397649Y-109320500D01*
X158602351Y-109320500D01*
X158602352Y-109320500D01*
X158804534Y-109288477D01*
X158999219Y-109225220D01*
X159181610Y-109132287D01*
X159322246Y-109030110D01*
X159347213Y-109011971D01*
X159347215Y-109011968D01*
X159347219Y-109011966D01*
X159491966Y-108867219D01*
X159612287Y-108701610D01*
X159705220Y-108519219D01*
X159768477Y-108324534D01*
X159800500Y-108122352D01*
X159800500Y-107917648D01*
X159768477Y-107715466D01*
X159705220Y-107520781D01*
X159705218Y-107520778D01*
X159705218Y-107520776D01*
X159671503Y-107454607D01*
X159612287Y-107338390D01*
X159585487Y-107301502D01*
X159491971Y-107172786D01*
X159347213Y-107028028D01*
X159181614Y-106907715D01*
X159175006Y-106904348D01*
X159088917Y-106860483D01*
X159038123Y-106812511D01*
X159021328Y-106744690D01*
X159043865Y-106678555D01*
X159088917Y-106639516D01*
X159181610Y-106592287D01*
X159217610Y-106566132D01*
X159347213Y-106471971D01*
X159347215Y-106471968D01*
X159347219Y-106471966D01*
X159491966Y-106327219D01*
X159491968Y-106327215D01*
X159491971Y-106327213D01*
X159544732Y-106254590D01*
X159612287Y-106161610D01*
X159705220Y-105979219D01*
X159768477Y-105784534D01*
X159800500Y-105582352D01*
X159800500Y-105377648D01*
X159768477Y-105175466D01*
X159705220Y-104980781D01*
X159705218Y-104980778D01*
X159705218Y-104980776D01*
X159662243Y-104896435D01*
X159612287Y-104798390D01*
X159604556Y-104787749D01*
X159491971Y-104632786D01*
X159347213Y-104488028D01*
X159181614Y-104367715D01*
X159157607Y-104355483D01*
X159088917Y-104320483D01*
X159038123Y-104272511D01*
X159021328Y-104204690D01*
X159043865Y-104138555D01*
X159088917Y-104099516D01*
X159181610Y-104052287D01*
X159254266Y-103999500D01*
X159347213Y-103931971D01*
X159347215Y-103931968D01*
X159347219Y-103931966D01*
X159491966Y-103787219D01*
X159491968Y-103787215D01*
X159491971Y-103787213D01*
X159578431Y-103668209D01*
X159612287Y-103621610D01*
X159705220Y-103439219D01*
X159768477Y-103244534D01*
X159800500Y-103042352D01*
X159800500Y-102849097D01*
X159820185Y-102782058D01*
X159872989Y-102736303D01*
X159942147Y-102726359D01*
X160005703Y-102755384D01*
X160012181Y-102761416D01*
X161261052Y-104010287D01*
X161294537Y-104071610D01*
X161289553Y-104141302D01*
X161247681Y-104197235D01*
X161229671Y-104208450D01*
X161213569Y-104216654D01*
X161072398Y-104319222D01*
X161022490Y-104355483D01*
X161022488Y-104355485D01*
X161022487Y-104355485D01*
X160855485Y-104522487D01*
X160855485Y-104522488D01*
X160855483Y-104522490D01*
X160795862Y-104604550D01*
X160716657Y-104713566D01*
X160609433Y-104924003D01*
X160536446Y-105148631D01*
X160499500Y-105381902D01*
X160499500Y-105618097D01*
X160536446Y-105851368D01*
X160609433Y-106075996D01*
X160716657Y-106286433D01*
X160855483Y-106477510D01*
X161022490Y-106644517D01*
X161213567Y-106783343D01*
X161294862Y-106824765D01*
X161424003Y-106890566D01*
X161424005Y-106890566D01*
X161424008Y-106890568D01*
X161544412Y-106929689D01*
X161648631Y-106963553D01*
X161881903Y-107000500D01*
X161881908Y-107000500D01*
X162118097Y-107000500D01*
X162351368Y-106963553D01*
X162368169Y-106958094D01*
X162575992Y-106890568D01*
X162786433Y-106783343D01*
X162977510Y-106644517D01*
X163144517Y-106477510D01*
X163283343Y-106286433D01*
X163390568Y-106075992D01*
X163463553Y-105851368D01*
X163500500Y-105618097D01*
X163500500Y-105381902D01*
X166999500Y-105381902D01*
X166999500Y-105618097D01*
X167036446Y-105851368D01*
X167109433Y-106075996D01*
X167216657Y-106286433D01*
X167355483Y-106477510D01*
X167522490Y-106644517D01*
X167713567Y-106783343D01*
X167794862Y-106824765D01*
X167924003Y-106890566D01*
X167924005Y-106890566D01*
X167924008Y-106890568D01*
X168044412Y-106929689D01*
X168148631Y-106963553D01*
X168381903Y-107000500D01*
X168381908Y-107000500D01*
X168618097Y-107000500D01*
X168851368Y-106963553D01*
X168868169Y-106958094D01*
X169075992Y-106890568D01*
X169286433Y-106783343D01*
X169477510Y-106644517D01*
X169644517Y-106477510D01*
X169783343Y-106286433D01*
X169890568Y-106075992D01*
X169963553Y-105851368D01*
X170000500Y-105618097D01*
X170000500Y-105381902D01*
X169963553Y-105148631D01*
X169901534Y-104957758D01*
X169890568Y-104924008D01*
X169890566Y-104924005D01*
X169890566Y-104924003D01*
X169783342Y-104713566D01*
X169644517Y-104522490D01*
X169477510Y-104355483D01*
X169286433Y-104216657D01*
X169270326Y-104208450D01*
X169075996Y-104109433D01*
X168851368Y-104036446D01*
X168618097Y-103999500D01*
X168618092Y-103999500D01*
X168381908Y-103999500D01*
X168381903Y-103999500D01*
X168148631Y-104036446D01*
X167924003Y-104109433D01*
X167713566Y-104216657D01*
X167636691Y-104272511D01*
X167522490Y-104355483D01*
X167522488Y-104355485D01*
X167522487Y-104355485D01*
X167355485Y-104522487D01*
X167355485Y-104522488D01*
X167355483Y-104522490D01*
X167295862Y-104604550D01*
X167216657Y-104713566D01*
X167109433Y-104924003D01*
X167036446Y-105148631D01*
X166999500Y-105381902D01*
X163500500Y-105381902D01*
X163463553Y-105148631D01*
X163401534Y-104957758D01*
X163390568Y-104924008D01*
X163390566Y-104924005D01*
X163390566Y-104924003D01*
X163283342Y-104713566D01*
X163144517Y-104522490D01*
X162977510Y-104355483D01*
X162863309Y-104272511D01*
X162786431Y-104216655D01*
X162668204Y-104156415D01*
X162617409Y-104108441D01*
X162600500Y-104045931D01*
X162600500Y-103820945D01*
X162600500Y-103820943D01*
X162559577Y-103668216D01*
X162532669Y-103621610D01*
X162480524Y-103531290D01*
X162480521Y-103531286D01*
X162480520Y-103531284D01*
X162368716Y-103419480D01*
X162368715Y-103419479D01*
X162364385Y-103415149D01*
X162364374Y-103415139D01*
X159794077Y-100844842D01*
X159760592Y-100783519D01*
X159763828Y-100718841D01*
X159768477Y-100704534D01*
X159800500Y-100502352D01*
X159800500Y-100297648D01*
X159768477Y-100095466D01*
X159768476Y-100095464D01*
X159705218Y-99900776D01*
X159636300Y-99765519D01*
X159612287Y-99718390D01*
X159555709Y-99640516D01*
X159491971Y-99552786D01*
X159347213Y-99408028D01*
X159181614Y-99287715D01*
X159175006Y-99284348D01*
X159088917Y-99240483D01*
X159038123Y-99192511D01*
X159021328Y-99124690D01*
X159043865Y-99058555D01*
X159088917Y-99019516D01*
X159181610Y-98972287D01*
X159202770Y-98956913D01*
X159347213Y-98851971D01*
X159347215Y-98851968D01*
X159347219Y-98851966D01*
X159491966Y-98707219D01*
X159491968Y-98707215D01*
X159491971Y-98707213D01*
X159612284Y-98541614D01*
X159612285Y-98541613D01*
X159612287Y-98541610D01*
X159619117Y-98528204D01*
X159667091Y-98477409D01*
X159729602Y-98460500D01*
X165059903Y-98460500D01*
X165126942Y-98480185D01*
X165147584Y-98496819D01*
X171547200Y-104896435D01*
X171580685Y-104957758D01*
X171577450Y-105022433D01*
X171536447Y-105148628D01*
X171499500Y-105381902D01*
X171499500Y-105618097D01*
X171536446Y-105851368D01*
X171609433Y-106075996D01*
X171716657Y-106286433D01*
X171855483Y-106477510D01*
X172022490Y-106644517D01*
X172213567Y-106783343D01*
X172294862Y-106824765D01*
X172424003Y-106890566D01*
X172424005Y-106890566D01*
X172424008Y-106890568D01*
X172544412Y-106929689D01*
X172648631Y-106963553D01*
X172881903Y-107000500D01*
X172881908Y-107000500D01*
X173118097Y-107000500D01*
X173351368Y-106963553D01*
X173368169Y-106958094D01*
X173575992Y-106890568D01*
X173786433Y-106783343D01*
X173977510Y-106644517D01*
X174144517Y-106477510D01*
X174283343Y-106286433D01*
X174390568Y-106075992D01*
X174463553Y-105851368D01*
X174500500Y-105618097D01*
X174500500Y-105381902D01*
X177999500Y-105381902D01*
X177999500Y-105618097D01*
X178036446Y-105851368D01*
X178109433Y-106075996D01*
X178216657Y-106286433D01*
X178355483Y-106477510D01*
X178522490Y-106644517D01*
X178713567Y-106783343D01*
X178794862Y-106824765D01*
X178924003Y-106890566D01*
X178924005Y-106890566D01*
X178924008Y-106890568D01*
X179044412Y-106929689D01*
X179148631Y-106963553D01*
X179381903Y-107000500D01*
X179381908Y-107000500D01*
X179618097Y-107000500D01*
X179851368Y-106963553D01*
X179868169Y-106958094D01*
X180075992Y-106890568D01*
X180286433Y-106783343D01*
X180477510Y-106644517D01*
X180644517Y-106477510D01*
X180783343Y-106286433D01*
X180890568Y-106075992D01*
X180963553Y-105851368D01*
X181000500Y-105618097D01*
X181000500Y-105381902D01*
X180963553Y-105148631D01*
X180901534Y-104957758D01*
X180890568Y-104924008D01*
X180890566Y-104924005D01*
X180890566Y-104924003D01*
X180783342Y-104713566D01*
X180644517Y-104522490D01*
X180477510Y-104355483D01*
X180286433Y-104216657D01*
X180270326Y-104208450D01*
X180075996Y-104109433D01*
X179851368Y-104036446D01*
X179618097Y-103999500D01*
X179618092Y-103999500D01*
X179381908Y-103999500D01*
X179381903Y-103999500D01*
X179148631Y-104036446D01*
X178924003Y-104109433D01*
X178713566Y-104216657D01*
X178636691Y-104272511D01*
X178522490Y-104355483D01*
X178522488Y-104355485D01*
X178522487Y-104355485D01*
X178355485Y-104522487D01*
X178355485Y-104522488D01*
X178355483Y-104522490D01*
X178295862Y-104604550D01*
X178216657Y-104713566D01*
X178109433Y-104924003D01*
X178036446Y-105148631D01*
X177999500Y-105381902D01*
X174500500Y-105381902D01*
X174463553Y-105148631D01*
X174401534Y-104957758D01*
X174390568Y-104924008D01*
X174390566Y-104924005D01*
X174390566Y-104924003D01*
X174283342Y-104713566D01*
X174144517Y-104522490D01*
X173977510Y-104355483D01*
X173786433Y-104216657D01*
X173770326Y-104208450D01*
X173575996Y-104109433D01*
X173351368Y-104036446D01*
X173118097Y-103999500D01*
X173118092Y-103999500D01*
X172881908Y-103999500D01*
X172881903Y-103999500D01*
X172648628Y-104036447D01*
X172522433Y-104077450D01*
X172452592Y-104079445D01*
X172396435Y-104047200D01*
X165847590Y-97498355D01*
X165847588Y-97498352D01*
X165728717Y-97379481D01*
X165728716Y-97379480D01*
X165641904Y-97329360D01*
X165641904Y-97329359D01*
X165641900Y-97329358D01*
X165591785Y-97300423D01*
X165439057Y-97259499D01*
X165280943Y-97259499D01*
X165273347Y-97259499D01*
X165273331Y-97259500D01*
X159729602Y-97259500D01*
X159662563Y-97239815D01*
X159619117Y-97191795D01*
X159612284Y-97178385D01*
X159491971Y-97012786D01*
X159347213Y-96868028D01*
X159181614Y-96747715D01*
X159175006Y-96744348D01*
X159088917Y-96700483D01*
X159038123Y-96652511D01*
X159021328Y-96584690D01*
X159043865Y-96518555D01*
X159088917Y-96479516D01*
X159181610Y-96432287D01*
X159202770Y-96416913D01*
X159347213Y-96311971D01*
X159347215Y-96311968D01*
X159347219Y-96311966D01*
X159491966Y-96167219D01*
X159491968Y-96167215D01*
X159491971Y-96167213D01*
X159544732Y-96094590D01*
X159612287Y-96001610D01*
X159705220Y-95819219D01*
X159768477Y-95624534D01*
X159800500Y-95422352D01*
X159800500Y-95217648D01*
X159768477Y-95015466D01*
X159705220Y-94820781D01*
X159705218Y-94820778D01*
X159705218Y-94820776D01*
X159671503Y-94754607D01*
X159612287Y-94638390D01*
X159601423Y-94623437D01*
X159491971Y-94472786D01*
X159347213Y-94328028D01*
X159181614Y-94207715D01*
X159175006Y-94204348D01*
X159088917Y-94160483D01*
X159038123Y-94112511D01*
X159021328Y-94044690D01*
X159043865Y-93978555D01*
X159088917Y-93939516D01*
X159181610Y-93892287D01*
X159202770Y-93876913D01*
X159347213Y-93771971D01*
X159347215Y-93771968D01*
X159347219Y-93771966D01*
X159491966Y-93627219D01*
X159491968Y-93627215D01*
X159491971Y-93627213D01*
X159544732Y-93554590D01*
X159612287Y-93461610D01*
X159705220Y-93279219D01*
X159768477Y-93084534D01*
X159800500Y-92882352D01*
X159800500Y-92677648D01*
X159768477Y-92475466D01*
X159705220Y-92280781D01*
X159705218Y-92280778D01*
X159705218Y-92280776D01*
X159671503Y-92214607D01*
X159612287Y-92098390D01*
X159604556Y-92087749D01*
X159491971Y-91932786D01*
X159347213Y-91788028D01*
X159181614Y-91667715D01*
X159175006Y-91664348D01*
X159088917Y-91620483D01*
X159038123Y-91572511D01*
X159021328Y-91504690D01*
X159043865Y-91438555D01*
X159088917Y-91399516D01*
X159181610Y-91352287D01*
X159202770Y-91336913D01*
X159347213Y-91231971D01*
X159347215Y-91231968D01*
X159347219Y-91231966D01*
X159491966Y-91087219D01*
X159491968Y-91087215D01*
X159491971Y-91087213D01*
X159612284Y-90921614D01*
X159612285Y-90921613D01*
X159612287Y-90921610D01*
X159619117Y-90908204D01*
X159667091Y-90857409D01*
X159729602Y-90840500D01*
X165173331Y-90840500D01*
X165173347Y-90840501D01*
X165180943Y-90840501D01*
X165339054Y-90840501D01*
X165339057Y-90840501D01*
X165491785Y-90799577D01*
X165541904Y-90770639D01*
X165628716Y-90720520D01*
X165740520Y-90608716D01*
X165740520Y-90608714D01*
X165750728Y-90598507D01*
X165750729Y-90598504D01*
X177404207Y-78945027D01*
X177465528Y-78911544D01*
X177530199Y-78914778D01*
X177658423Y-78956441D01*
X177695465Y-78968477D01*
X177749801Y-78977083D01*
X177897648Y-79000500D01*
X177897649Y-79000500D01*
X178102351Y-79000500D01*
X178102352Y-79000500D01*
X178304534Y-78968477D01*
X178499219Y-78905220D01*
X178681610Y-78812287D01*
X178792104Y-78732009D01*
X178847213Y-78691971D01*
X178847215Y-78691968D01*
X178847219Y-78691966D01*
X178991966Y-78547219D01*
X178991968Y-78547215D01*
X178991971Y-78547213D01*
X179044732Y-78474590D01*
X179112287Y-78381610D01*
X179205220Y-78199219D01*
X179268477Y-78004534D01*
X179300500Y-77802352D01*
X179300500Y-77197648D01*
X179269195Y-77000000D01*
X179268477Y-76995465D01*
X179223937Y-76858386D01*
X179205220Y-76800781D01*
X179205218Y-76800778D01*
X179205218Y-76800776D01*
X179159515Y-76711080D01*
X179112287Y-76618390D01*
X179061171Y-76548034D01*
X178991971Y-76452786D01*
X178847213Y-76308028D01*
X178681613Y-76187715D01*
X178681612Y-76187714D01*
X178681610Y-76187713D01*
X178624653Y-76158691D01*
X178499223Y-76094781D01*
X178304534Y-76031522D01*
X178129995Y-76003878D01*
X178102352Y-75999500D01*
X177897648Y-75999500D01*
X177873329Y-76003351D01*
X177695465Y-76031522D01*
X177500776Y-76094781D01*
X177318386Y-76187715D01*
X177152786Y-76308028D01*
X177008028Y-76452786D01*
X176887715Y-76618386D01*
X176840485Y-76711080D01*
X176792510Y-76761876D01*
X176724689Y-76778671D01*
X176658554Y-76756134D01*
X176619515Y-76711080D01*
X176572419Y-76618650D01*
X176572287Y-76618390D01*
X176521171Y-76548034D01*
X176451971Y-76452786D01*
X176307213Y-76308028D01*
X176141613Y-76187715D01*
X176141612Y-76187714D01*
X176141610Y-76187713D01*
X176084653Y-76158691D01*
X175959223Y-76094781D01*
X175764534Y-76031522D01*
X175589995Y-76003878D01*
X175562352Y-75999500D01*
X175357648Y-75999500D01*
X175333329Y-76003351D01*
X175155465Y-76031522D01*
X174960776Y-76094781D01*
X174778386Y-76187715D01*
X174612786Y-76308028D01*
X174468028Y-76452786D01*
X174347715Y-76618386D01*
X174300485Y-76711080D01*
X174252510Y-76761876D01*
X174184689Y-76778671D01*
X174118554Y-76756134D01*
X174079515Y-76711080D01*
X174032419Y-76618650D01*
X174032287Y-76618390D01*
X173981171Y-76548034D01*
X173911971Y-76452786D01*
X173767213Y-76308028D01*
X173601613Y-76187715D01*
X173601612Y-76187714D01*
X173601610Y-76187713D01*
X173544653Y-76158691D01*
X173419223Y-76094781D01*
X173224534Y-76031522D01*
X173049995Y-76003878D01*
X173022352Y-75999500D01*
X172817648Y-75999500D01*
X172793329Y-76003351D01*
X172615465Y-76031522D01*
X172420776Y-76094781D01*
X172238386Y-76187715D01*
X172072786Y-76308028D01*
X171928028Y-76452786D01*
X171807713Y-76618388D01*
X171760203Y-76711630D01*
X171712228Y-76762426D01*
X171644407Y-76779220D01*
X171578272Y-76756682D01*
X171539234Y-76711628D01*
X171491861Y-76618652D01*
X171371582Y-76453105D01*
X171371582Y-76453104D01*
X171226895Y-76308417D01*
X171061349Y-76188140D01*
X170879029Y-76095244D01*
X170684413Y-76032009D01*
X170630000Y-76023390D01*
X170630000Y-77066988D01*
X170572993Y-77034075D01*
X170445826Y-77000000D01*
X170314174Y-77000000D01*
X170187007Y-77034075D01*
X170130000Y-77066988D01*
X170130000Y-76023390D01*
X170075586Y-76032009D01*
X169880970Y-76095244D01*
X169698650Y-76188140D01*
X169533105Y-76308417D01*
X169533104Y-76308417D01*
X169388417Y-76453104D01*
X169388417Y-76453105D01*
X169268140Y-76618650D01*
X169175244Y-76800968D01*
X169112009Y-76995582D01*
X169080000Y-77197682D01*
X169080000Y-77250000D01*
X169946988Y-77250000D01*
X169914075Y-77307007D01*
X169880000Y-77434174D01*
X169880000Y-77565826D01*
X169914075Y-77692993D01*
X169946988Y-77750000D01*
X169080000Y-77750000D01*
X169080000Y-77802317D01*
X169112009Y-78004417D01*
X169175244Y-78199031D01*
X169268140Y-78381349D01*
X169388417Y-78546894D01*
X169388417Y-78546895D01*
X169533104Y-78691582D01*
X169698650Y-78811859D01*
X169880968Y-78904754D01*
X170075578Y-78967988D01*
X170130000Y-78976607D01*
X170130000Y-77933012D01*
X170187007Y-77965925D01*
X170314174Y-78000000D01*
X170445826Y-78000000D01*
X170572993Y-77965925D01*
X170630000Y-77933012D01*
X170630000Y-78889402D01*
X170610315Y-78956441D01*
X170593681Y-78977083D01*
X170127584Y-79443181D01*
X170066261Y-79476666D01*
X170039903Y-79479500D01*
X159729602Y-79479500D01*
X159662563Y-79459815D01*
X159619117Y-79411795D01*
X159612284Y-79398385D01*
X159491971Y-79232786D01*
X159347213Y-79088028D01*
X159181614Y-78967715D01*
X159137090Y-78945029D01*
X159088917Y-78920483D01*
X159038123Y-78872511D01*
X159021328Y-78804690D01*
X159043865Y-78738555D01*
X159088917Y-78699516D01*
X159181610Y-78652287D01*
X159202770Y-78636913D01*
X159347213Y-78531971D01*
X159347215Y-78531968D01*
X159347219Y-78531966D01*
X159491966Y-78387219D01*
X159491968Y-78387215D01*
X159491971Y-78387213D01*
X159544732Y-78314590D01*
X159612287Y-78221610D01*
X159705220Y-78039219D01*
X159768477Y-77844534D01*
X159800500Y-77642352D01*
X159800500Y-77437648D01*
X159768477Y-77235466D01*
X159705220Y-77040781D01*
X159705218Y-77040778D01*
X159705218Y-77040776D01*
X159671503Y-76974607D01*
X159612287Y-76858390D01*
X159570432Y-76800781D01*
X159491971Y-76692786D01*
X159347213Y-76548028D01*
X159181614Y-76427715D01*
X159175006Y-76424348D01*
X159088917Y-76380483D01*
X159038123Y-76332511D01*
X159021328Y-76264690D01*
X159043865Y-76198555D01*
X159088917Y-76159516D01*
X159181610Y-76112287D01*
X159205707Y-76094780D01*
X159347213Y-75991971D01*
X159347215Y-75991968D01*
X159347219Y-75991966D01*
X159491966Y-75847219D01*
X159491968Y-75847215D01*
X159491971Y-75847213D01*
X159544732Y-75774590D01*
X159612287Y-75681610D01*
X159705220Y-75499219D01*
X159768477Y-75304534D01*
X159800500Y-75102352D01*
X159800500Y-74897648D01*
X159768477Y-74695465D01*
X159705218Y-74500776D01*
X159671503Y-74434607D01*
X159612287Y-74318390D01*
X159604556Y-74307749D01*
X159491971Y-74152786D01*
X159347213Y-74008028D01*
X159181614Y-73887715D01*
X159175006Y-73884348D01*
X159088917Y-73840483D01*
X159038123Y-73792511D01*
X159021328Y-73724690D01*
X159043865Y-73658555D01*
X159088917Y-73619516D01*
X159181610Y-73572287D01*
X159202770Y-73556913D01*
X159347213Y-73451971D01*
X159347215Y-73451968D01*
X159347219Y-73451966D01*
X159491966Y-73307219D01*
X159491968Y-73307215D01*
X159491971Y-73307213D01*
X159544732Y-73234590D01*
X159612287Y-73141610D01*
X159705220Y-72959219D01*
X159768477Y-72764534D01*
X159800500Y-72562352D01*
X159800500Y-72357648D01*
X159768477Y-72155466D01*
X159705220Y-71960781D01*
X159701645Y-71953765D01*
X159697248Y-71945134D01*
X159671047Y-71893713D01*
X183649500Y-71893713D01*
X183649500Y-72106287D01*
X183682754Y-72316243D01*
X183696207Y-72357648D01*
X183748444Y-72518414D01*
X183844951Y-72707820D01*
X183969890Y-72879786D01*
X184120213Y-73030109D01*
X184292179Y-73155048D01*
X184292181Y-73155049D01*
X184292184Y-73155051D01*
X184481588Y-73251557D01*
X184683757Y-73317246D01*
X184893713Y-73350500D01*
X184893714Y-73350500D01*
X185106286Y-73350500D01*
X185106287Y-73350500D01*
X185316243Y-73317246D01*
X185518412Y-73251557D01*
X185707816Y-73155051D01*
X185729789Y-73139086D01*
X185879786Y-73030109D01*
X185879788Y-73030106D01*
X185879792Y-73030104D01*
X186030104Y-72879792D01*
X186030106Y-72879788D01*
X186030109Y-72879786D01*
X186155048Y-72707820D01*
X186155047Y-72707820D01*
X186155051Y-72707816D01*
X186251557Y-72518412D01*
X186317246Y-72316243D01*
X186350500Y-72106287D01*
X186350500Y-71893713D01*
X186317246Y-71683757D01*
X186251557Y-71481588D01*
X186155051Y-71292184D01*
X186155049Y-71292181D01*
X186155048Y-71292179D01*
X186030109Y-71120213D01*
X185879786Y-70969890D01*
X185707820Y-70844951D01*
X185518414Y-70748444D01*
X185518413Y-70748443D01*
X185518412Y-70748443D01*
X185316243Y-70682754D01*
X185316241Y-70682753D01*
X185316240Y-70682753D01*
X185154957Y-70657208D01*
X185106287Y-70649500D01*
X184893713Y-70649500D01*
X184845042Y-70657208D01*
X184683760Y-70682753D01*
X184481585Y-70748444D01*
X184292179Y-70844951D01*
X184120213Y-70969890D01*
X183969890Y-71120213D01*
X183844951Y-71292179D01*
X183748444Y-71481585D01*
X183682753Y-71683760D01*
X183667766Y-71778386D01*
X183649500Y-71893713D01*
X159671047Y-71893713D01*
X159666089Y-71883982D01*
X159612287Y-71778390D01*
X159604556Y-71767749D01*
X159491971Y-71612786D01*
X159347213Y-71468028D01*
X159181613Y-71347715D01*
X159181612Y-71347714D01*
X159181610Y-71347713D01*
X159124653Y-71318691D01*
X158999223Y-71254781D01*
X158804534Y-71191522D01*
X158629995Y-71163878D01*
X158602352Y-71159500D01*
X158397648Y-71159500D01*
X158373329Y-71163351D01*
X158195465Y-71191522D01*
X158000776Y-71254781D01*
X157818386Y-71347715D01*
X157652786Y-71468028D01*
X157508028Y-71612786D01*
X157387715Y-71778386D01*
X157294781Y-71960776D01*
X157231522Y-72155465D01*
X157199500Y-72357648D01*
X157199500Y-72562351D01*
X157231522Y-72764534D01*
X157236173Y-72778848D01*
X157238165Y-72848690D01*
X157205921Y-72904842D01*
X149370590Y-80740175D01*
X149309267Y-80773660D01*
X149282909Y-80776494D01*
X144567053Y-80776494D01*
X144500014Y-80756809D01*
X144454259Y-80704005D01*
X144444315Y-80634847D01*
X144456569Y-80596198D01*
X144465217Y-80579225D01*
X144465218Y-80579223D01*
X144465220Y-80579219D01*
X144528477Y-80384534D01*
X144560500Y-80182352D01*
X144560500Y-79977648D01*
X144528477Y-79775466D01*
X144521630Y-79754394D01*
X144497432Y-79679920D01*
X144465220Y-79580781D01*
X144465218Y-79580778D01*
X144465218Y-79580776D01*
X144424553Y-79500968D01*
X144372287Y-79398390D01*
X144347005Y-79363592D01*
X144251971Y-79232786D01*
X144107213Y-79088028D01*
X143941614Y-78967715D01*
X143897090Y-78945029D01*
X143848917Y-78920483D01*
X143798123Y-78872511D01*
X143781328Y-78804690D01*
X143803865Y-78738555D01*
X143848917Y-78699516D01*
X143941610Y-78652287D01*
X143962770Y-78636913D01*
X144107213Y-78531971D01*
X144107215Y-78531968D01*
X144107219Y-78531966D01*
X144251966Y-78387219D01*
X144251968Y-78387215D01*
X144251971Y-78387213D01*
X144304732Y-78314590D01*
X144372287Y-78221610D01*
X144465220Y-78039219D01*
X144528477Y-77844534D01*
X144560500Y-77642352D01*
X144560500Y-77437648D01*
X144528477Y-77235466D01*
X144465220Y-77040781D01*
X144465218Y-77040778D01*
X144465218Y-77040776D01*
X144431503Y-76974607D01*
X144372287Y-76858390D01*
X144330432Y-76800781D01*
X144251971Y-76692786D01*
X144107213Y-76548028D01*
X143941614Y-76427715D01*
X143935006Y-76424348D01*
X143848917Y-76380483D01*
X143798123Y-76332511D01*
X143781328Y-76264690D01*
X143803865Y-76198555D01*
X143848917Y-76159516D01*
X143941610Y-76112287D01*
X143965707Y-76094780D01*
X144107213Y-75991971D01*
X144107215Y-75991968D01*
X144107219Y-75991966D01*
X144251966Y-75847219D01*
X144251968Y-75847215D01*
X144251971Y-75847213D01*
X144304732Y-75774590D01*
X144372287Y-75681610D01*
X144465220Y-75499219D01*
X144528477Y-75304534D01*
X144560500Y-75102352D01*
X144560500Y-74897648D01*
X144528477Y-74695465D01*
X144465218Y-74500776D01*
X144431503Y-74434607D01*
X144372287Y-74318390D01*
X144364556Y-74307749D01*
X144251971Y-74152786D01*
X144107219Y-74008034D01*
X144070930Y-73981669D01*
X144028264Y-73926339D01*
X144022285Y-73856726D01*
X144054890Y-73794931D01*
X144115728Y-73760573D01*
X144130562Y-73758060D01*
X144167483Y-73754091D01*
X144302328Y-73703797D01*
X144302327Y-73703797D01*
X144302331Y-73703796D01*
X144417546Y-73617546D01*
X144503796Y-73502331D01*
X144554091Y-73367483D01*
X144560500Y-73307873D01*
X144560499Y-71612128D01*
X144554091Y-71552517D01*
X144527636Y-71481588D01*
X144503797Y-71417671D01*
X144503793Y-71417664D01*
X144417547Y-71302455D01*
X144417544Y-71302452D01*
X144302335Y-71216206D01*
X144302328Y-71216202D01*
X144167482Y-71165908D01*
X144167483Y-71165908D01*
X144107883Y-71159501D01*
X144107881Y-71159500D01*
X144107873Y-71159500D01*
X144107864Y-71159500D01*
X142412129Y-71159500D01*
X142412123Y-71159501D01*
X142352516Y-71165908D01*
X142217671Y-71216202D01*
X142217664Y-71216206D01*
X142102455Y-71302452D01*
X142102452Y-71302455D01*
X142016206Y-71417664D01*
X142016202Y-71417671D01*
X141965908Y-71552517D01*
X141959501Y-71612116D01*
X141959501Y-71612123D01*
X141959500Y-71612135D01*
X141959500Y-73307870D01*
X141959501Y-73307876D01*
X141965908Y-73367483D01*
X142016202Y-73502328D01*
X142016206Y-73502335D01*
X142102452Y-73617544D01*
X142102455Y-73617547D01*
X142217664Y-73703793D01*
X142217671Y-73703797D01*
X142262618Y-73720561D01*
X142352517Y-73754091D01*
X142389441Y-73758060D01*
X142453989Y-73784796D01*
X142493838Y-73842188D01*
X142496333Y-73912013D01*
X142460681Y-73972102D01*
X142449071Y-73981666D01*
X142412784Y-74008030D01*
X142268028Y-74152786D01*
X142147715Y-74318386D01*
X142054781Y-74500776D01*
X141991522Y-74695465D01*
X141959500Y-74897648D01*
X141959500Y-75102351D01*
X141991522Y-75304534D01*
X142054781Y-75499223D01*
X142147715Y-75681613D01*
X142268028Y-75847213D01*
X142412786Y-75991971D01*
X142554293Y-76094780D01*
X142578390Y-76112287D01*
X142669840Y-76158883D01*
X142671080Y-76159515D01*
X142721876Y-76207490D01*
X142738671Y-76275311D01*
X142716134Y-76341446D01*
X142671080Y-76380485D01*
X142578386Y-76427715D01*
X142412786Y-76548028D01*
X142268028Y-76692786D01*
X142147715Y-76858386D01*
X142054781Y-77040776D01*
X141991522Y-77235465D01*
X141959500Y-77437648D01*
X141959500Y-77642351D01*
X141991522Y-77844534D01*
X142054781Y-78039223D01*
X142118691Y-78164653D01*
X142136306Y-78199223D01*
X142147715Y-78221613D01*
X142268028Y-78387213D01*
X142412786Y-78531971D01*
X142567749Y-78644556D01*
X142578390Y-78652287D01*
X142656274Y-78691971D01*
X142671080Y-78699515D01*
X142721876Y-78747490D01*
X142738671Y-78815311D01*
X142716134Y-78881446D01*
X142671080Y-78920485D01*
X142578386Y-78967715D01*
X142412786Y-79088028D01*
X142268028Y-79232786D01*
X142147715Y-79398386D01*
X142054781Y-79580776D01*
X141991522Y-79775465D01*
X141959500Y-79977648D01*
X141959500Y-80182351D01*
X141991522Y-80384534D01*
X142054781Y-80579223D01*
X142147734Y-80761651D01*
X142152295Y-80785942D01*
X142160933Y-80809099D01*
X142158631Y-80819678D01*
X142160630Y-80830320D01*
X142151334Y-80853223D01*
X142146081Y-80877372D01*
X142136147Y-80890643D01*
X142134354Y-80895061D01*
X142124931Y-80905627D01*
X142022280Y-81008278D01*
X142022279Y-81008278D01*
X142022278Y-81008279D01*
X142022278Y-81008280D01*
X141579205Y-81451354D01*
X141167378Y-81863181D01*
X141106055Y-81896666D01*
X141079697Y-81899500D01*
X135424499Y-81899500D01*
X135357460Y-81879815D01*
X135311705Y-81827011D01*
X135300499Y-81775500D01*
X135300499Y-81652129D01*
X135300498Y-81652123D01*
X135300497Y-81652116D01*
X135294091Y-81592517D01*
X135289810Y-81581040D01*
X135243797Y-81457671D01*
X135243793Y-81457664D01*
X135157547Y-81342455D01*
X135157544Y-81342452D01*
X135042335Y-81256206D01*
X135042328Y-81256202D01*
X134907482Y-81205908D01*
X134907483Y-81205908D01*
X134847883Y-81199501D01*
X134847881Y-81199500D01*
X134847873Y-81199500D01*
X134847864Y-81199500D01*
X134844548Y-81199322D01*
X134844632Y-81197742D01*
X134783579Y-81179815D01*
X134737824Y-81127011D01*
X134730173Y-81083725D01*
X134046447Y-80400000D01*
X134052661Y-80400000D01*
X134154394Y-80372741D01*
X134245606Y-80320080D01*
X134320080Y-80245606D01*
X134372741Y-80154394D01*
X134400000Y-80052661D01*
X134400000Y-80046447D01*
X135079474Y-80725921D01*
X135111859Y-80681349D01*
X135204755Y-80499031D01*
X135267990Y-80304417D01*
X135300000Y-80102317D01*
X135300000Y-79897682D01*
X135267990Y-79695582D01*
X135204755Y-79500968D01*
X135111859Y-79318650D01*
X135079474Y-79274077D01*
X135079474Y-79274076D01*
X134400000Y-79953551D01*
X134400000Y-79947339D01*
X134372741Y-79845606D01*
X134320080Y-79754394D01*
X134245606Y-79679920D01*
X134154394Y-79627259D01*
X134052661Y-79600000D01*
X134046446Y-79600000D01*
X134725922Y-78920524D01*
X134725921Y-78920523D01*
X134681359Y-78888147D01*
X134681350Y-78888141D01*
X134499031Y-78795244D01*
X134304417Y-78732009D01*
X134102317Y-78700000D01*
X133897683Y-78700000D01*
X133695582Y-78732009D01*
X133500968Y-78795244D01*
X133318644Y-78888143D01*
X133274077Y-78920523D01*
X133274077Y-78920524D01*
X133953554Y-79600000D01*
X133947339Y-79600000D01*
X133845606Y-79627259D01*
X133754394Y-79679920D01*
X133679920Y-79754394D01*
X133627259Y-79845606D01*
X133600000Y-79947339D01*
X133600000Y-79953553D01*
X132920524Y-79274077D01*
X132920523Y-79274077D01*
X132888143Y-79318644D01*
X132795244Y-79500968D01*
X132732009Y-79695582D01*
X132700000Y-79897682D01*
X132700000Y-80102317D01*
X132732009Y-80304417D01*
X132795244Y-80499031D01*
X132888141Y-80681350D01*
X132888147Y-80681359D01*
X132920523Y-80725921D01*
X132920524Y-80725922D01*
X133600000Y-80046446D01*
X133600000Y-80052661D01*
X133627259Y-80154394D01*
X133679920Y-80245606D01*
X133754394Y-80320080D01*
X133845606Y-80372741D01*
X133947339Y-80400000D01*
X133953553Y-80400000D01*
X133269067Y-81084483D01*
X133258633Y-81134150D01*
X133209581Y-81183906D01*
X133155365Y-81198000D01*
X133155423Y-81199099D01*
X133155429Y-81199146D01*
X133155426Y-81199146D01*
X133155436Y-81199324D01*
X133152123Y-81199501D01*
X133092516Y-81205908D01*
X132957671Y-81256202D01*
X132957664Y-81256206D01*
X132842455Y-81342452D01*
X132842452Y-81342455D01*
X132756206Y-81457664D01*
X132756202Y-81457671D01*
X132705908Y-81592517D01*
X132702091Y-81628028D01*
X132699501Y-81652123D01*
X132699500Y-81652135D01*
X132699500Y-81886650D01*
X132679815Y-81953689D01*
X132627011Y-81999444D01*
X132575500Y-82010650D01*
X125506248Y-82010650D01*
X125439209Y-81990965D01*
X125395764Y-81942945D01*
X125375581Y-81903335D01*
X125375580Y-81903334D01*
X125250638Y-81731363D01*
X125100315Y-81581040D01*
X124928346Y-81456099D01*
X124919033Y-81451354D01*
X124868236Y-81403380D01*
X124851441Y-81335559D01*
X124873978Y-81269424D01*
X124919036Y-81230382D01*
X124928087Y-81225770D01*
X125099988Y-81100877D01*
X125099993Y-81100873D01*
X125250252Y-80950614D01*
X125250256Y-80950609D01*
X125375149Y-80778707D01*
X125471624Y-80589367D01*
X125537286Y-80387279D01*
X125537286Y-80387276D01*
X125547760Y-80321150D01*
X124653541Y-80321150D01*
X124686454Y-80264143D01*
X124720529Y-80136976D01*
X124720529Y-80005324D01*
X124686454Y-79878157D01*
X124653541Y-79821150D01*
X125547760Y-79821150D01*
X125537286Y-79755023D01*
X125537286Y-79755020D01*
X125471624Y-79552932D01*
X125375149Y-79363592D01*
X125250256Y-79191690D01*
X125250252Y-79191685D01*
X125099993Y-79041426D01*
X125099988Y-79041422D01*
X124928086Y-78916529D01*
X124738744Y-78820053D01*
X124536653Y-78754391D01*
X124470529Y-78743918D01*
X124470529Y-79638138D01*
X124413522Y-79605225D01*
X124286355Y-79571150D01*
X124154703Y-79571150D01*
X124027536Y-79605225D01*
X123970529Y-79638138D01*
X123970529Y-78743918D01*
X123970528Y-78743918D01*
X123904404Y-78754391D01*
X123702313Y-78820053D01*
X123512971Y-78916529D01*
X123341069Y-79041422D01*
X123341064Y-79041426D01*
X123190805Y-79191685D01*
X123190801Y-79191690D01*
X123065908Y-79363592D01*
X122969433Y-79552932D01*
X122903771Y-79755020D01*
X122903771Y-79755023D01*
X122893298Y-79821150D01*
X123787517Y-79821150D01*
X123754604Y-79878157D01*
X123720529Y-80005324D01*
X123720529Y-80136976D01*
X123754604Y-80264143D01*
X123787517Y-80321150D01*
X122893298Y-80321150D01*
X122903771Y-80387276D01*
X122903771Y-80387279D01*
X122969433Y-80589367D01*
X123065908Y-80778707D01*
X123190801Y-80950609D01*
X123190805Y-80950614D01*
X123341064Y-81100873D01*
X123341069Y-81100877D01*
X123512973Y-81225772D01*
X123522024Y-81230384D01*
X123572821Y-81278358D01*
X123589616Y-81346179D01*
X123567079Y-81412314D01*
X123522028Y-81451352D01*
X123512711Y-81456099D01*
X123340742Y-81581040D01*
X123190419Y-81731363D01*
X123065480Y-81903329D01*
X122968973Y-82092735D01*
X122903282Y-82294910D01*
X122880078Y-82441415D01*
X122870029Y-82504863D01*
X122870029Y-82717437D01*
X122877258Y-82763078D01*
X122903283Y-82927394D01*
X122903283Y-82927397D01*
X122917020Y-82969673D01*
X122919015Y-83039514D01*
X122886770Y-83095672D01*
X122634456Y-83347986D01*
X122634449Y-83347993D01*
X122631286Y-83351157D01*
X122631284Y-83351159D01*
X122519480Y-83462963D01*
X122494268Y-83506632D01*
X122440423Y-83599894D01*
X122399499Y-83752622D01*
X122399499Y-83910736D01*
X122399499Y-83910738D01*
X122399500Y-83920732D01*
X122399500Y-106653330D01*
X122399499Y-106653348D01*
X122399499Y-106819054D01*
X122399498Y-106819054D01*
X116500500Y-106819054D01*
X116500500Y-71893713D01*
X118649500Y-71893713D01*
X118649500Y-72106287D01*
X118682754Y-72316243D01*
X118696207Y-72357648D01*
X118748444Y-72518414D01*
X118844951Y-72707820D01*
X118969890Y-72879786D01*
X119120213Y-73030109D01*
X119292179Y-73155048D01*
X119292181Y-73155049D01*
X119292184Y-73155051D01*
X119481588Y-73251557D01*
X119683757Y-73317246D01*
X119893713Y-73350500D01*
X119893714Y-73350500D01*
X120106286Y-73350500D01*
X120106287Y-73350500D01*
X120316243Y-73317246D01*
X120518412Y-73251557D01*
X120707816Y-73155051D01*
X120729789Y-73139086D01*
X120879786Y-73030109D01*
X120879788Y-73030106D01*
X120879792Y-73030104D01*
X121030104Y-72879792D01*
X121030106Y-72879788D01*
X121030109Y-72879786D01*
X121155048Y-72707820D01*
X121155047Y-72707820D01*
X121155051Y-72707816D01*
X121251557Y-72518412D01*
X121317246Y-72316243D01*
X121350500Y-72106287D01*
X121350500Y-71893713D01*
X121317246Y-71683757D01*
X121251557Y-71481588D01*
X121155051Y-71292184D01*
X121155049Y-71292181D01*
X121155048Y-71292179D01*
X121030109Y-71120213D01*
X120879786Y-70969890D01*
X120707820Y-70844951D01*
X120518414Y-70748444D01*
X120518413Y-70748443D01*
X120518412Y-70748443D01*
X120316243Y-70682754D01*
X120316241Y-70682753D01*
X120316240Y-70682753D01*
X120154957Y-70657208D01*
X120106287Y-70649500D01*
X119893713Y-70649500D01*
X119845042Y-70657208D01*
X119683760Y-70682753D01*
X119481585Y-70748444D01*
X119292179Y-70844951D01*
X119120213Y-70969890D01*
X118969890Y-71120213D01*
X118844951Y-71292179D01*
X118748444Y-71481585D01*
X118682753Y-71683760D01*
X118667766Y-71778386D01*
X118649500Y-71893713D01*
X116500500Y-71893713D01*
X116500500Y-68624500D01*
X116520185Y-68557461D01*
X116572989Y-68511706D01*
X116624500Y-68500500D01*
X187875500Y-68500500D01*
X187942539Y-68520185D01*
G37*
%TD.AperFunction*%
%TD*%
%TA.AperFunction,NonConductor*%
G36*
X141907415Y-82896082D02*
G01*
X141933587Y-82897954D01*
X141940986Y-82903493D01*
X141950015Y-82905486D01*
X141968516Y-82924100D01*
X141989521Y-82939824D01*
X141995387Y-82951136D01*
X141999269Y-82955042D01*
X142000576Y-82961144D01*
X142008186Y-82975818D01*
X142054780Y-83119219D01*
X142136373Y-83279355D01*
X142147715Y-83301613D01*
X142268028Y-83467213D01*
X142412786Y-83611971D01*
X142535331Y-83701003D01*
X142578390Y-83732287D01*
X142644950Y-83766201D01*
X142671080Y-83779515D01*
X142721876Y-83827490D01*
X142738671Y-83895311D01*
X142716134Y-83961446D01*
X142671080Y-84000485D01*
X142578386Y-84047715D01*
X142412786Y-84168028D01*
X142268034Y-84312780D01*
X142268030Y-84312786D01*
X142147713Y-84478390D01*
X142145392Y-84482944D01*
X142097421Y-84533740D01*
X142034908Y-84550650D01*
X125695028Y-84550650D01*
X125627989Y-84530965D01*
X125582234Y-84478161D01*
X125571028Y-84426650D01*
X125571028Y-84253279D01*
X125571027Y-84253273D01*
X125564620Y-84193666D01*
X125514326Y-84058821D01*
X125514322Y-84058814D01*
X125428076Y-83943605D01*
X125428073Y-83943602D01*
X125312864Y-83857356D01*
X125312857Y-83857352D01*
X125181446Y-83808339D01*
X125125512Y-83766468D01*
X125101095Y-83701003D01*
X125115947Y-83632730D01*
X125137092Y-83604482D01*
X125250633Y-83490942D01*
X125375580Y-83318966D01*
X125384422Y-83301613D01*
X125395764Y-83279355D01*
X125443738Y-83228559D01*
X125506248Y-83211650D01*
X132575501Y-83211650D01*
X132642540Y-83231335D01*
X132688295Y-83284139D01*
X132699501Y-83335650D01*
X132699501Y-83347876D01*
X132705908Y-83407483D01*
X132756202Y-83542328D01*
X132756206Y-83542335D01*
X132842452Y-83657544D01*
X132842455Y-83657547D01*
X132957664Y-83743793D01*
X132957671Y-83743797D01*
X133092517Y-83794091D01*
X133092516Y-83794091D01*
X133099444Y-83794835D01*
X133152127Y-83800500D01*
X134847872Y-83800499D01*
X134907483Y-83794091D01*
X135042331Y-83743796D01*
X135157546Y-83657546D01*
X135243796Y-83542331D01*
X135294091Y-83407483D01*
X135300500Y-83347873D01*
X135300500Y-83224500D01*
X135320185Y-83157461D01*
X135372989Y-83111706D01*
X135424500Y-83100500D01*
X141293125Y-83100500D01*
X141293141Y-83100501D01*
X141300737Y-83100501D01*
X141458848Y-83100501D01*
X141458851Y-83100501D01*
X141611579Y-83059577D01*
X141661698Y-83030639D01*
X141748510Y-82980520D01*
X141808984Y-82920045D01*
X141816249Y-82914642D01*
X141840862Y-82905546D01*
X141863895Y-82892970D01*
X141873115Y-82893629D01*
X141881787Y-82890425D01*
X141907415Y-82896082D01*
G37*
%TD.AperFunction*%
%TA.AperFunction,NonConductor*%
G36*
X172450202Y-78914780D02*
G01*
X172578423Y-78956441D01*
X172615466Y-78968477D01*
X172817648Y-79000500D01*
X172817651Y-79000500D01*
X172820771Y-79000746D01*
X172821886Y-79001171D01*
X172822460Y-79001262D01*
X172822440Y-79001382D01*
X172886059Y-79025632D01*
X172927528Y-79081864D01*
X172932012Y-79151590D01*
X172898719Y-79212044D01*
X165047584Y-87063181D01*
X164986261Y-87096666D01*
X164959903Y-87099500D01*
X159729602Y-87099500D01*
X159662563Y-87079815D01*
X159619117Y-87031795D01*
X159612284Y-87018385D01*
X159491971Y-86852786D01*
X159347213Y-86708028D01*
X159181614Y-86587715D01*
X159124492Y-86558610D01*
X159088917Y-86540483D01*
X159038123Y-86492511D01*
X159021328Y-86424690D01*
X159043865Y-86358555D01*
X159088917Y-86319516D01*
X159181610Y-86272287D01*
X159221263Y-86243478D01*
X159347213Y-86151971D01*
X159347215Y-86151968D01*
X159347219Y-86151966D01*
X159491966Y-86007219D01*
X159491968Y-86007215D01*
X159491971Y-86007213D01*
X159544732Y-85934590D01*
X159612287Y-85841610D01*
X159705220Y-85659219D01*
X159768477Y-85464534D01*
X159800500Y-85262352D01*
X159800500Y-85057648D01*
X159768477Y-84855466D01*
X159705220Y-84660781D01*
X159705218Y-84660778D01*
X159705218Y-84660776D01*
X159639075Y-84530965D01*
X159612287Y-84478390D01*
X159574696Y-84426650D01*
X159491971Y-84312786D01*
X159347213Y-84168028D01*
X159181614Y-84047715D01*
X159175006Y-84044348D01*
X159088917Y-84000483D01*
X159038123Y-83952511D01*
X159021328Y-83884690D01*
X159043865Y-83818555D01*
X159088917Y-83779516D01*
X159181610Y-83732287D01*
X159284486Y-83657544D01*
X159347213Y-83611971D01*
X159347215Y-83611968D01*
X159347219Y-83611966D01*
X159491966Y-83467219D01*
X159491968Y-83467215D01*
X159491971Y-83467213D01*
X159544732Y-83394590D01*
X159612287Y-83301610D01*
X159705220Y-83119219D01*
X159768477Y-82924534D01*
X159800500Y-82722352D01*
X159800500Y-82517648D01*
X159793829Y-82475531D01*
X159768477Y-82315465D01*
X159711801Y-82141036D01*
X159705220Y-82120781D01*
X159705218Y-82120778D01*
X159705218Y-82120776D01*
X159648844Y-82010138D01*
X159612287Y-81938390D01*
X159586814Y-81903329D01*
X159491971Y-81772786D01*
X159347213Y-81628028D01*
X159181614Y-81507715D01*
X159175006Y-81504348D01*
X159088917Y-81460483D01*
X159038123Y-81412511D01*
X159021328Y-81344690D01*
X159043865Y-81278555D01*
X159088917Y-81239516D01*
X159181610Y-81192287D01*
X159202770Y-81176913D01*
X159347213Y-81071971D01*
X159347215Y-81071968D01*
X159347219Y-81071966D01*
X159491966Y-80927219D01*
X159491968Y-80927215D01*
X159491971Y-80927213D01*
X159612284Y-80761614D01*
X159612283Y-80761614D01*
X159612287Y-80761610D01*
X159619117Y-80748204D01*
X159667091Y-80697409D01*
X159729602Y-80680500D01*
X170253331Y-80680500D01*
X170253347Y-80680501D01*
X170260943Y-80680501D01*
X170419054Y-80680501D01*
X170419057Y-80680501D01*
X170571785Y-80639577D01*
X170621904Y-80610639D01*
X170708716Y-80560520D01*
X170820520Y-80448716D01*
X170820520Y-80448714D01*
X170830728Y-80438507D01*
X170830730Y-80438504D01*
X172324205Y-78945028D01*
X172385526Y-78911545D01*
X172450202Y-78914780D01*
G37*
%TD.AperFunction*%
%TA.AperFunction,NonConductor*%
G36*
X174990202Y-78914780D02*
G01*
X175118423Y-78956441D01*
X175155466Y-78968477D01*
X175357648Y-79000500D01*
X175357650Y-79000500D01*
X175360771Y-79000746D01*
X175361886Y-79001171D01*
X175362460Y-79001262D01*
X175362440Y-79001382D01*
X175426059Y-79025632D01*
X175467527Y-79081865D01*
X175472011Y-79151591D01*
X175438718Y-79212044D01*
X165047584Y-89603181D01*
X164986261Y-89636666D01*
X164959903Y-89639500D01*
X159729602Y-89639500D01*
X159662563Y-89619815D01*
X159619117Y-89571795D01*
X159612284Y-89558385D01*
X159491971Y-89392786D01*
X159347213Y-89248028D01*
X159181614Y-89127715D01*
X159175006Y-89124348D01*
X159088917Y-89080483D01*
X159038123Y-89032511D01*
X159021328Y-88964690D01*
X159043865Y-88898555D01*
X159088917Y-88859516D01*
X159181610Y-88812287D01*
X159202770Y-88796913D01*
X159347213Y-88691971D01*
X159347215Y-88691968D01*
X159347219Y-88691966D01*
X159491966Y-88547219D01*
X159491968Y-88547215D01*
X159491971Y-88547213D01*
X159612284Y-88381614D01*
X159612285Y-88381613D01*
X159612287Y-88381610D01*
X159619117Y-88368204D01*
X159667091Y-88317409D01*
X159729602Y-88300500D01*
X165173331Y-88300500D01*
X165173347Y-88300501D01*
X165180943Y-88300501D01*
X165339054Y-88300501D01*
X165339057Y-88300501D01*
X165491785Y-88259577D01*
X165541904Y-88230639D01*
X165628716Y-88180520D01*
X165740520Y-88068716D01*
X165740520Y-88068714D01*
X165750728Y-88058507D01*
X165750730Y-88058504D01*
X174864205Y-78945028D01*
X174877560Y-78937736D01*
X174887851Y-78926524D01*
X174907601Y-78921332D01*
X174925526Y-78911545D01*
X174941750Y-78912356D01*
X174955425Y-78908762D01*
X174990202Y-78914780D01*
G37*
%TD.AperFunction*%
%TA.AperFunction,NonConductor*%
G36*
X157118834Y-74792914D02*
G01*
X157174767Y-74834786D01*
X157199184Y-74900250D01*
X157199500Y-74909096D01*
X157199500Y-75102351D01*
X157231522Y-75304534D01*
X157294781Y-75499223D01*
X157387715Y-75681613D01*
X157508028Y-75847213D01*
X157652786Y-75991971D01*
X157794293Y-76094780D01*
X157818390Y-76112287D01*
X157909840Y-76158883D01*
X157911080Y-76159515D01*
X157961876Y-76207490D01*
X157978671Y-76275311D01*
X157956134Y-76341446D01*
X157911080Y-76380485D01*
X157818386Y-76427715D01*
X157652786Y-76548028D01*
X157508028Y-76692786D01*
X157387715Y-76858386D01*
X157294781Y-77040776D01*
X157231522Y-77235465D01*
X157199500Y-77437648D01*
X157199500Y-77642351D01*
X157231522Y-77844534D01*
X157294781Y-78039223D01*
X157358691Y-78164653D01*
X157376306Y-78199223D01*
X157387715Y-78221613D01*
X157508028Y-78387213D01*
X157652786Y-78531971D01*
X157807749Y-78644556D01*
X157818390Y-78652287D01*
X157896274Y-78691971D01*
X157911080Y-78699515D01*
X157961876Y-78747490D01*
X157978671Y-78815311D01*
X157956134Y-78881446D01*
X157911080Y-78920485D01*
X157818386Y-78967715D01*
X157652786Y-79088028D01*
X157508028Y-79232786D01*
X157387715Y-79398386D01*
X157294781Y-79580776D01*
X157231522Y-79775465D01*
X157199500Y-79977648D01*
X157199500Y-80182351D01*
X157231522Y-80384534D01*
X157236173Y-80398848D01*
X157238165Y-80468690D01*
X157205921Y-80524842D01*
X144772181Y-92958583D01*
X144710858Y-92992068D01*
X144641166Y-92987084D01*
X144585233Y-92945212D01*
X144560816Y-92879748D01*
X144560500Y-92870902D01*
X144560500Y-92677648D01*
X144528477Y-92475465D01*
X144465218Y-92280776D01*
X144431503Y-92214607D01*
X144372287Y-92098390D01*
X144364556Y-92087749D01*
X144251971Y-91932786D01*
X144107213Y-91788028D01*
X143941614Y-91667715D01*
X143935006Y-91664348D01*
X143848917Y-91620483D01*
X143798123Y-91572511D01*
X143781328Y-91504690D01*
X143803865Y-91438555D01*
X143848917Y-91399516D01*
X143941610Y-91352287D01*
X143962770Y-91336913D01*
X144107213Y-91231971D01*
X144107215Y-91231968D01*
X144107219Y-91231966D01*
X144251966Y-91087219D01*
X144251968Y-91087215D01*
X144251971Y-91087213D01*
X144304732Y-91014590D01*
X144372287Y-90921610D01*
X144465220Y-90739219D01*
X144528477Y-90544534D01*
X144560500Y-90342352D01*
X144560500Y-90137648D01*
X144528477Y-89935466D01*
X144465220Y-89740781D01*
X144465218Y-89740778D01*
X144465218Y-89740776D01*
X144431503Y-89674607D01*
X144372287Y-89558390D01*
X144364556Y-89547749D01*
X144251971Y-89392786D01*
X144107213Y-89248028D01*
X143941614Y-89127715D01*
X143935006Y-89124348D01*
X143848917Y-89080483D01*
X143798123Y-89032511D01*
X143781328Y-88964690D01*
X143803865Y-88898555D01*
X143848917Y-88859516D01*
X143941610Y-88812287D01*
X143962770Y-88796913D01*
X144107213Y-88691971D01*
X144107215Y-88691968D01*
X144107219Y-88691966D01*
X144251966Y-88547219D01*
X144251968Y-88547215D01*
X144251971Y-88547213D01*
X144304732Y-88474590D01*
X144372287Y-88381610D01*
X144465220Y-88199219D01*
X144528477Y-88004534D01*
X144560500Y-87802352D01*
X144560500Y-87597648D01*
X144528477Y-87395466D01*
X144465220Y-87200781D01*
X144465218Y-87200778D01*
X144465218Y-87200776D01*
X144431503Y-87134607D01*
X144372287Y-87018390D01*
X144364556Y-87007749D01*
X144251971Y-86852786D01*
X144107213Y-86708028D01*
X143941614Y-86587715D01*
X143884492Y-86558610D01*
X143848917Y-86540483D01*
X143798123Y-86492511D01*
X143781328Y-86424690D01*
X143803865Y-86358555D01*
X143848917Y-86319516D01*
X143941610Y-86272287D01*
X143981263Y-86243478D01*
X144107213Y-86151971D01*
X144107215Y-86151968D01*
X144107219Y-86151966D01*
X144251966Y-86007219D01*
X144251968Y-86007215D01*
X144251971Y-86007213D01*
X144304732Y-85934590D01*
X144372287Y-85841610D01*
X144465220Y-85659219D01*
X144528477Y-85464534D01*
X144560500Y-85262352D01*
X144560500Y-85057648D01*
X144528477Y-84855466D01*
X144465220Y-84660781D01*
X144465218Y-84660778D01*
X144465218Y-84660776D01*
X144399075Y-84530965D01*
X144372287Y-84478390D01*
X144334696Y-84426650D01*
X144251971Y-84312786D01*
X144107213Y-84168028D01*
X143941614Y-84047715D01*
X143935006Y-84044348D01*
X143848917Y-84000483D01*
X143798123Y-83952511D01*
X143781328Y-83884690D01*
X143803865Y-83818555D01*
X143848917Y-83779516D01*
X143941610Y-83732287D01*
X144044486Y-83657544D01*
X144107213Y-83611971D01*
X144107215Y-83611968D01*
X144107219Y-83611966D01*
X144251966Y-83467219D01*
X144251968Y-83467215D01*
X144251971Y-83467213D01*
X144304732Y-83394590D01*
X144372287Y-83301610D01*
X144465220Y-83119219D01*
X144528477Y-82924534D01*
X144560500Y-82722352D01*
X144560500Y-82517648D01*
X144528477Y-82315466D01*
X144528476Y-82315462D01*
X144528476Y-82315461D01*
X144471404Y-82139812D01*
X144469409Y-82069971D01*
X144505489Y-82010138D01*
X144568190Y-81979310D01*
X144589335Y-81977494D01*
X149496337Y-81977494D01*
X149496353Y-81977495D01*
X149503949Y-81977495D01*
X149662060Y-81977495D01*
X149662063Y-81977495D01*
X149814791Y-81936571D01*
X149879001Y-81899499D01*
X149951722Y-81857514D01*
X150063526Y-81745710D01*
X150063526Y-81745708D01*
X150073730Y-81735505D01*
X150073734Y-81735500D01*
X156987819Y-74821415D01*
X157049142Y-74787930D01*
X157118834Y-74792914D01*
G37*
%TD.AperFunction*%
%TA.AperFunction,NonConductor*%
G36*
X157105398Y-82411953D02*
G01*
X157118834Y-82412914D01*
X157136560Y-82426184D01*
X157156703Y-82435383D01*
X157163985Y-82446714D01*
X157174767Y-82454786D01*
X157182504Y-82475531D01*
X157194477Y-82494161D01*
X157197628Y-82516079D01*
X157199184Y-82520250D01*
X157199500Y-82529096D01*
X157199500Y-82722351D01*
X157231522Y-82924534D01*
X157294781Y-83119223D01*
X157351906Y-83231335D01*
X157376373Y-83279355D01*
X157387715Y-83301613D01*
X157508028Y-83467213D01*
X157652786Y-83611971D01*
X157775331Y-83701003D01*
X157818390Y-83732287D01*
X157884950Y-83766201D01*
X157911080Y-83779515D01*
X157961876Y-83827490D01*
X157978671Y-83895311D01*
X157956134Y-83961446D01*
X157911080Y-84000485D01*
X157818386Y-84047715D01*
X157652786Y-84168028D01*
X157508028Y-84312786D01*
X157387715Y-84478386D01*
X157294781Y-84660776D01*
X157231522Y-84855465D01*
X157199500Y-85057648D01*
X157199500Y-85262351D01*
X157231522Y-85464534D01*
X157294781Y-85659223D01*
X157387715Y-85841613D01*
X157508028Y-86007213D01*
X157652786Y-86151971D01*
X157778747Y-86243485D01*
X157818390Y-86272287D01*
X157909840Y-86318883D01*
X157911080Y-86319515D01*
X157961876Y-86367490D01*
X157978671Y-86435311D01*
X157956134Y-86501446D01*
X157911080Y-86540485D01*
X157818386Y-86587715D01*
X157652786Y-86708028D01*
X157508028Y-86852786D01*
X157387715Y-87018385D01*
X157380883Y-87031795D01*
X157332909Y-87082591D01*
X157270398Y-87099500D01*
X156386670Y-87099500D01*
X156386654Y-87099499D01*
X156379058Y-87099499D01*
X156220943Y-87099499D01*
X156144579Y-87119961D01*
X156068214Y-87140423D01*
X156068209Y-87140426D01*
X155931290Y-87219475D01*
X155931282Y-87219481D01*
X144673375Y-98477389D01*
X144612052Y-98510874D01*
X144542360Y-98505890D01*
X144486427Y-98464018D01*
X144462010Y-98398554D01*
X144467762Y-98351394D01*
X144528477Y-98164534D01*
X144560500Y-97962352D01*
X144560500Y-97757648D01*
X144528477Y-97555466D01*
X144465220Y-97360781D01*
X144465218Y-97360778D01*
X144465218Y-97360776D01*
X144431503Y-97294607D01*
X144372287Y-97178390D01*
X144364556Y-97167749D01*
X144251971Y-97012786D01*
X144107213Y-96868028D01*
X143941614Y-96747715D01*
X143935006Y-96744348D01*
X143848917Y-96700483D01*
X143798123Y-96652511D01*
X143781328Y-96584690D01*
X143803865Y-96518555D01*
X143848917Y-96479516D01*
X143941610Y-96432287D01*
X143962770Y-96416913D01*
X144107213Y-96311971D01*
X144107215Y-96311968D01*
X144107219Y-96311966D01*
X144251966Y-96167219D01*
X144251968Y-96167215D01*
X144251971Y-96167213D01*
X144304732Y-96094590D01*
X144372287Y-96001610D01*
X144465220Y-95819219D01*
X144528477Y-95624534D01*
X144560500Y-95422352D01*
X144560500Y-95217648D01*
X144528477Y-95015466D01*
X144467135Y-94826677D01*
X144465141Y-94756840D01*
X144501221Y-94697007D01*
X144563921Y-94666178D01*
X144585067Y-94664362D01*
X144595193Y-94664362D01*
X144595196Y-94664362D01*
X144747924Y-94623438D01*
X144798043Y-94594500D01*
X144884855Y-94544381D01*
X144996659Y-94432577D01*
X144996659Y-94432575D01*
X145006867Y-94422368D01*
X145006869Y-94422365D01*
X156987819Y-82441415D01*
X157007255Y-82430802D01*
X157023989Y-82416302D01*
X157037320Y-82414385D01*
X157049142Y-82407930D01*
X157071228Y-82409509D01*
X157093147Y-82406358D01*
X157105398Y-82411953D01*
G37*
%TD.AperFunction*%
%TA.AperFunction,NonConductor*%
G36*
X157337437Y-88320185D02*
G01*
X157380883Y-88368205D01*
X157387715Y-88381614D01*
X157508028Y-88547213D01*
X157652786Y-88691971D01*
X157807749Y-88804556D01*
X157818390Y-88812287D01*
X157909840Y-88858883D01*
X157911080Y-88859515D01*
X157961876Y-88907490D01*
X157978671Y-88975311D01*
X157956134Y-89041446D01*
X157911080Y-89080485D01*
X157818386Y-89127715D01*
X157652786Y-89248028D01*
X157508028Y-89392786D01*
X157387715Y-89558385D01*
X157380883Y-89571795D01*
X157332909Y-89622591D01*
X157270398Y-89639500D01*
X156199071Y-89639500D01*
X156040956Y-89639500D01*
X155888229Y-89680423D01*
X155888228Y-89680423D01*
X155888226Y-89680424D01*
X155888223Y-89680425D01*
X155838110Y-89709359D01*
X155838109Y-89709360D01*
X155794703Y-89734420D01*
X155751299Y-89759479D01*
X155751296Y-89759481D01*
X144746058Y-100764720D01*
X144684735Y-100798205D01*
X144615043Y-100793221D01*
X144559110Y-100751349D01*
X144534693Y-100685885D01*
X144535904Y-100657641D01*
X144560500Y-100502350D01*
X144560500Y-100297648D01*
X144558631Y-100285849D01*
X144528477Y-100095466D01*
X144528476Y-100095462D01*
X144528476Y-100095461D01*
X144472379Y-99922814D01*
X144471575Y-99894694D01*
X144467572Y-99866849D01*
X144470591Y-99860237D01*
X144470384Y-99852973D01*
X144484910Y-99828883D01*
X144496597Y-99803293D01*
X144502710Y-99799363D01*
X144506464Y-99793140D01*
X144531710Y-99780727D01*
X144555375Y-99765519D01*
X144565645Y-99764042D01*
X144569165Y-99762312D01*
X144590310Y-99760496D01*
X144753335Y-99760496D01*
X144753351Y-99760497D01*
X144760947Y-99760497D01*
X144919058Y-99760497D01*
X144919061Y-99760497D01*
X145071789Y-99719573D01*
X145121908Y-99690635D01*
X145208720Y-99640516D01*
X145320524Y-99528712D01*
X145320524Y-99528710D01*
X145330732Y-99518503D01*
X145330733Y-99518500D01*
X156512417Y-88336819D01*
X156573740Y-88303334D01*
X156600098Y-88300500D01*
X157270398Y-88300500D01*
X157337437Y-88320185D01*
G37*
%TD.AperFunction*%
%TA.AperFunction,NonConductor*%
G36*
X141878834Y-100290833D02*
G01*
X141934767Y-100332705D01*
X141959184Y-100398169D01*
X141959500Y-100407015D01*
X141959500Y-100502351D01*
X141991522Y-100704534D01*
X142027655Y-100815737D01*
X142054780Y-100899219D01*
X142054782Y-100899223D01*
X142054784Y-100899229D01*
X142056647Y-100903728D01*
X142054535Y-100904602D01*
X142065701Y-100963979D01*
X142039439Y-101028725D01*
X141982341Y-101068995D01*
X141974412Y-101071406D01*
X141866143Y-101100417D01*
X141866132Y-101100422D01*
X141729213Y-101179471D01*
X141729205Y-101179477D01*
X136479479Y-106429203D01*
X136476176Y-106434925D01*
X136449864Y-106480500D01*
X136400423Y-106566134D01*
X136384106Y-106627030D01*
X136359498Y-106718864D01*
X136358438Y-106726922D01*
X136355885Y-106726585D01*
X136339814Y-106781320D01*
X136291796Y-106824765D01*
X136252180Y-106844950D01*
X136080213Y-106969890D01*
X135929890Y-107120213D01*
X135804949Y-107292182D01*
X135800484Y-107300946D01*
X135752509Y-107351742D01*
X135684688Y-107368536D01*
X135618553Y-107345998D01*
X135579516Y-107300946D01*
X135575050Y-107292182D01*
X135450109Y-107120213D01*
X135299790Y-106969894D01*
X135296079Y-106966724D01*
X135296777Y-106965905D01*
X135257272Y-106914661D01*
X135251301Y-106845047D01*
X135283914Y-106783255D01*
X135285074Y-106782078D01*
X141747819Y-100319334D01*
X141809142Y-100285849D01*
X141878834Y-100290833D01*
G37*
%TD.AperFunction*%
M02*
